Fraunces9ptSharp-Bold.ufo
<glyph name="exclam" format="2">
  <advance width="667.4"/>
  <unicode hex="0021"/>
  <outline>
    <contour>
      <point x="333.6" y="1496.6000000000001" type="curve" smooth="yes"/>
      <point x="186.60000000000002" y="1496.6000000000001"/>
      <point x="118.80000000000001" y="1423.0"/>
      <point x="118.80000000000001" y="1310.0" type="curve" smooth="yes"/>
      <point x="118.80000000000001" y="1274.6"/>
      <point x="124.60000000000001" y="1233.3999999999999"/>
      <point x="136.8" y="1185.1999999999998" type="curve" smooth="yes"/>
      <point x="259.6" y="572.1999999999999" type="line" smooth="yes"/>
      <point x="274.2" y="514.5999999999999"/>
      <point x="293.2" y="488.59999999999997"/>
      <point x="333.6000000000001" y="488.59999999999997" type="curve" smooth="yes"/>
      <point x="374.0" y="488.59999999999997"/>
      <point x="393.0" y="514.5999999999999"/>
      <point x="407.6" y="572.2" type="curve" smooth="yes"/>
      <point x="530.4" y="1185.2" type="line" smooth="yes"/>
      <point x="542.6" y="1233.3999999999999"/>
      <point x="548.4" y="1274.6"/>
      <point x="548.4" y="1310.0" type="curve" smooth="yes"/>
      <point x="548.4" y="1423.0"/>
      <point x="480.6" y="1496.6000000000001"/>
    </contour>
    <component base="period" xOffset="33.6"/>
  </outline>
</glyph>
<glyph name="numbersign" format="2">
  <advance width="1349.6000000000001"/>
  <unicode hex="0023"/>
  <outline>
    <contour>
      <point x="527.6" y="687.4" type="curve" smooth="yes"/>
      <point x="569.2000000000002" y="842.6"/>
      <point x="672.4" y="1171.9999999999998"/>
      <point x="713.0" y="1322.1999999999998" type="curve" smooth="yes"/>
      <point x="725.0000000000001" y="1364.2"/>
      <point x="711.0" y="1395.0"/>
      <point x="667.4000000000001" y="1405.4" type="curve" smooth="yes"/>
      <point x="625.8" y="1414.8"/>
      <point x="598.0" y="1396.0"/>
      <point x="585.2" y="1355.0" type="curve" smooth="yes"/>
      <point x="546.3999999999999" y="1206.4"/>
      <point x="478.0" y="866.6"/>
      <point x="435.2" y="710.1999999999999" type="curve" smooth="yes"/>
      <point x="392.79999999999995" y="550.2"/>
      <point x="276.0" y="220.8"/>
      <point x="236.2" y="76.2" type="curve" smooth="yes"/>
      <point x="224.99999999999997" y="34.199999999999996"/>
      <point x="238.99999999999997" y="4.200000000000001"/>
      <point x="281.8" y="-7.0" type="curve" smooth="yes"/>
      <point x="323.40000000000003" y="-16.4"/>
      <point x="351.2" y="2.4"/>
      <point x="364.0" y="44.199999999999996" type="curve" smooth="yes"/>
      <point x="406.0" y="201.6"/>
      <point x="486.4" y="533.3999999999999"/>
    </contour>
    <contour>
      <point x="716.0" y="980.8" type="curve" smooth="yes"/>
      <point x="579.0000000000001" y="979.2"/>
      <point x="305.4" y="1005.2"/>
      <point x="178.8" y="1004.4000000000001" type="curve" smooth="yes"/>
      <point x="132.0" y="1003.5999999999999"/>
      <point x="103.60000000000001" y="983.6"/>
      <point x="103.60000000000001" y="942.5999999999999" type="curve" smooth="yes"/>
      <point x="104.4" y="903.2"/>
      <point x="132.0" y="881.6"/>
      <point x="178.8" y="882.4" type="curve" smooth="yes"/>
      <point x="305.4" y="881.6"/>
      <point x="580.6" y="892.0"/>
      <point x="715.2" y="893.6" type="curve" smooth="yes"/>
      <point x="849.0000000000001" y="893.6"/>
      <point x="1117.0" y="878.3999999999999"/>
      <point x="1241.2" y="877.5999999999999" type="curve" smooth="yes"/>
      <point x="1288.0" y="878.4"/>
      <point x="1315.6000000000001" y="899.9999999999999"/>
      <point x="1317.2" y="940.1999999999999" type="curve" smooth="yes"/>
      <point x="1315.6000000000001" y="979.6"/>
      <point x="1287.2" y="1000.3999999999999"/>
      <point x="1242.0000000000002" y="1000.3999999999999" type="curve" smooth="yes"/>
      <point x="1117.8" y="998.8"/>
      <point x="850.0" y="980.8"/>
    </contour>
    <contour>
      <point x="644.0" y="447.59999999999997" type="curve" smooth="yes"/>
      <point x="777.0" y="447.59999999999997"/>
      <point x="1045.0" y="433.2"/>
      <point x="1170.0000000000002" y="431.6" type="curve" smooth="yes"/>
      <point x="1216.8000000000002" y="433.2"/>
      <point x="1244.4" y="454.0"/>
      <point x="1246.0" y="494.20000000000005" type="curve" smooth="yes"/>
      <point x="1244.4" y="533.6"/>
      <point x="1216.0" y="554.4"/>
      <point x="1170.8000000000002" y="554.4" type="curve" smooth="yes"/>
      <point x="1046.6" y="552.8"/>
      <point x="778.8000000000001" y="534.8"/>
      <point x="644.8000000000001" y="534.8" type="curve" smooth="yes"/>
      <point x="507.7999999999999" y="534.0"/>
      <point x="233.4" y="559.2"/>
      <point x="107.60000000000001" y="558.4" type="curve" smooth="yes"/>
      <point x="60.8" y="558.4"/>
      <point x="32.400000000000006" y="538.4"/>
      <point x="32.400000000000006" y="497.4" type="curve" smooth="yes"/>
      <point x="33.2" y="458.00000000000006"/>
      <point x="60.800000000000004" y="436.4"/>
      <point x="107.60000000000001" y="436.4" type="curve" smooth="yes"/>
      <point x="234.2" y="436.4"/>
      <point x="509.40000000000003" y="446.79999999999995"/>
    </contour>
    <contour>
      <point x="750.6" y="44.199999999999996" type="curve" smooth="yes"/>
      <point x="792.6000000000001" y="201.60000000000002"/>
      <point x="873.0" y="533.4000000000001"/>
      <point x="914.1999999999999" y="687.4" type="curve" smooth="yes"/>
      <point x="955.8" y="841.8"/>
      <point x="1058.9999999999998" y="1172.0"/>
      <point x="1098.8000000000002" y="1321.3999999999999" type="curve" smooth="yes"/>
      <point x="1111.6" y="1363.4"/>
      <point x="1097.6" y="1395.0"/>
      <point x="1054.0000000000002" y="1405.4" type="curve" smooth="yes"/>
      <point x="1012.4000000000002" y="1414.8"/>
      <point x="984.6" y="1396.0"/>
      <point x="972.6" y="1354.2" type="curve" smooth="yes"/>
      <point x="933.0" y="1206.4"/>
      <point x="865.4000000000001" y="867.4"/>
      <point x="822.6" y="710.1999999999999" type="curve" smooth="yes"/>
      <point x="779.4000000000001" y="550.2"/>
      <point x="662.5999999999999" y="220.8"/>
      <point x="622.8000000000001" y="76.2" type="curve" smooth="yes"/>
      <point x="611.6000000000001" y="34.2"/>
      <point x="625.6" y="4.200000000000001"/>
      <point x="668.4000000000001" y="-7.0" type="curve" smooth="yes"/>
      <point x="710.0" y="-16.4"/>
      <point x="737.8" y="2.4"/>
    </contour>
  </outline>
</glyph>
<glyph name="dollar" format="2">
  <advance width="1237.2"/>
  <unicode hex="0024"/>
  <outline>
    <contour>
      <point x="648.8" y="1393.2" type="curve" smooth="yes"/>
      <point x="311.23811764705886" y="1393.2"/>
      <point x="101.0" y="1211.7999999999997"/>
      <point x="101.0" y="982.6" type="curve" smooth="yes"/>
      <point x="101.0" y="787.4284210526315"/>
      <point x="213.9741773442821" y="656.8077381022185"/>
      <point x="527.8" y="549.3999999999999" type="curve" smooth="yes"/>
      <point x="769.5747316513846" y="469.6073120862294"/>
      <point x="845.8000000000001" y="385.8"/>
      <point x="845.8000000000001" y="263.2" type="curve" smooth="yes"/>
      <point x="845.8000000000001" y="145.2"/>
      <point x="752.9119266055046" y="70.99999999999999"/>
      <point x="611.8000000000001" y="70.99999999999999" type="curve" smooth="yes"/>
      <point x="477.275" y="70.99999999999999"/>
      <point x="392.40000000000003" y="144.4"/>
      <point x="392.40000000000003" y="246.39999999999998" type="curve" smooth="yes"/>
      <point x="392.40000000000003" y="324.2" type="line" smooth="yes"/>
      <point x="392.40000000000003" y="420.40000000000003"/>
      <point x="323.2" y="482.8"/>
      <point x="238.20000000000002" y="482.8" type="curve" smooth="yes"/>
      <point x="142.79999999999998" y="482.8"/>
      <point x="83.6" y="416.6"/>
      <point x="83.6" y="323.2" type="curve" smooth="yes"/>
      <point x="83.6" y="148.4"/>
      <point x="271.420979020979" y="4.6"/>
      <point x="609.0000000000001" y="4.6" type="curve" smooth="yes"/>
      <point x="956.7555555555556" y="4.6"/>
      <point x="1163.2" y="164.2"/>
      <point x="1163.2" y="411.0" type="curve" smooth="yes"/>
      <point x="1163.2" y="584.0"/>
      <point x="1060.8" y="722.4"/>
      <point x="723.4" y="835.4" type="curve" smooth="yes"/>
      <point x="491.59999999999997" y="912.1999999999999"/>
      <point x="415.2" y="996.8000000000001"/>
      <point x="415.2" y="1119.0" type="curve" smooth="yes"/>
      <point x="415.2" y="1252.0"/>
      <point x="506.64045584045584" y="1330.4"/>
      <point x="635.8000000000001" y="1330.4" type="curve" smooth="yes"/>
      <point x="759.8486111111112" y="1330.4"/>
      <point x="833.8000000000001" y="1253.0902654867257"/>
      <point x="833.8000000000001" y="1141.6" type="curve" smooth="yes"/>
      <point x="833.8000000000001" y="1056.0" type="line" smooth="yes"/>
      <point x="833.8000000000001" y="966.9999999999999"/>
      <point x="906.2" y="906.1999999999999"/>
      <point x="1003.4" y="906.1999999999999" type="curve" smooth="yes"/>
      <point x="1087.0000000000002" y="906.1999999999999"/>
      <point x="1144.4" y="978.0"/>
      <point x="1144.4" y="1068.6" type="curve" smooth="yes"/>
      <point x="1144.4" y="1258.4747330960852"/>
      <point x="965.8516971279373" y="1393.2"/>
    </contour>
    <contour>
      <point x="672.8000000000001" y="754.2" type="line"/>
      <point x="672.4000000000001" y="1179.0"/>
      <point x="713.2" y="1378.8"/>
      <point x="713.2" y="1513.2" type="curve" smooth="yes"/>
      <point x="713.2" y="1567.0"/>
      <point x="680.4" y="1594.3999999999999"/>
      <point x="639.8000000000001" y="1594.3999999999999" type="curve" smooth="yes"/>
      <point x="596.0" y="1594.3999999999999"/>
      <point x="566.4" y="1566.2"/>
      <point x="566.4" y="1514.8" type="curve" smooth="yes"/>
      <point x="566.4" y="1368.3999999999999"/>
      <point x="606.8" y="1175.0"/>
      <point x="605.6" y="754.2" type="curve"/>
    </contour>
    <contour>
      <point x="582.4000000000001" y="667.0" type="line"/>
      <point x="581.8000000000001" y="251.39999999999998"/>
      <point x="542.4" y="58.599999999999994"/>
      <point x="542.4" y="-86.0" type="curve" smooth="yes"/>
      <point x="542.4" y="-139.79999999999998"/>
      <point x="574.4" y="-167.2"/>
      <point x="615.8000000000001" y="-167.2" type="curve" smooth="yes"/>
      <point x="659.6000000000001" y="-167.2"/>
      <point x="689.2000000000002" y="-139.0"/>
      <point x="689.2000000000002" y="-87.6" type="curve" smooth="yes"/>
      <point x="689.2000000000002" y="48.199999999999996"/>
      <point x="647.8000000000001" y="248.2"/>
      <point x="648.8" y="667.0" type="curve"/>
    </contour>
  </outline>
</glyph>
<glyph name="ampersand" format="2">
  <advance width="1566.6"/>
  <unicode hex="0026"/>
  <outline>
    <contour>
      <point x="721.8" y="1331.1999999999998" type="curve" smooth="yes"/>
      <point x="632.8083650190114" y="1331.1999999999998"/>
      <point x="587.8" y="1241.4"/>
      <point x="587.8" y="1118.8" type="curve" smooth="yes"/>
      <point x="587.8" y="977.2"/>
      <point x="638.2376264141058" y="860.9306573985593"/>
      <point x="752.8" y="821.6" type="curve" smooth="yes"/>
      <point x="857.0305961380154" y="785.7287829977561"/>
      <point x="922.889451746716" y="743.8032353034694"/>
      <point x="1011.1999999999999" y="635.2" type="curve" smooth="yes"/>
      <point x="1386.6000000000001" y="171.99999999999997" type="line" smooth="yes"/>
      <point x="1415.8000000000002" y="136.40000000000003"/>
      <point x="1446.3999999999999" y="122.80000000000001"/>
      <point x="1480.6000000000001" y="118.6" type="curve" smooth="yes"/>
      <point x="1519.6000000000001" y="114.2"/>
      <point x="1543.0" y="98.99999999999999"/>
      <point x="1543.0" y="61.99999999999999" type="curve" smooth="yes"/>
      <point x="1543.0" y="21.6"/>
      <point x="1516.2" y="1.8"/>
      <point x="1468.2" y="1.8" type="curve" smooth="yes"/>
      <point x="1144.6000000000001" y="1.8" type="line" smooth="yes"/>
      <point x="1087.0" y="1.8"/>
      <point x="1046.1999999999998" y="16.4"/>
      <point x="1010.1999999999999" y="60.39999999999999" type="curve" smooth="yes"/>
      <point x="629.9999999999999" y="522.6" type="line" smooth="yes"/>
      <point x="543.4000000000001" y="627.2"/>
      <point x="494.5999999999999" y="664.8"/>
      <point x="459.0" y="677.4000000000001" type="curve" smooth="yes"/>
      <point x="305.0" y="734.8"/>
      <point x="223.4" y="855.3894080996885"/>
      <point x="223.4" y="1013.4000000000001" type="curve" smooth="yes"/>
      <point x="223.4" y="1244.2"/>
      <point x="409.20000000000005" y="1425.8"/>
      <point x="753.0" y="1425.8" type="curve" smooth="yes"/>
      <point x="1031.335" y="1425.8"/>
      <point x="1215.0" y="1293.8423076923075"/>
      <point x="1215.0" y="1103.6" type="curve" smooth="yes"/>
      <point x="1215.0" y="923.444155844156"/>
      <point x="1079.6343012244397" y="803.4906465838188"/>
      <point x="721.0" y="758.4" type="curve"/>
      <point x="714.2" y="805.3999999999999" type="line"/>
      <point x="813.8148331094412" y="830.4934356462302"/>
      <point x="856.6" y="946.0501510574018"/>
      <point x="856.6" y="1100.6" type="curve" smooth="yes"/>
      <point x="856.6" y="1244.3624161073826"/>
      <point x="802.1177865612649" y="1331.1999999999998"/>
    </contour>
    <contour>
      <point x="569.6000000000001" y="662.4000000000001" type="line"/>
      <point x="490.4097477710879" y="654.8013538570956"/>
      <point x="433.0" y="530.3403239882186"/>
      <point x="433.0" y="418.59999999999997" type="curve" smooth="yes"/>
      <point x="433.0" y="254.00000000000003"/>
      <point x="516.5999999999999" y="141.6"/>
      <point x="654.0" y="141.6" type="curve" smooth="yes"/>
      <point x="751.8000000000001" y="141.6"/>
      <point x="830.4000000000001" y="181.39999999999998"/>
      <point x="889.0" y="273.6" type="curve"/>
      <point x="964.0" y="213.20000000000002" type="line"/>
      <point x="856.2779516982021" y="59.23745946640941"/>
      <point x="723.1995807127884" y="-28.2"/>
      <point x="517.0" y="-28.2" type="curve" smooth="yes"/>
      <point x="225.39999999999998" y="-28.2"/>
      <point x="65.2" y="128.8545454545455"/>
      <point x="65.2" y="316.2" type="curve" smooth="yes"/>
      <point x="65.2" y="510.3988533988533"/>
      <point x="239.58599722206674" y="683.7987365914647"/>
      <point x="560.0" y="703.8" type="curve"/>
    </contour>
    <contour>
      <point x="1121.8" y="377.6" type="line"/>
      <point x="1188.4" y="484.99999999999994" type="line" smooth="yes"/>
      <point x="1246.1999999999998" y="562.6"/>
      <point x="1242.6" y="624.5999999999999"/>
      <point x="1183.1999999999998" y="648.8000000000001" type="curve" smooth="yes"/>
      <point x="1144.6" y="661.8" type="line" smooth="yes"/>
      <point x="1117.4" y="672.4"/>
      <point x="1106.8" y="692.6"/>
      <point x="1106.8" y="711.6" type="curve" smooth="yes"/>
      <point x="1106.8" y="744.2"/>
      <point x="1137.3999999999999" y="771.4000000000001"/>
      <point x="1176.6" y="771.4000000000001" type="curve" smooth="yes"/>
      <point x="1451.9999999999998" y="771.4000000000001" type="line" smooth="yes"/>
      <point x="1500.8000000000002" y="771.4000000000001"/>
      <point x="1525.0" y="753.8"/>
      <point x="1525.0" y="714.8000000000001" type="curve" smooth="yes"/>
      <point x="1525.0" y="686.2"/>
      <point x="1512.8" y="665.2"/>
      <point x="1475.1999999999998" y="643.3999999999999" type="curve" smooth="yes"/>
      <point x="1427.2" y="619.4"/>
      <point x="1388.8" y="584.2"/>
      <point x="1314.0" y="488.8" type="curve" smooth="yes"/>
      <point x="1184.6" y="307.20000000000005" type="line"/>
    </contour>
  </outline>
</glyph>
<glyph name="quotesingle" format="2">
  <advance width="398.59999999999997"/>
  <unicode hex="0027"/>
  <outline>
    <contour>
      <point x="191.0" y="824.0" type="curve" smooth="yes"/>
      <point x="233.80000000000004" y="824.0"/>
      <point x="262.40000000000003" y="847.0"/>
      <point x="273.0" y="898.6" type="curve" smooth="yes"/>
      <point x="351.40000000000003" y="1324.4" type="line" smooth="yes"/>
      <point x="381.71956664765503" y="1475.3904988120994"/>
      <point x="333.066567312469" y="1566.0"/>
      <point x="201.6" y="1566.0" type="curve" smooth="yes"/>
      <point x="70.77272727272727" y="1566.0"/>
      <point x="17.489805561669897" y="1480.2074664318736"/>
      <point x="46.2" y="1323.6" type="curve" smooth="yes"/>
      <point x="116.4" y="900.1999999999999" type="line" smooth="yes"/>
      <point x="125.40000000000002" y="851.0"/>
      <point x="155.20000000000002" y="824.0"/>
    </contour>
  </outline>
</glyph>
<glyph name="parenleft" format="2">
  <advance width="766.4000000000001"/>
  <unicode hex="0028"/>
  <outline>
    <contour>
      <point x="150.0" y="609.6" type="curve" smooth="yes"/>
      <point x="150.0" y="188.0"/>
      <point x="368.4" y="-145.0"/>
      <point x="637.6000000000001" y="-248.2" type="curve" smooth="yes"/>
      <point x="692.6" y="-268.00000000000006"/>
      <point x="721.8000000000001" y="-268.20000000000005"/>
      <point x="736.8000000000001" y="-248.2" type="curve" smooth="yes"/>
      <point x="751.8000000000001" y="-228.39999999999998"/>
      <point x="743.4000000000001" y="-206.00000000000003"/>
      <point x="704.8" y="-158.8" type="curve" smooth="yes"/>
      <point x="554.8" y="11.6"/>
      <point x="444.0" y="290.59999999999997"/>
      <point x="444.0" y="609.6" type="curve" smooth="yes"/>
      <point x="444.0" y="928.5999999999999"/>
      <point x="554.8000000000001" y="1207.6"/>
      <point x="704.8" y="1378.0" type="curve" smooth="yes"/>
      <point x="743.4000000000001" y="1425.2"/>
      <point x="751.8000000000001" y="1447.6"/>
      <point x="736.8000000000001" y="1467.3999999999999" type="curve" smooth="yes"/>
      <point x="721.8000000000001" y="1487.3999999999999"/>
      <point x="692.6" y="1487.2"/>
      <point x="637.6000000000001" y="1467.3999999999999" type="curve" smooth="yes"/>
      <point x="368.40000000000003" y="1364.2"/>
      <point x="150.0" y="1031.1999999999998"/>
    </contour>
  </outline>
</glyph>
<glyph name="asterisk" format="2">
  <advance width="1250.0"/>
  <unicode hex="002A"/>
  <outline>
    <contour>
      <point x="648.4" y="996.2" type="line"/>
      <point x="648.4" y="1197.8"/>
      <point x="794.0000000000001" y="1301.1999999999998"/>
      <point x="794.0000000000001" y="1427.1999999999998" type="curve" smooth="yes"/>
      <point x="794.0000000000001" y="1514.0"/>
      <point x="732.1999999999999" y="1560.1999999999998"/>
      <point x="628.1999999999999" y="1560.1999999999998" type="curve" smooth="yes"/>
      <point x="518.5999999999999" y="1560.1999999999998"/>
      <point x="463.2" y="1514.0"/>
      <point x="463.2" y="1427.1999999999998" type="curve" smooth="yes"/>
      <point x="463.2" y="1301.9999999999998"/>
      <point x="609.2" y="1197.8"/>
      <point x="609.2" y="996.2" type="curve"/>
    </contour>
    <contour>
      <point x="635.0978713763747" y="1013.7944373684396" type="line"/>
      <point x="442.09053944635195" y="1076.4383987164374"/>
      <point x="384.9229312814005" y="1244.3841672580636"/>
      <point x="264.44729484023225" y="1283.357618774813" type="curve" smooth="yes"/>
      <point x="181.37588446424465" y="1309.8950023140626"/>
      <point x="119.18952149537596" y="1267.5301019282838"/>
      <point x="86.81181273137626" y="1170.2433402239944" type="curve" smooth="yes"/>
      <point x="52.83410396737659" y="1068.1565785197056"/>
      <point x="79.31915137449565" y="1001.6542945946774"/>
      <point x="161.59056175048335" y="974.316911055428" type="curve" smooth="yes"/>
      <point x="282.86619819165156" y="936.1434595386787"/>
      <point x="430.01840349135233" y="1041.6299465860761"/>
      <point x="622.2257354213752" y="978.1859852380784" type="curve"/>
    </contour>
    <contour>
      <point x="612.8021286236252" y="1006.6686980596284" type="line"/>
      <point x="492.86934932092254" y="843.2247367116307"/>
      <point x="312.70376644144295" y="843.3964820740949"/>
      <point x="236.80454470751442" y="741.8230305573458" type="curve" smooth="yes"/>
      <point x="187.25646398275563" y="671.4856470180963"/>
      <point x="209.2330814012511" y="599.5184853906773"/>
      <point x="293.6107901652507" y="538.9566597760054" type="curve" smooth="yes"/>
      <point x="382.78849892925035" y="475.99483416133353"/>
      <point x="455.11319707250453" y="480.76505607316386"/>
      <point x="505.46127779726334" y="551.1024396124133" type="curve" smooth="yes"/>
      <point x="580.5604995311918" y="652.6758911291624"/>
      <point x="525.7414852759221" y="820.9224546932909"/>
      <point x="644.0742645786247" y="984.3664160412886" type="curve"/>
    </contour>
    <contour>
      <point x="612.8021286236252" y="984.1313019403716" type="line"/>
      <point x="731.934907926328" y="820.687340592374"/>
      <point x="676.639500468808" y="653.4758911291625"/>
      <point x="751.7387222027365" y="551.1024396124134" type="curve" smooth="yes"/>
      <point x="802.0868029274952" y="480.76505607316386"/>
      <point x="880.0115010707497" y="478.3948341613336"/>
      <point x="963.5892098347492" y="538.9566597760054" type="curve" smooth="yes"/>
      <point x="1052.7669185987488" y="602.7184853906771"/>
      <point x="1070.7435360172444" y="671.4856470180963"/>
      <point x="1020.3954552924856" y="741.8230305573458" type="curve" smooth="yes"/>
      <point x="945.2962335585571" y="843.3964820740949"/>
      <point x="764.0070438813276" y="842.9896226107137"/>
      <point x="644.0742645786247" y="1006.4335839587114" type="curve"/>
    </contour>
    <contour>
      <point x="622.2" y="1013.4" type="curve"/>
      <point x="634.9999999999999" y="977.8" type="line"/>
      <point x="827.4000000000001" y="1041.1999999999998"/>
      <point x="974.4" y="936.1999999999999"/>
      <point x="1095.6000000000001" y="974.4000000000001" type="curve" smooth="yes"/>
      <point x="1177.8" y="1001.5999999999999"/>
      <point x="1202.0000000000002" y="1073.0"/>
      <point x="1170.3999999999999" y="1169.3999999999999" type="curve" smooth="yes"/>
      <point x="1136.4" y="1272.4"/>
      <point x="1075.8000000000002" y="1309.8000000000002"/>
      <point x="992.8000000000001" y="1283.4" type="curve" smooth="yes"/>
      <point x="872.1999999999999" y="1244.3999999999999"/>
      <point x="815.1999999999999" y="1076.0"/>
    </contour>
  </outline>
</glyph>
<glyph name="comma" format="2">
  <advance width="623.8000000000001"/>
  <unicode hex="002C"/>
  <outline>
    <contour>
      <point x="292.4" y="-15.399999999999999" type="curve" smooth="yes"/>
      <point x="342.20000000000005" y="-15.399999999999999" type="line" smooth="yes"/>
      <point x="374.2" y="-15.399999999999999"/>
      <point x="385.2" y="-28.2"/>
      <point x="385.2" y="-52.800000000000004" type="curve" smooth="yes"/>
      <point x="385.2" y="-144.79999999999995"/>
      <point x="320.1326870965984" y="-221.4338828477801"/>
      <point x="158.8" y="-271.19999999999993" type="curve" smooth="yes"/>
      <point x="98.99999999999999" y="-289.6"/>
      <point x="82.6" y="-314.0"/>
      <point x="89.00000000000001" y="-344.00000000000006" type="curve" smooth="yes"/>
      <point x="95.39999999999999" y="-371.4"/>
      <point x="127.20000000000002" y="-383.79999999999995"/>
      <point x="186.39999999999998" y="-371.0" type="curve" smooth="yes"/>
      <point x="401.50752958616937" y="-323.205954710884"/>
      <point x="542.0" y="-174.07552986512525"/>
      <point x="542.0" y="81.19999999999999" type="curve" smooth="yes"/>
      <point x="542.0" y="275.6"/>
      <point x="443.59999999999997" y="367.40000000000003"/>
      <point x="314.20000000000005" y="367.40000000000003" type="curve" smooth="yes"/>
      <point x="196.2" y="367.40000000000003"/>
      <point x="107.6" y="280.4"/>
      <point x="107.6" y="165.0" type="curve" smooth="yes"/>
      <point x="107.6" y="60.4"/>
      <point x="167.0" y="-15.399999999999999"/>
    </contour>
  </outline>
</glyph>
<glyph name="hyphen" format="2">
  <advance width="816.4"/>
  <unicode hex="002D"/>
  <outline>
    <contour>
      <point x="685.4" y="671.0000000000001" type="curve" smooth="yes"/>
      <point x="195.00000000000003" y="671.0000000000001" type="line" smooth="yes"/>
      <point x="150.2" y="671.0000000000001"/>
      <point x="126.39999999999998" y="655.2"/>
      <point x="106.8" y="600.4" type="curve" smooth="yes"/>
      <point x="78.60000000000001" y="523.8000000000001" type="line" smooth="yes"/>
      <point x="57.6" y="466.40000000000003"/>
      <point x="76.2" y="436.20000000000005"/>
      <point x="131.0" y="436.20000000000005" type="curve" smooth="yes"/>
      <point x="621.4" y="436.20000000000005" type="line" smooth="yes"/>
      <point x="666.1999999999999" y="436.20000000000005"/>
      <point x="690.0" y="452.0"/>
      <point x="709.6" y="506.8" type="curve" smooth="yes"/>
      <point x="737.8000000000001" y="583.4" type="line" smooth="yes"/>
      <point x="758.8" y="640.8000000000001"/>
      <point x="740.2" y="671.0000000000001"/>
    </contour>
  </outline>
</glyph>
<glyph name="slash" format="2">
  <advance width="1013.3999999999999"/>
  <unicode hex="002F"/>
  <outline>
    <contour>
      <point x="574.0" y="580.8000000000001" type="curve" smooth="yes"/>
      <point x="671.4" y="788.6"/>
      <point x="906.4" y="1189.8"/>
      <point x="997.2" y="1385.9999999999998" type="curve" smooth="yes"/>
      <point x="1022.0" y="1438.6000000000004"/>
      <point x="997.9999999999999" y="1489.3999999999999"/>
      <point x="933.2" y="1519.6" type="curve" smooth="yes"/>
      <point x="868.6" y="1549.8"/>
      <point x="814.4000000000001" y="1535.2"/>
      <point x="789.4" y="1482.6000000000001" type="curve" smooth="yes"/>
      <point x="698.3999999999999" y="1287.2"/>
      <point x="541.0" y="849.2"/>
      <point x="444.40000000000003" y="640.4" type="curve" smooth="yes"/>
      <point x="347.0" y="432.6"/>
      <point x="112.19999999999999" y="31.599999999999998"/>
      <point x="21.4" y="-164.6" type="curve" smooth="yes"/>
      <point x="-3.4000000000000004" y="-217.19999999999996"/>
      <point x="20.6" y="-268.00000000000006"/>
      <point x="85.4" y="-298.20000000000005" type="curve" smooth="yes"/>
      <point x="150.0" y="-328.40000000000003"/>
      <point x="204.2" y="-313.79999999999995"/>
      <point x="229.20000000000005" y="-261.2" type="curve" smooth="yes"/>
      <point x="320.2" y="-65.80000000000001"/>
      <point x="477.40000000000003" y="372.0"/>
    </contour>
  </outline>
</glyph>
<glyph name="zero" format="2">
  <advance width="1407.3999999999999"/>
  <unicode hex="0030"/>
  <outline>
    <contour>
      <point x="710.0" y="1435.6000000000001" type="curve" smooth="yes"/>
      <point x="320.20000000000005" y="1435.6000000000001"/>
      <point x="68.8" y="1152.4"/>
      <point x="68.8" y="702.9999999999999" type="curve" smooth="yes"/>
      <point x="68.8" y="231.00000000000003"/>
      <point x="296.8" y="-36.0"/>
      <point x="697.4000000000001" y="-36.0" type="curve" smooth="yes"/>
      <point x="1087.3999999999999" y="-36.0"/>
      <point x="1338.6000000000001" y="247.2"/>
      <point x="1338.6000000000001" y="696.6" type="curve" smooth="yes"/>
      <point x="1338.6000000000001" y="1168.6"/>
      <point x="1110.6000000000001" y="1435.6000000000001"/>
    </contour>
    <contour>
      <point x="944.1999999999999" y="654.0" type="curve" smooth="yes"/>
      <point x="944.1999999999999" y="243.39999999999998"/>
      <point x="862.8" y="68.4"/>
      <point x="710.4000000000001" y="68.4" type="curve" smooth="yes"/>
      <point x="547.0" y="68.4"/>
      <point x="463.2" y="255.20000000000002"/>
      <point x="463.2" y="745.5999999999999" type="curve" smooth="yes"/>
      <point x="463.2" y="1156.2"/>
      <point x="544.8000000000001" y="1331.4"/>
      <point x="696.9999999999999" y="1331.4" type="curve" smooth="yes"/>
      <point x="860.6" y="1331.4"/>
      <point x="944.1999999999999" y="1144.4"/>
    </contour>
  </outline>
</glyph>
<glyph name="one" format="2">
  <advance width="983.2"/>
  <unicode hex="0031"/>
  <outline>
    <contour>
      <point x="169.0" y="1192.1999999999998" type="line" smooth="yes"/>
      <point x="116.4" y="1192.1999999999998"/>
      <point x="92.4" y="1218.8"/>
      <point x="92.4" y="1258.8" type="curve" smooth="yes"/>
      <point x="92.4" y="1297.4"/>
      <point x="123.39999999999999" y="1326.0"/>
      <point x="173.6" y="1326.0" type="curve" smooth="yes"/>
      <point x="282.79999999999995" y="1326.0" type="line" smooth="yes"/>
      <point x="395.58571428571435" y="1326.0000000000002"/>
      <point x="461.9858806907943" y="1350.9529356359812"/>
      <point x="554.4" y="1406.2" type="curve" smooth="yes"/>
      <point x="584.5946873272785" y="1425.1825440753437"/>
      <point x="608.6" y="1432.4"/>
      <point x="638.0000000000001" y="1432.4" type="curve" smooth="yes"/>
      <point x="681.3666666666666" y="1432.4"/>
      <point x="707.2" y="1409.6000000000001"/>
      <point x="707.2" y="1362.8" type="curve" smooth="yes"/>
      <point x="707.2" y="223.19999999999996" type="line" smooth="yes"/>
      <point x="707.2" y="173.6"/>
      <point x="726.8" y="148.8"/>
      <point x="766.0" y="140.59999999999997" type="curve" smooth="yes"/>
      <point x="869.2000000000002" y="119.0" type="line" smooth="yes"/>
      <point x="902.6761154937544" y="111.13763307464777"/>
      <point x="920.4" y="89.39999999999999"/>
      <point x="920.4" y="58.4" type="curve" smooth="yes"/>
      <point x="920.4" y="21.800000000000004"/>
      <point x="898.7747126436782" y="0.0"/>
      <point x="852.9999999999999" y="0.0" type="curve" smooth="yes"/>
      <point x="158.0" y="0.0" type="line" smooth="yes"/>
      <point x="106.4" y="0.0"/>
      <point x="81.8" y="22.0"/>
      <point x="81.8" y="58.599999999999994" type="curve" smooth="yes"/>
      <point x="81.8" y="89.6"/>
      <point x="103.00000000000001" y="111.6"/>
      <point x="141.79999999999998" y="119.99999999999999" type="curve" smooth="yes"/>
      <point x="257.40000000000003" y="140.59999999999997" type="line" smooth="yes"/>
      <point x="296.80000000000007" y="148.6"/>
      <point x="319.59999999999997" y="172.79999999999998"/>
      <point x="319.59999999999997" y="223.2" type="curve" smooth="yes"/>
      <point x="319.59999999999997" y="1111.1999999999998" type="line" smooth="yes"/>
      <point x="319.59999999999997" y="1174.4"/>
      <point x="301.4" y="1192.1999999999998"/>
      <point x="255.0" y="1192.1999999999998" type="curve" smooth="yes"/>
    </contour>
  </outline>
</glyph>
<glyph name="two" format="2">
  <advance width="1286.6"/>
  <unicode hex="0032"/>
  <outline>
    <contour>
      <point x="252.0" y="300.2" type="line"/>
      <point x="621.8000000000001" y="488.4" type="line" smooth="yes"/>
      <point x="1002.1612574815057" y="676.2648511071171"/>
      <point x="1155.6" y="828.2669144981413"/>
      <point x="1155.6" y="1032.2" type="curve" smooth="yes"/>
      <point x="1155.6" y="1265.8857923497267"/>
      <point x="991.4" y="1435.6000000000001"/>
      <point x="636.0" y="1435.6000000000001" type="curve" smooth="yes"/>
      <point x="274.19999999999993" y="1435.6000000000001"/>
      <point x="103.8" y="1252.8"/>
      <point x="103.8" y="1054.2" type="curve" smooth="yes"/>
      <point x="103.8" y="930.4727272727272"/>
      <point x="172.8" y="858.8000000000001"/>
      <point x="280.8" y="858.8000000000001" type="curve" smooth="yes"/>
      <point x="394.0" y="858.8000000000001"/>
      <point x="462.8" y="926.2"/>
      <point x="462.8" y="1033.8000000000002" type="curve" smooth="yes"/>
      <point x="462.8" y="1158.2" type="line" smooth="yes"/>
      <point x="462.8" y="1271.6"/>
      <point x="502.3308411214954" y="1346.6000000000001"/>
      <point x="597.4000000000001" y="1346.6000000000001" type="curve" smooth="yes"/>
      <point x="693.5351351351353" y="1346.6000000000001"/>
      <point x="751.0" y="1252.8720720720721"/>
      <point x="751.0" y="1019.2" type="curve" smooth="yes"/>
      <point x="751.0" y="776.8910052910053"/>
      <point x="638.0072566007847" y="622.7208334427673"/>
      <point x="408.4" y="485.0" type="curve" smooth="yes"/>
      <point x="191.4" y="348.40000000000003" type="line"/>
    </contour>
    <contour>
      <point x="73.19999999999999" y="154.0" type="curve" smooth="yes"/>
      <point x="73.19999999999999" y="37.29850746268657"/>
      <point x="140.8" y="-36.0"/>
      <point x="232.39999999999998" y="-36.0" type="curve" smooth="yes"/>
      <point x="345.19999999999993" y="-36.0"/>
      <point x="415.0755261287182" y="16.0816777875762"/>
      <point x="426.4" y="161.39999999999998" type="curve" smooth="yes"/>
      <point x="432.4" y="237.59999999999997"/>
      <point x="456.6000000000001" y="268.40000000000003"/>
      <point x="494.80000000000007" y="268.40000000000003" type="curve" smooth="yes"/>
      <point x="528.1999999999999" y="268.40000000000003"/>
      <point x="549.0" y="252.2"/>
      <point x="584.1999999999999" y="186.4" type="curve" smooth="yes"/>
      <point x="656.2" y="22.2"/>
      <point x="749.9840455840455" y="-36.00000000000001"/>
      <point x="903.6" y="-36.00000000000001" type="curve" smooth="yes"/>
      <point x="1094.8247933884297" y="-36.00000000000001"/>
      <point x="1215.09872544349" y="80.56292094276286"/>
      <point x="1241.1999999999998" y="385.3999999999999" type="curve" smooth="yes"/>
      <point x="1245.8" y="440.79999999999995"/>
      <point x="1228.9999999999998" y="465.2"/>
      <point x="1198.6" y="467.8" type="curve" smooth="yes"/>
      <point x="1172.6" y="469.6"/>
      <point x="1151.3999999999999" y="459.0"/>
      <point x="1133.8" y="428.79999999999995" type="curve" smooth="yes"/>
      <point x="1091.9331584940328" y="348.59536710983605"/>
      <point x="1042.8000000000002" y="313.8"/>
      <point x="950.8" y="313.8" type="curve" smooth="yes"/>
      <point x="755.6" y="313.8"/>
      <point x="602.8515769944341" y="398.79999999999995"/>
      <point x="403.0" y="398.79999999999995" type="curve" smooth="yes"/>
      <point x="189.39999999999998" y="398.79999999999995"/>
      <point x="73.19999999999999" y="300.190405904059"/>
    </contour>
  </outline>
</glyph>
<glyph name="three" format="2">
  <advance width="1184.8"/>
  <unicode hex="0033"/>
  <outline>
    <contour>
      <point x="549.0000000000001" y="729.4" type="line"/>
      <point x="1065.2" y="1234.2" type="line" smooth="yes"/>
      <point x="1126.7611484014672" y="1292.832769290188"/>
      <point x="1140.6" y="1320.8000000000002"/>
      <point x="1140.6" y="1346.2" type="curve" smooth="yes"/>
      <point x="1140.6" y="1383.6"/>
      <point x="1113.2" y="1400.0"/>
      <point x="1045.2" y="1400.0" type="curve" smooth="yes"/>
      <point x="257.6" y="1400.0" type="line" smooth="yes"/>
      <point x="194.0" y="1400.0"/>
      <point x="156.20000000000002" y="1368.2"/>
      <point x="151.6" y="1317.3999999999999" type="curve" smooth="yes"/>
      <point x="117.6" y="976.2" type="line" smooth="yes"/>
      <point x="113.00000000000003" y="929.4"/>
      <point x="142.79999999999998" y="906.8"/>
      <point x="183.8" y="906.6" type="curve" smooth="yes"/>
      <point x="225.6" y="906.5999999999999"/>
      <point x="247.0" y="928.2"/>
      <point x="255.59999999999997" y="962.1999999999999" type="curve" smooth="yes"/>
      <point x="278.20000000000005" y="1052.3999999999999" type="line" smooth="yes"/>
      <point x="288.6367080078757" y="1093.8551816891331"/>
      <point x="315.20000000000005" y="1111.2"/>
      <point x="367.59999999999997" y="1111.2" type="curve" smooth="yes"/>
      <point x="908.2" y="1111.2" type="line"/>
      <point x="897.6000000000001" y="1217.0" type="line"/>
      <point x="447.0" y="794.6" type="line" smooth="yes"/>
      <point x="410.20000000000005" y="761.0"/>
      <point x="399.0" y="740.8000000000001"/>
      <point x="399.0" y="711.8" type="curve" smooth="yes"/>
      <point x="399.0" y="672.4000000000001"/>
      <point x="421.40000000000003" y="651.2"/>
      <point x="470.0" y="651.2" type="curve" smooth="yes"/>
      <point x="539.8" y="651.2" type="line" smooth="yes"/>
      <point x="683.1772727272727" y="651.2"/>
      <point x="760.8" y="562.5999999999999"/>
      <point x="760.8" y="353.2" type="curve" smooth="yes"/>
      <point x="760.8" y="147.99999999999997"/>
      <point x="686.9718060575844" y="58.0"/>
      <point x="574.4" y="57.99999999999999" type="curve" smooth="yes"/>
      <point x="486.4381414196774" y="57.80067565712349"/>
      <point x="437.0" y="121.99999999999999"/>
      <point x="437.0" y="209.60000000000002" type="curve" smooth="yes"/>
      <point x="437.0" y="309.79999999999995" type="line" smooth="yes"/>
      <point x="437.0" y="411.2"/>
      <point x="380.3318181818182" y="476.59999999999997"/>
      <point x="266.4" y="476.59999999999997" type="curve" smooth="yes"/>
      <point x="159.70877192982456" y="476.59999999999997"/>
      <point x="79.0" y="398.0"/>
      <point x="79.0" y="284.00000000000006" type="curve" smooth="yes"/>
      <point x="79.0" y="99.4"/>
      <point x="244.69637305699484" y="-36.0"/>
      <point x="574.6" y="-36.0" type="curve" smooth="yes"/>
      <point x="915.3186046511628" y="-36.0"/>
      <point x="1127.2" y="139.3419068736142"/>
      <point x="1127.2" y="408.2" type="curve" smooth="yes"/>
      <point x="1127.2" y="637.9647812992972"/>
      <point x="940.5304347826087" y="775.8"/>
      <point x="651.7999999999998" y="775.8" type="curve" smooth="yes"/>
      <point x="600.1999999999999" y="775.8"/>
      <point x="554.0" y="770.2"/>
      <point x="519.0000000000001" y="760.5999999999999" type="curve"/>
    </contour>
  </outline>
</glyph>
<glyph name="four" format="2">
  <advance width="1328.8"/>
  <unicode hex="0034"/>
  <outline>
    <contour>
      <point x="655.8000000000001" y="649.7999999999998" type="curve" smooth="yes"/>
      <point x="655.8000000000001" y="206.99999999999997" type="line" smooth="yes"/>
      <point x="655.8000000000001" y="166.79999999999998"/>
      <point x="638.4" y="148.60000000000002"/>
      <point x="603.9999999999999" y="140.2" type="curve" smooth="yes"/>
      <point x="514.3999999999999" y="118.4" type="line" smooth="yes"/>
      <point x="478.40000000000003" y="109.0"/>
      <point x="456.8" y="88.79999999999998"/>
      <point x="456.8" y="57.79999999999999" type="curve" smooth="yes"/>
      <point x="456.8" y="21.200000000000003"/>
      <point x="480.40000000000003" y="0.0"/>
      <point x="531.1999999999999" y="0.0" type="curve" smooth="yes"/>
      <point x="1139.0" y="0.0" type="line" smooth="yes"/>
      <point x="1189.2" y="0.0"/>
      <point x="1212.8" y="22.0"/>
      <point x="1212.8" y="58.59999999999999" type="curve" smooth="yes"/>
      <point x="1212.8" y="88.79999999999998"/>
      <point x="1192.0" y="106.20000000000002"/>
      <point x="1154.4" y="118.4" type="curve" smooth="yes"/>
      <point x="1080.8000000000002" y="139.99999999999997" type="line" smooth="yes"/>
      <point x="1046.9999999999998" y="149.80000000000004"/>
      <point x="1027.4" y="167.6"/>
      <point x="1027.4" y="208.6" type="curve" smooth="yes"/>
      <point x="1025.8" y="918.5999999999999" type="line" smooth="yes"/>
      <point x="1025.8" y="952.8000000000001"/>
      <point x="1008.8" y="967.6"/>
      <point x="983.2000000000002" y="967.6" type="curve" smooth="yes"/>
      <point x="963.4" y="967.6"/>
      <point x="946.2" y="962.0"/>
      <point x="915.6" y="933.4" type="curve" smooth="yes"/>
      <point x="688.8000000000001" y="727.8000000000001" type="line" smooth="yes"/>
      <point x="667.0" y="706.8"/>
      <point x="655.8000000000001" y="683.6000000000001"/>
    </contour>
    <contour>
      <point x="444.6" y="874.0" type="curve" smooth="yes"/>
      <point x="86.19999999999999" y="508.6" type="line" smooth="yes"/>
      <point x="46.52863409498845" y="471.1509333920235"/>
      <point x="32.800000000000004" y="446.65"/>
      <point x="32.800000000000004" y="422.8" type="curve" smooth="yes"/>
      <point x="32.800000000000004" y="382.32000000000005"/>
      <point x="60.99999999999999" y="354.8"/>
      <point x="110.2" y="354.8" type="curve" smooth="yes"/>
      <point x="1169.0" y="354.8" type="line" smooth="yes"/>
      <point x="1219.3999999999999" y="354.8"/>
      <point x="1242.0" y="374.79999999999995"/>
      <point x="1242.0" y="415.0" type="curve" smooth="yes"/>
      <point x="1242.0" y="451.98947368421057"/>
      <point x="1213.4" y="468.4"/>
      <point x="1170.8000000000002" y="468.4" type="curve" smooth="yes"/>
      <point x="138.6" y="468.4" type="line"/>
      <point x="160.4" y="414.20000000000005" type="line"/>
      <point x="736.6" y="974.0" type="line" smooth="yes"/>
      <point x="895.2" y="1121.3999999999999"/>
      <point x="921.5999999999999" y="1200.0000000000002"/>
      <point x="921.5999999999999" y="1275.0" type="curve" smooth="yes"/>
      <point x="921.5999999999999" y="1395.2000000000003"/>
      <point x="835.4" y="1463.0"/>
      <point x="705.4000000000001" y="1463.0" type="curve" smooth="yes"/>
      <point x="543.0" y="1463.0"/>
      <point x="462.59999999999997" y="1382.8"/>
      <point x="462.59999999999997" y="1272.8000000000002" type="curve" smooth="yes"/>
      <point x="462.59999999999997" y="1163.596992481203"/>
      <point x="535.2" y="1111.0"/>
      <point x="535.2" y="1026.3999999999999" type="curve" smooth="yes"/>
      <point x="535.2" y="976.0"/>
      <point x="506.00000000000006" y="931.4000000000001"/>
    </contour>
  </outline>
</glyph>
<glyph name="five" format="2">
  <advance width="1222.4"/>
  <unicode hex="0035"/>
  <outline>
    <contour>
      <point x="92.80000000000001" y="281.0" type="curve" smooth="yes"/>
      <point x="92.80000000000001" y="101.2"/>
      <point x="257.2" y="-36.0"/>
      <point x="575.0" y="-36.0" type="curve" smooth="yes"/>
      <point x="914.2781176470588" y="-36.0"/>
      <point x="1140.0" y="131.2"/>
      <point x="1140.0" y="423.00000000000006" type="curve" smooth="yes"/>
      <point x="1140.0" y="679.6"/>
      <point x="943.6" y="846.6"/>
      <point x="646.8" y="846.6" type="curve" smooth="yes"/>
      <point x="472.7543147208122" y="846.6"/>
      <point x="365.0129947940154" y="796.4292416211416"/>
      <point x="255.59999999999997" y="685.1999999999999" type="curve"/>
      <point x="306.59999999999997" y="673.0" type="line"/>
      <point x="306.59999999999997" y="1222.6000000000001" type="line"/>
      <point x="224.4" y="1123.6" type="line"/>
      <point x="339.0181444927354" y="1064.8806489640913"/>
      <point x="516.4" y="1026.4"/>
      <point x="682.5999999999999" y="1026.4" type="curve" smooth="yes"/>
      <point x="954.7409836065573" y="1026.4"/>
      <point x="1102.6000000000001" y="1125.2"/>
      <point x="1140.4" y="1377.8000000000002" type="curve" smooth="yes"/>
      <point x="1146.6000000000001" y="1418.8"/>
      <point x="1134.0" y="1436.8"/>
      <point x="1116.6" y="1442.9999999999998" type="curve" smooth="yes"/>
      <point x="1098.0" y="1450.0"/>
      <point x="1074.1999999999998" y="1447.8"/>
      <point x="1033.0" y="1416.0" type="curve" smooth="yes"/>
      <point x="984.3999999999999" y="1368.3999999999999"/>
      <point x="903.4000000000001" y="1339.3999999999999"/>
      <point x="755.8" y="1339.3999999999999" type="curve" smooth="yes"/>
      <point x="619.6" y="1339.3999999999999"/>
      <point x="487.8" y="1364.0000000000002"/>
      <point x="391.59999999999997" y="1397.4" type="curve" smooth="yes"/>
      <point x="335.59999999999997" y="1418.4000000000003"/>
      <point x="305.99999999999994" y="1424.0"/>
      <point x="276.8" y="1424.0" type="curve" smooth="yes"/>
      <point x="205.56283185840707" y="1424.0"/>
      <point x="174.4" y="1388.6000000000001"/>
      <point x="174.4" y="1331.4" type="curve" smooth="yes"/>
      <point x="174.4" y="640.1999999999999" type="line" smooth="yes"/>
      <point x="174.4" y="598.0"/>
      <point x="204.0" y="578.8"/>
      <point x="240.00000000000003" y="578.8" type="curve" smooth="yes"/>
      <point x="270.2886597938145" y="578.8"/>
      <point x="294.0" y="589.6"/>
      <point x="329.0" y="619.0" type="curve" smooth="yes"/>
      <point x="397.7030776295807" y="687.3772935228789"/>
      <point x="461.40000000000003" y="721.6"/>
      <point x="536.4" y="721.6" type="curve" smooth="yes"/>
      <point x="677.8000000000001" y="721.6"/>
      <point x="772.8000000000001" y="615.5292875989446"/>
      <point x="772.8000000000001" y="376.0" type="curve" smooth="yes"/>
      <point x="772.8000000000001" y="152.00000000000003"/>
      <point x="696.6870870870872" y="51.60000000000001"/>
      <point x="592.8" y="51.60000000000001" type="curve" smooth="yes"/>
      <point x="499.592" y="51.60000000000001"/>
      <point x="450.79999999999995" y="110.0"/>
      <point x="450.79999999999995" y="184.0" type="curve" smooth="yes"/>
      <point x="450.79999999999995" y="309.2" type="line" smooth="yes"/>
      <point x="450.79999999999995" y="408.0"/>
      <point x="393.59999999999997" y="476.80000000000007"/>
      <point x="281.8" y="476.80000000000007" type="curve" smooth="yes"/>
      <point x="173.79999999999998" y="476.80000000000007"/>
      <point x="92.80000000000001" y="395.4"/>
    </contour>
  </outline>
</glyph>
<glyph name="six" format="2">
  <advance width="1294.0"/>
  <unicode hex="0036"/>
  <outline>
    <contour>
      <point x="739.0" y="1435.6000000000001" type="curve" smooth="yes"/>
      <point x="323.990328820116" y="1435.6000000000001"/>
      <point x="67.5999999972975" y="1151.4000014404292"/>
      <point x="67.8" y="653.6000000000001" type="curve" smooth="yes"/>
      <point x="68.00000000434208" y="230.5999980938221"/>
      <point x="285.2" y="-36.0"/>
      <point x="670.4" y="-36.0" type="curve" smooth="yes"/>
      <point x="1012.6" y="-36.0"/>
      <point x="1229.8" y="156.2"/>
      <point x="1229.8" y="438.8" type="curve" smooth="yes"/>
      <point x="1229.8" y="702.6"/>
      <point x="1058.4649411764703" y="850.8"/>
      <point x="787.1999999999999" y="850.8" type="curve" smooth="yes"/>
      <point x="549.0000000000001" y="850.8"/>
      <point x="362.0" y="705.0"/>
      <point x="350.79999999999995" y="540.0" type="curve"/>
      <point x="415.80000000000007" y="509.2" type="line"/>
      <point x="432.59999999999997" y="627.6182741116751"/>
      <point x="532.2" y="710.6"/>
      <point x="642.8000000000001" y="710.6" type="curve" smooth="yes"/>
      <point x="771.3387283236993" y="710.6"/>
      <point x="860.2" y="602.2869565217392"/>
      <point x="860.2" y="394.6" type="curve" smooth="yes"/>
      <point x="860.2" y="170.47109974424555"/>
      <point x="785.4000000000001" y="65.8"/>
      <point x="666.4" y="65.8" type="curve" smooth="yes"/>
      <point x="546.6" y="65.8"/>
      <point x="451.60030770226433" y="192.2553799357742"/>
      <point x="451.4" y="636.0" type="curve" smooth="yes"/>
      <point x="451.19999999116004" y="1153.4000045525775"/>
      <point x="559.4895104895104" y="1332.1999999999998"/>
      <point x="696.6" y="1332.1999999999998" type="curve" smooth="yes"/>
      <point x="777.650643776824" y="1332.1999999999998"/>
      <point x="816.8" y="1288.41875"/>
      <point x="816.8" y="1207.8" type="curve" smooth="yes"/>
      <point x="816.8" y="1119.6" type="line" smooth="yes"/>
      <point x="816.8" y="1008.818905472637"/>
      <point x="883.2" y="946.4"/>
      <point x="1000.0000000000001" y="946.4" type="curve" smooth="yes"/>
      <point x="1115.7142857142856" y="946.4"/>
      <point x="1189.2" y="1013.8"/>
      <point x="1189.2" y="1132.2" type="curve" smooth="yes"/>
      <point x="1189.2" y="1292.2711610486892"/>
      <point x="1027.3069486404834" y="1435.6000000000001"/>
    </contour>
  </outline>
</glyph>
<glyph name="seven" format="2">
  <advance width="1101.2"/>
  <unicode hex="0037"/>
  <outline>
    <contour>
      <point x="831.0" y="1109.8000000000002" type="line"/>
      <point x="556.5999999999999" y="776.5999999999999" type="line" smooth="yes"/>
      <point x="324.6" y="512.4000000000001"/>
      <point x="256.4" y="378.99999999999994"/>
      <point x="256.4" y="228.0" type="curve" smooth="yes"/>
      <point x="256.4" y="56.599999999999994"/>
      <point x="360.6" y="-36.0"/>
      <point x="516.2" y="-36.0" type="curve" smooth="yes"/>
      <point x="674.8000000000001" y="-36.0"/>
      <point x="756.0" y="61.40000000000001"/>
      <point x="756.0" y="175.20000000000002" type="curve" smooth="yes"/>
      <point x="756.0" y="343.4"/>
      <point x="614.6" y="381.0"/>
      <point x="614.6" y="518.4" type="curve" smooth="yes"/>
      <point x="614.6" y="601.0"/>
      <point x="642.6000000000001" y="673.6"/>
      <point x="837.8" y="913.2" type="curve" smooth="yes"/>
      <point x="1056.8" y="1203.2" type="line" smooth="yes"/>
      <point x="1108.0" y="1264.6"/>
      <point x="1122.8" y="1292.0"/>
      <point x="1122.8" y="1321.3999999999999" type="curve" smooth="yes"/>
      <point x="1122.8" y="1368.2"/>
      <point x="1087.2" y="1400.0"/>
      <point x="1021.5999999999999" y="1400.0" type="curve" smooth="yes"/>
      <point x="186.39999999999998" y="1400.0" type="line" smooth="yes"/>
      <point x="129.99999999999997" y="1400.0"/>
      <point x="97.00000000000003" y="1367.4"/>
      <point x="93.99999999999999" y="1318.1999999999998" type="curve" smooth="yes"/>
      <point x="66.2" y="921.0" type="line" smooth="yes"/>
      <point x="63.2" y="875.0"/>
      <point x="87.40000000000002" y="850.8"/>
      <point x="133.20000000000002" y="850.5999999999999" type="curve" smooth="yes"/>
      <point x="173.4" y="850.6"/>
      <point x="197.00000000000003" y="872.1999999999999"/>
      <point x="205.8" y="907.0" type="curve" smooth="yes"/>
      <point x="233.39999999999998" y="1017.2000000000002" type="line" smooth="yes"/>
      <point x="244.59999999999997" y="1061.4"/>
      <point x="264.0" y="1076.8000000000002"/>
      <point x="317.2" y="1076.8000000000002" type="curve" smooth="yes"/>
      <point x="896.8" y="1076.8000000000002" type="line"/>
    </contour>
  </outline>
</glyph>
<glyph name="eight" format="2">
  <advance width="1311.8"/>
  <unicode hex="0038"/>
  <outline>
    <contour>
      <point x="618.5999999999999" y="-35.199999999999996" type="curve" smooth="yes"/>
      <point x="1011.8000000000001" y="-35.199999999999996"/>
      <point x="1233.8" y="131.92335329341313"/>
      <point x="1233.8" y="365.8" type="curve" smooth="yes"/>
      <point x="1233.8" y="533.9123459660545"/>
      <point x="1100.8305545948535" y="667.5898151350488"/>
      <point x="811.8000000000001" y="754.6" type="curve" smooth="yes"/>
      <point x="547.8305750573679" y="834.3897724279932"/>
      <point x="467.19999999999993" y="945.166219839142"/>
      <point x="467.19999999999993" y="1124.0" type="curve" smooth="yes"/>
      <point x="467.19999999999993" y="1253.0"/>
      <point x="533.4000000000001" y="1345.2"/>
      <point x="653.4" y="1345.2" type="curve" smooth="yes"/>
      <point x="791.2828985507246" y="1345.2"/>
      <point x="865.4000000000001" y="1239.6"/>
      <point x="865.4000000000001" y="1049.6" type="curve" smooth="yes"/>
      <point x="865.4000000000001" y="906.0336448598132"/>
      <point x="803.8043167739542" y="786.638629735359"/>
      <point x="717.6" y="717.8" type="curve"/>
      <point x="746.8" y="692.0" type="line"/>
      <point x="1090.689563270052" y="714.9645166308445"/>
      <point x="1230.8" y="874.752676056338"/>
      <point x="1230.8" y="1050.6" type="curve" smooth="yes"/>
      <point x="1230.8" y="1273.4"/>
      <point x="1031.0692493946733" y="1435.8"/>
      <point x="702.8" y="1435.8" type="curve" smooth="yes"/>
      <point x="294.8" y="1435.8"/>
      <point x="98.8" y="1221.1999999999998"/>
      <point x="98.8" y="985.0000000000001" type="curve" smooth="yes"/>
      <point x="98.8" y="803.2200076323394"/>
      <point x="224.12779407914175" y="654.2244850527479"/>
      <point x="534.0" y="569.0" type="curve" smooth="yes"/>
      <point x="774.3179195037267" y="502.42746302318915"/>
      <point x="842.8000000000001" y="398.76708855138116"/>
      <point x="842.8000000000001" y="261.20000000000005" type="curve" smooth="yes"/>
      <point x="842.8000000000001" y="130.92661870503596"/>
      <point x="782.0" y="50.60000000000001"/>
      <point x="665.1999999999999" y="50.60000000000001" type="curve" smooth="yes"/>
      <point x="535.4" y="50.60000000000001"/>
      <point x="468.8" y="158.7308219178082"/>
      <point x="468.8" y="338.4" type="curve" smooth="yes"/>
      <point x="468.8" y="434.6"/>
      <point x="492.3536856252133" y="546.9125112876441"/>
      <point x="560.4" y="599.1999999999999" type="curve"/>
      <point x="556.2" y="623.1999999999999" type="line"/>
      <point x="234.01414855076578" y="596.2998122599014"/>
      <point x="94.39999999999999" y="468.8777408637873"/>
      <point x="94.39999999999999" y="311.20000000000005" type="curve"/>
      <point x="94.39999999999999" y="111.12123076923078"/>
      <point x="251.0" y="-35.199999999999996"/>
    </contour>
  </outline>
</glyph>
<glyph name="nine" format="2">
  <advance width="1297.0"/>
  <unicode hex="0039"/>
  <outline>
    <contour>
      <point x="560.3999999999999" y="-35.800000000000004" type="curve" smooth="yes"/>
      <point x="974.2435114503817" y="-35.800000000000004"/>
      <point x="1229.8026109439102" y="249.0083668959224"/>
      <point x="1229.6000000000001" y="748.1999999999999" type="curve" smooth="yes"/>
      <point x="1229.402976184534" y="1169.8934549896785"/>
      <point x="1012.5804573804573" y="1435.8"/>
      <point x="628.0" y="1435.8" type="curve" smooth="yes"/>
      <point x="285.20767386091126" y="1435.8"/>
      <point x="67.6" y="1245.9937219730941"/>
      <point x="67.6" y="967.8000000000001" type="curve" smooth="yes"/>
      <point x="67.6" y="709.980612244898"/>
      <point x="238.6" y="565.8000000000001"/>
      <point x="510.20000000000005" y="565.8000000000001" type="curve" smooth="yes"/>
      <point x="748.4000000000001" y="565.8000000000001"/>
      <point x="935.4" y="711.6"/>
      <point x="946.6" y="876.6" type="curve"/>
      <point x="881.6" y="894.6" type="line"/>
      <point x="866.4500948678088" y="783.5861389320969"/>
      <point x="765.2" y="706.0"/>
      <point x="654.6" y="706.0" type="curve" smooth="yes"/>
      <point x="526.1999999999999" y="706.0"/>
      <point x="437.20000000000005" y="811.2978021978022"/>
      <point x="437.20000000000005" y="1012.0" type="curve" smooth="yes"/>
      <point x="437.20000000000005" y="1231.7091836734694"/>
      <point x="512.4000000000001" y="1334.0"/>
      <point x="632.0" y="1334.0" type="curve" smooth="yes"/>
      <point x="751.2127764127764" y="1334.0"/>
      <point x="845.8030721926175" y="1208.1529972771602"/>
      <point x="846.0" y="765.8" type="curve" smooth="yes"/>
      <point x="846.202836851979" y="246.93902123082583"/>
      <point x="739.563133640553" y="67.6"/>
      <point x="602.8000000000001" y="67.6" type="curve" smooth="yes"/>
      <point x="519.0276150627615" y="67.6"/>
      <point x="478.59999999999997" y="111.4"/>
      <point x="478.59999999999997" y="192.0" type="curve" smooth="yes"/>
      <point x="478.59999999999997" y="280.2" type="line" smooth="yes"/>
      <point x="478.59999999999997" y="391.2"/>
      <point x="412.2" y="453.4"/>
      <point x="295.40000000000003" y="453.4" type="curve" smooth="yes"/>
      <point x="180.0" y="453.4"/>
      <point x="106.2" y="385.99999999999994"/>
      <point x="106.2" y="267.6" type="curve" smooth="yes"/>
      <point x="106.2" y="107.6"/>
      <point x="269.5655786350149" y="-35.800000000000004"/>
    </contour>
  </outline>
</glyph>
<glyph name="less" format="2">
  <advance width="1051.0"/>
  <unicode hex="003C"/>
  <outline>
    <contour>
      <point x="274.6" y="697.4" type="line"/>
      <point x="872.8" y="351.0" type="line" smooth="yes"/>
      <point x="919.1999999999999" y="327.8"/>
      <point x="938.8" y="293.4"/>
      <point x="938.8" y="267.59999999999997" type="curve" smooth="yes"/>
      <point x="939.6" y="229.59999999999997"/>
      <point x="919.1999999999999" y="202.79999999999998"/>
      <point x="872.1999999999999" y="202.79999999999998" type="curve" smooth="yes"/>
      <point x="832.8" y="202.79999999999998"/>
      <point x="798.2" y="221.40000000000003"/>
      <point x="741.2" y="249.20000000000002" type="curve" smooth="yes"/>
      <point x="171.6" y="575.4" type="line" smooth="yes"/>
      <point x="119.0" y="601.0000000000001"/>
      <point x="92.60000000000001" y="637.6"/>
      <point x="92.60000000000001" y="684.0" type="curve" smooth="yes"/>
      <point x="92.60000000000001" y="729.6000000000001"/>
      <point x="119.0" y="766.2"/>
      <point x="171.6" y="791.8" type="curve" smooth="yes"/>
      <point x="737.4000000000001" y="1116.8000000000002" type="line" smooth="yes"/>
      <point x="795.4" y="1145.6000000000001"/>
      <point x="829.8" y="1163.3999999999999"/>
      <point x="868.4" y="1163.3999999999999" type="curve" smooth="yes"/>
      <point x="916.2" y="1163.3999999999999"/>
      <point x="936.8" y="1136.3999999999999"/>
      <point x="936.0000000000001" y="1099.2" type="curve" smooth="yes"/>
      <point x="936.0000000000001" y="1072.6000000000001"/>
      <point x="916.1999999999999" y="1040.2000000000003"/>
      <point x="868.8" y="1016.0" type="curve" smooth="yes"/>
      <point x="274.6" y="670.8000000000001" type="line"/>
    </contour>
  </outline>
</glyph>
<glyph name="question" format="2">
  <advance width="1139.6000000000001"/>
  <unicode hex="003F"/>
  <outline>
    <contour>
      <point x="415.8" y="668.6" type="line" smooth="yes"/>
      <point x="400.4" y="734.4000000000001"/>
      <point x="421.9547264289652" y="776.080088476383"/>
      <point x="495.2" y="807.0" type="curve" smooth="yes"/>
      <point x="561.8" y="835.4000000000001" type="line" smooth="yes"/>
      <point x="660.6" y="878.8"/>
      <point x="687.0" y="974.1251214655516"/>
      <point x="687.0" y="1145.4" type="curve" smooth="yes"/>
      <point x="687.0" y="1286.5171717171718"/>
      <point x="640.8" y="1361.6000000000001"/>
      <point x="554.0" y="1361.6000000000001" type="curve" smooth="yes"/>
      <point x="474.8" y="1361.6000000000001"/>
      <point x="427.2" y="1310.8000000000002"/>
      <point x="427.2" y="1225.6000000000001" type="curve" smooth="yes"/>
      <point x="427.2" y="1139.2" type="line" smooth="yes"/>
      <point x="427.2" y="1003.8"/>
      <point x="357.9659388646288" y="926.4"/>
      <point x="234.0" y="926.4000000000001" type="curve" smooth="yes"/>
      <point x="126.8037558685446" y="926.4"/>
      <point x="56.0" y="993.5908256880733"/>
      <point x="56.0" y="1109.8000000000002" type="curve" smooth="yes"/>
      <point x="56.0" y="1304.2000000000003"/>
      <point x="270.6000000000001" y="1468.6000000000001"/>
      <point x="566.4" y="1468.6000000000001" type="curve" smooth="yes"/>
      <point x="913.2" y="1468.6000000000001"/>
      <point x="1079.8000000000002" y="1336.8015113350123"/>
      <point x="1079.8000000000002" y="1098.8" type="curve" smooth="yes"/>
      <point x="1079.8000000000002" y="913.787260037666"/>
      <point x="981.5140762042896" y="796.5223554483435"/>
      <point x="742.1999999999999" y="743.6" type="curve" smooth="yes"/>
      <point x="673.4" y="728.2" type="line" smooth="yes"/>
      <point x="630.4" y="718.9999999999999"/>
      <point x="617.2" y="701.4000000000001"/>
      <point x="605.0" y="656.6" type="curve" smooth="yes"/>
      <point x="586.6" y="551.2" type="line" smooth="yes"/>
      <point x="570.6" y="500.59999999999997"/>
      <point x="551.2" y="485.2"/>
      <point x="512.6" y="485.2" type="curve" smooth="yes"/>
      <point x="469.2" y="485.2"/>
      <point x="446.79999999999995" y="503.79999999999995"/>
      <point x="435.6" y="548.1999999999999" type="curve" smooth="yes"/>
    </contour>
    <component base="period" xOffset="206.60000000000002"/>
  </outline>
</glyph>
<glyph name="at" format="2">
  <advance width="1916.2"/>
  <unicode hex="0040"/>
  <outline>
    <contour>
      <point x="1093.0" y="494.79999999999995" type="curve"/>
      <point x="1118.6" y="557.8" type="line"/>
      <point x="1068.8" y="581.0"/>
      <point x="1029.0" y="590.1999999999999"/>
      <point x="951.8" y="590.1999999999999" type="curve" smooth="yes"/>
      <point x="671.0" y="590.1999999999999"/>
      <point x="519.8" y="482.73333333333335"/>
      <point x="519.8" y="326.2" type="curve" smooth="yes"/>
      <point x="519.8" y="191.60000000000002"/>
      <point x="636.0" y="102.6"/>
      <point x="811.2000000000002" y="102.6" type="curve" smooth="yes"/>
      <point x="938.4000000000001" y="102.6"/>
      <point x="1062.4" y="157.60000000000002"/>
      <point x="1122.0" y="253.99999999999997" type="curve"/>
      <point x="1097.6" y="313.2" type="line"/>
      <point x="1072.7278564275045" y="271.20166576789"/>
      <point x="1024.8" y="248.99999999999997"/>
      <point x="971.0" y="248.99999999999997" type="curve" smooth="yes"/>
      <point x="904.6" y="248.99999999999997"/>
      <point x="856.4000000000001" y="297.2721893491124"/>
      <point x="856.4000000000001" y="383.8" type="curve" smooth="yes"/>
      <point x="856.4000000000001" y="468.6"/>
      <point x="912.2" y="518.1999999999999"/>
      <point x="985.2" y="518.1999999999999" type="curve" smooth="yes"/>
      <point x="1029.6" y="518.1999999999999"/>
      <point x="1057.2332750630737" y="508.9885772171539"/>
    </contour>
    <contour>
      <point x="1459.0" y="239.00000000000003" type="curve" smooth="yes"/>
      <point x="1409.8" y="239.00000000000003"/>
      <point x="1389.0" y="267.6"/>
      <point x="1389.0" y="317.79999999999995" type="curve" smooth="yes"/>
      <point x="1389.0" y="771.6" type="line" smooth="yes"/>
      <point x="1389.0" y="956.6000000000001"/>
      <point x="1233.332824427481" y="1042.4"/>
      <point x="1008.9999999999998" y="1042.4" type="curve" smooth="yes"/>
      <point x="714.3892617449665" y="1042.4"/>
      <point x="557.2" y="932.9688073394495"/>
      <point x="557.2" y="784.6" type="curve" smooth="yes"/>
      <point x="557.2" y="696.8"/>
      <point x="626.6" y="658.8"/>
      <point x="705.2" y="658.8" type="curve" smooth="yes"/>
      <point x="800.2" y="658.8"/>
      <point x="878.8" y="713.0"/>
      <point x="878.8" y="805.6" type="curve" smooth="yes"/>
      <point x="878.8" y="869.0" type="line" smooth="yes"/>
      <point x="878.8" y="916.7106382978724"/>
      <point x="912.4" y="951.4000000000001"/>
      <point x="968.9999999999999" y="951.4000000000001" type="curve" smooth="yes"/>
      <point x="1031.3999999999999" y="951.4000000000001"/>
      <point x="1063.7999999999997" y="904.3828571428571"/>
      <point x="1063.7999999999997" y="836.4" type="curve" smooth="yes"/>
      <point x="1063.7999999999997" y="264.6" type="line"/>
      <point x="1090.2" y="258.6" type="line"/>
      <point x="1098.7999910337699" y="161.4003048518239"/>
      <point x="1210.0" y="103.39999999999999"/>
      <point x="1377.6000000000001" y="102.6" type="curve" smooth="yes"/>
      <point x="1656.4908508174778" y="101.78268418089293"/>
      <point x="1818.6" y="319.6"/>
      <point x="1818.6" y="634.5999999999999" type="curve" smooth="yes"/>
      <point x="1818.6" y="1130.0000000000002"/>
      <point x="1450.4000000000003" y="1416.6"/>
      <point x="984.0" y="1416.6" type="curve" smooth="yes"/>
      <point x="455.40000000000003" y="1416.6"/>
      <point x="92.4" y="1038.7999999999997"/>
      <point x="92.4" y="554.8" type="curve" smooth="yes"/>
      <point x="92.4" y="13.4"/>
      <point x="471.0" y="-319.8"/>
      <point x="979.8000000000001" y="-319.8" type="curve" smooth="yes"/>
      <point x="1318.6" y="-319.8"/>
      <point x="1577.0" y="-182.60000000000002"/>
      <point x="1716.6000000000001" y="-22.999999999999996" type="curve" smooth="yes"/>
      <point x="1757.4" y="21.799999999999997"/>
      <point x="1761.6" y="53.00000000000001"/>
      <point x="1741.4" y="70.39999999999999" type="curve" smooth="yes"/>
      <point x="1718.8" y="89.4"/>
      <point x="1689.2" y="82.8"/>
      <point x="1650.8000000000002" y="47.0" type="curve" smooth="yes"/>
      <point x="1452.0" y="-143.8"/>
      <point x="1231.2000000000003" y="-217.8"/>
      <point x="981.0000000000001" y="-217.8" type="curve" smooth="yes"/>
      <point x="532.8474999999999" y="-217.8"/>
      <point x="218.79999999999998" y="90.80000000000001"/>
      <point x="218.79999999999998" y="554.8" type="curve" smooth="yes"/>
      <point x="218.79999999999998" y="1000.2"/>
      <point x="522.1999999999999" y="1314.4"/>
      <point x="975.7999999999998" y="1314.4" type="curve" smooth="yes"/>
      <point x="1379.8" y="1314.4"/>
      <point x="1693.8" y="1055.8"/>
      <point x="1693.8" y="632.8" type="curve" smooth="yes"/>
      <point x="1693.8" y="380.6"/>
      <point x="1581.774326715845" y="239.00000000000003"/>
    </contour>
  </outline>
</glyph>
<glyph name="A" format="2">
  <advance width="1527.4"/>
  <unicode hex="0041"/>
  <anchor x="775.0" y="1461.6000000000001" name="center"/>
  <outline>
    <contour>
      <point x="353.79999999999995" y="583.0" type="line"/>
      <point x="349.2" y="455.0000000000001" type="line"/>
      <point x="945.2" y="455.0000000000001" type="line"/>
      <point x="942.4000000000001" y="583.0" type="line"/>
    </contour>
    <contour>
      <point x="493.40000000000003" y="57.6" type="curve" smooth="yes"/>
      <point x="493.40000000000003" y="85.99999999999999"/>
      <point x="476.0" y="100.6"/>
      <point x="446.40000000000003" y="113.99999999999999" type="curve" smooth="yes"/>
      <point x="405.4" y="127.4" type="line" smooth="yes"/>
      <point x="328.0" y="163.0"/>
      <point x="318.2" y="194.8"/>
      <point x="347.6" y="287.40000000000003" type="curve" smooth="yes"/>
      <point x="662.6000000000001" y="1276.2" type="line" smooth="yes"/>
      <point x="624.8000000000001" y="1252.3999999999999" type="line"/>
      <point x="948.2" y="220.60000000000002" type="line" smooth="yes"/>
      <point x="965.6" y="163.4"/>
      <point x="974.8000000000001" y="142.60000000000002"/>
      <point x="940.6" y="129.20000000000002" type="curve" smooth="yes"/>
      <point x="895.8" y="115.6" type="line" smooth="yes"/>
      <point x="863.1999999999999" y="102.4"/>
      <point x="848.0" y="85.8"/>
      <point x="848.0" y="57.6" type="curve" smooth="yes"/>
      <point x="848.0" y="22.0"/>
      <point x="870.8" y="0.0"/>
      <point x="922.4" y="0.0" type="curve" smooth="yes"/>
      <point x="1407.0" y="0.0" type="line" smooth="yes"/>
      <point x="1457.9999999999998" y="0.0"/>
      <point x="1481.6000000000001" y="21.999999999999996"/>
      <point x="1481.6000000000001" y="57.6" type="curve" smooth="yes"/>
      <point x="1481.6000000000001" y="88.39999999999999"/>
      <point x="1469.6000000000001" y="104.80000000000001"/>
      <point x="1426.8" y="124.6" type="curve" smooth="yes"/>
      <point x="1385.4" y="141.0"/>
      <point x="1367.2" y="173.0"/>
      <point x="1342.6000000000001" y="250.8" type="curve" smooth="yes"/>
      <point x="1035.8" y="1195.8000000000002" type="line" smooth="yes"/>
      <point x="1018.9999999999999" y="1247.8"/>
      <point x="1024.3999999999999" y="1266.7999999999997"/>
      <point x="1059.2" y="1280.4" type="curve" smooth="yes"/>
      <point x="1091.6" y="1293.2"/>
      <point x="1107.2" y="1312.0000000000002"/>
      <point x="1107.2" y="1343.0000000000002" type="curve" smooth="yes"/>
      <point x="1107.2" y="1378.1999999999998"/>
      <point x="1084.0000000000002" y="1400.0"/>
      <point x="1032.8" y="1400.0" type="curve" smooth="yes"/>
      <point x="465.59999999999997" y="1400.0" type="line" smooth="yes"/>
      <point x="414.6" y="1400.0"/>
      <point x="390.99999999999994" y="1378.1999999999998"/>
      <point x="390.99999999999994" y="1342.8000000000002" type="curve" smooth="yes"/>
      <point x="390.99999999999994" y="1314.2"/>
      <point x="404.0" y="1294.0"/>
      <point x="441.8" y="1278.8" type="curve" smooth="yes"/>
      <point x="489.6" y="1259.3999999999996"/>
      <point x="493.80000000000007" y="1236.0"/>
      <point x="472.6" y="1167.2" type="curve" smooth="yes"/>
      <point x="184.79999999999998" y="266.4" type="line" smooth="yes"/>
      <point x="156.8" y="176.4"/>
      <point x="140.59999999999997" y="152.0"/>
      <point x="98.4" y="128.60000000000002" type="curve" smooth="yes"/>
      <point x="71.60000000000001" y="115.6" type="line" smooth="yes"/>
      <point x="40.599999999999994" y="98.19999999999999"/>
      <point x="29.2" y="82.19999999999999"/>
      <point x="29.2" y="57.4" type="curve" smooth="yes"/>
      <point x="29.2" y="22.0"/>
      <point x="52.60000000000001" y="0.0"/>
      <point x="103.0" y="0.0" type="curve" smooth="yes"/>
      <point x="419.79999999999995" y="0.0" type="line" smooth="yes"/>
      <point x="471.0" y="0.0"/>
      <point x="493.40000000000003" y="22.0"/>
    </contour>
  </outline>
</glyph>
<glyph name="B" format="2">
  <advance width="1484.8000000000002"/>
  <unicode hex="0042"/>
  <outline>
    <contour>
      <point x="1443.8" y="336.0" type="curve" smooth="yes"/>
      <point x="1443.8" y="539.3145983398504"/>
      <point x="1229.3999999999999" y="679.8000000000001"/>
      <point x="907.2" y="679.8000000000001" type="curve"/>
      <point x="856.8" y="642.9999999999999" type="line"/>
      <point x="1183.6" y="642.9999999999999"/>
      <point x="1363.8000000000002" y="788.5080645161291"/>
      <point x="1363.8000000000002" y="990.2" type="curve" smooth="yes"/>
      <point x="1363.8000000000002" y="1235.3999999999999"/>
      <point x="1138.0" y="1400.0"/>
      <point x="758.0000000000001" y="1400.0" type="curve" smooth="yes"/>
      <point x="170.79999999999998" y="1400.0" type="line" smooth="yes"/>
      <point x="120.0" y="1400.0"/>
      <point x="97.0" y="1377.9999999999998"/>
      <point x="97.0" y="1342.4000000000003" type="curve" smooth="yes"/>
      <point x="97.0" y="1312.4"/>
      <point x="110.60000000000001" y="1291.2"/>
      <point x="144.4" y="1279.4" type="curve" smooth="yes"/>
      <point x="191.6" y="1266.0" type="line" smooth="yes"/>
      <point x="225.0" y="1254.8000000000002"/>
      <point x="242.2" y="1235.4"/>
      <point x="242.2" y="1204.0" type="curve" smooth="yes"/>
      <point x="242.2" y="195.99999999999997" type="line" smooth="yes"/>
      <point x="242.2" y="164.60000000000002"/>
      <point x="224.99999999999997" y="145.20000000000002"/>
      <point x="191.6" y="134.0" type="curve" smooth="yes"/>
      <point x="144.4" y="120.6" type="line" smooth="yes"/>
      <point x="110.60000000000001" y="108.8"/>
      <point x="97.0" y="87.6"/>
      <point x="97.0" y="57.6" type="curve" smooth="yes"/>
      <point x="97.0" y="21.999999999999996"/>
      <point x="120.0" y="0.0"/>
      <point x="170.79999999999998" y="0.0" type="curve" smooth="yes"/>
      <point x="921.4" y="0.0" type="line" smooth="yes"/>
      <point x="1273.2461538461537" y="0.0"/>
      <point x="1443.8" y="136.39999999999998"/>
    </contour>
    <contour>
      <point x="785.3999999999999" y="595.8" type="line" smooth="yes"/>
      <point x="961.6987124463519" y="595.8"/>
      <point x="1060.1999999999998" y="500.0666666666667"/>
      <point x="1060.1999999999998" y="347.79999999999995" type="curve" smooth="yes"/>
      <point x="1060.1999999999998" y="200.8"/>
      <point x="979.1032967032966" y="111.99999999999999"/>
      <point x="834.2" y="111.99999999999999" type="curve" smooth="yes"/>
      <point x="756.2" y="111.99999999999999" type="line" smooth="yes"/>
      <point x="673.8" y="111.99999999999999"/>
      <point x="629.5999999999999" y="147.0"/>
      <point x="629.5999999999999" y="221.0" type="curve" smooth="yes"/>
      <point x="629.5999999999999" y="1287.9999999999998" type="line"/>
      <point x="690.0" y="1287.9999999999998" type="line" smooth="yes"/>
      <point x="885.9971731448763" y="1287.9999999999998"/>
      <point x="997.7999999999998" y="1164.0"/>
      <point x="997.7999999999998" y="968.8" type="curve" smooth="yes"/>
      <point x="997.7999999999998" y="785.0529595015576"/>
      <point x="911.1426086956523" y="692.5999999999999"/>
      <point x="747.7999999999998" y="692.5999999999999" type="curve" smooth="yes"/>
      <point x="522.0000000000001" y="692.5999999999999" type="line"/>
      <point x="522.0000000000001" y="595.8" type="line"/>
    </contour>
  </outline>
</glyph>
<glyph name="C" format="2">
  <advance width="1427.6000000000001"/>
  <unicode hex="0043"/>
  <anchor x="757.2" y="1550.0" name="center"/>
  <outline>
    <contour>
      <point x="1365.2" y="384.4" type="curve" smooth="yes"/>
      <point x="1365.2" y="412.59999999999997"/>
      <point x="1353.8000000000002" y="430.2"/>
      <point x="1328.3999999999999" y="435.0" type="curve" smooth="yes"/>
      <point x="1300.9999999999998" y="439.79999999999995"/>
      <point x="1278.8" y="429.8"/>
      <point x="1259.2" y="393.2" type="curve" smooth="yes"/>
      <point x="1184.6" y="247.39999999999998"/>
      <point x="1056.8" y="167.8"/>
      <point x="899.4" y="167.8" type="curve" smooth="yes"/>
      <point x="641.8626262626262" y="167.8"/>
      <point x="458.40000000000003" y="373.6"/>
      <point x="458.40000000000003" y="765.3999999999999" type="curve" smooth="yes"/>
      <point x="458.40000000000003" y="1094.2697674418605"/>
      <point x="598.8" y="1303.4"/>
      <point x="815.1999999999999" y="1303.4" type="curve" smooth="yes"/>
      <point x="971.6000000000001" y="1303.4"/>
      <point x="1110.6467531255728" y="1228.8921940268665"/>
      <point x="1215.2" y="990.0" type="curve" smooth="yes"/>
      <point x="1232.4" y="950.0"/>
      <point x="1266.2000000000003" y="935.8"/>
      <point x="1304.6" y="944.5999999999999" type="curve" smooth="yes"/>
      <point x="1340.8" y="952.6"/>
      <point x="1363.0" y="985.0"/>
      <point x="1352.2000000000003" y="1021.1999999999999" type="curve" smooth="yes"/>
      <point x="1248.0" y="1370.2" type="line" smooth="yes"/>
      <point x="1235.0" y="1414.2"/>
      <point x="1216.8000000000002" y="1430.4"/>
      <point x="1188.2" y="1430.4" type="curve" smooth="yes"/>
      <point x="1132.1999999999998" y="1430.4"/>
      <point x="1122.4000000000003" y="1365.6"/>
      <point x="1068.4" y="1365.6" type="curve" smooth="yes"/>
      <point x="1022.1999999999998" y="1365.6"/>
      <point x="950.2" y="1437.6"/>
      <point x="757.4000000000001" y="1437.6" type="curve" smooth="yes"/>
      <point x="366.59999999999997" y="1437.6"/>
      <point x="70.0" y="1121.2"/>
      <point x="70.0" y="692.4" type="curve" smooth="yes"/>
      <point x="70.0" y="264.1673130193906"/>
      <point x="345.00000000000006" y="-38.8"/>
      <point x="785.8" y="-38.8" type="curve" smooth="yes"/>
      <point x="1144.327559055118" y="-38.8"/>
      <point x="1365.1999999999998" y="185.0"/>
    </contour>
  </outline>
</glyph>
<glyph name="D" format="2">
  <advance width="1637.6000000000001"/>
  <unicode hex="0044"/>
  <anchor x="806.1999999999999" y="1489.0" name="center"/>
  <outline>
    <contour>
      <point x="97.2" y="57.6" type="curve" smooth="yes"/>
      <point x="97.2" y="21.999999999999996"/>
      <point x="120.2" y="0.0"/>
      <point x="170.99999999999997" y="0.0" type="curve" smooth="yes"/>
      <point x="841.8000000000001" y="0.0" type="line" smooth="yes"/>
      <point x="1292.0" y="0.0"/>
      <point x="1570.4" y="276.2"/>
      <point x="1570.4" y="652.6" type="curve" smooth="yes"/>
      <point x="1570.4" y="1090.8"/>
      <point x="1241.1999999999998" y="1400.0"/>
      <point x="747.6" y="1400.0" type="curve" smooth="yes"/>
      <point x="170.99999999999997" y="1400.0" type="line" smooth="yes"/>
      <point x="120.2" y="1400.0"/>
      <point x="97.2" y="1377.9999999999998"/>
      <point x="97.2" y="1342.4" type="curve" smooth="yes"/>
      <point x="97.2" y="1312.4"/>
      <point x="110.8" y="1291.1999999999998"/>
      <point x="144.6" y="1279.4000000000003" type="curve" smooth="yes"/>
      <point x="191.8" y="1266.0" type="line" smooth="yes"/>
      <point x="225.20000000000002" y="1254.7999999999997"/>
      <point x="242.4" y="1235.4"/>
      <point x="242.4" y="1203.9999999999998" type="curve" smooth="yes"/>
      <point x="242.4" y="196.0" type="line" smooth="yes"/>
      <point x="242.4" y="164.60000000000002"/>
      <point x="225.2" y="145.2"/>
      <point x="191.79999999999998" y="134.0" type="curve" smooth="yes"/>
      <point x="144.6" y="120.6" type="line" smooth="yes"/>
      <point x="110.8" y="108.80000000000001"/>
      <point x="97.2" y="87.6"/>
    </contour>
    <contour>
      <point x="797.1999999999999" y="122.60000000000001" type="curve" smooth="yes"/>
      <point x="741.8" y="122.60000000000001" type="line" smooth="yes"/>
      <point x="668.0000000000001" y="122.60000000000001"/>
      <point x="629.5999999999999" y="153.2"/>
      <point x="629.5999999999999" y="224.8" type="curve" smooth="yes"/>
      <point x="629.5999999999999" y="1277.3999999999999" type="line"/>
      <point x="703.1999999999999" y="1277.3999999999999" type="line" smooth="yes"/>
      <point x="993.8000000000001" y="1277.3999999999999"/>
      <point x="1171.0" y="1043.3999999999999"/>
      <point x="1171.0" y="657.8" type="curve" smooth="yes"/>
      <point x="1171.0" y="289.99999999999994"/>
      <point x="1016.2" y="122.60000000000001"/>
    </contour>
  </outline>
</glyph>
<glyph name="E" format="2">
  <advance width="1354.3999999999999"/>
  <unicode hex="0045"/>
  <anchor x="681.1999999999999" y="1474.0" name="center"/>
  <outline>
    <contour>
      <point x="482.6" y="767.0000000000001" type="line"/>
      <point x="482.6" y="646.5999999999999" type="line"/>
      <point x="798.1999999999999" y="646.5999999999999" type="line" smooth="yes"/>
      <point x="893.8000000000001" y="646.5999999999999"/>
      <point x="927.4" y="626.7999999999998"/>
      <point x="986.6" y="534.6" type="curve" smooth="yes"/>
      <point x="1006.1999999999999" y="505.6"/>
      <point x="1035.6" y="496.99999999999994"/>
      <point x="1067.6000000000001" y="507.8" type="curve" smooth="yes"/>
      <point x="1100.6000000000001" y="518.8"/>
      <point x="1111.8" y="543.0"/>
      <point x="1101.3999999999999" y="585.2" type="curve" smooth="yes"/>
      <point x="1024.6" y="890.6" type="line" smooth="yes"/>
      <point x="1016.6000000000001" y="923.3999999999999"/>
      <point x="996.4" y="942.8"/>
      <point x="965.8" y="941.9999999999999" type="curve" smooth="yes"/>
      <point x="936.6" y="941.1999999999999"/>
      <point x="914.4" y="924.0000000000001"/>
      <point x="904.0000000000001" y="884.8" type="curve" smooth="yes"/>
      <point x="881.2" y="791.5999999999999"/>
      <point x="856.2" y="767.0000000000001"/>
      <point x="773.6" y="767.0000000000001" type="curve" smooth="yes"/>
    </contour>
    <contour>
      <point x="97.2" y="1342.4000000000003" type="curve" smooth="yes"/>
      <point x="97.2" y="1312.4"/>
      <point x="110.80000000000001" y="1291.2"/>
      <point x="144.6" y="1279.4" type="curve" smooth="yes"/>
      <point x="191.79999999999998" y="1266.0" type="line" smooth="yes"/>
      <point x="225.2" y="1254.8000000000002"/>
      <point x="242.4" y="1235.4"/>
      <point x="242.4" y="1204.0" type="curve" smooth="yes"/>
      <point x="242.4" y="195.99999999999997" type="line" smooth="yes"/>
      <point x="242.4" y="164.60000000000002"/>
      <point x="225.2" y="145.2"/>
      <point x="191.79999999999998" y="134.0" type="curve" smooth="yes"/>
      <point x="144.6" y="120.6" type="line" smooth="yes"/>
      <point x="110.80000000000001" y="108.80000000000003"/>
      <point x="97.2" y="87.6"/>
      <point x="97.2" y="57.6" type="curve" smooth="yes"/>
      <point x="97.2" y="21.999999999999996"/>
      <point x="120.2" y="0.0"/>
      <point x="171.0" y="0.0" type="curve" smooth="yes"/>
      <point x="966.5999999999998" y="0.0" type="line" smooth="yes"/>
      <point x="1047.0" y="0.0"/>
      <point x="1080.2" y="-36.4"/>
      <point x="1135.2" y="-36.4" type="curve" smooth="yes"/>
      <point x="1190.2" y="-36.4"/>
      <point x="1213.0" y="-6.999999999999999"/>
      <point x="1230.6000000000001" y="55.00000000000001" type="curve" smooth="yes"/>
      <point x="1319.6000000000001" y="378.80000000000007" type="line" smooth="yes"/>
      <point x="1332.3999999999999" y="423.4"/>
      <point x="1312.2000000000003" y="453.20000000000005"/>
      <point x="1271.6" y="461.2" type="curve" smooth="yes"/>
      <point x="1235.3999999999999" y="467.59999999999997"/>
      <point x="1205.8" y="455.4"/>
      <point x="1188.8" y="418.4" type="curve" smooth="yes"/>
      <point x="1077.0" y="172.39999999999998"/>
      <point x="1000.4" y="122.80000000000001"/>
      <point x="857.4" y="122.80000000000001" type="curve" smooth="yes"/>
      <point x="745.7999999999998" y="122.80000000000001" type="line" smooth="yes"/>
      <point x="669.6" y="122.80000000000001"/>
      <point x="629.6" y="159.20000000000002"/>
      <point x="629.6" y="233.79999999999998" type="curve" smooth="yes"/>
      <point x="629.6" y="1277.1999999999998" type="line"/>
      <point x="827.6" y="1277.1999999999998" type="line" smooth="yes"/>
      <point x="964.8" y="1277.1999999999998"/>
      <point x="1035.0" y="1235.6"/>
      <point x="1141.8000000000002" y="1027.4" type="curve" smooth="yes"/>
      <point x="1162.4" y="988.0"/>
      <point x="1196.2" y="971.8"/>
      <point x="1237.2" y="985.6" type="curve" smooth="yes"/>
      <point x="1272.6" y="998.0"/>
      <point x="1285.8" y="1025.6"/>
      <point x="1273.8" y="1066.8000000000002" type="curve" smooth="yes"/>
      <point x="1191.3999999999999" y="1347.2" type="line" smooth="yes"/>
      <point x="1172.2000000000003" y="1411.3999999999999"/>
      <point x="1150.6000000000001" y="1438.2"/>
      <point x="1100.0" y="1438.2" type="curve" smooth="yes"/>
      <point x="1037.8000000000002" y="1438.2"/>
      <point x="1008.4000000000001" y="1400.0"/>
      <point x="926.7999999999998" y="1400.0" type="curve" smooth="yes"/>
      <point x="171.0" y="1400.0" type="line" smooth="yes"/>
      <point x="120.2" y="1400.0"/>
      <point x="97.2" y="1377.9999999999998"/>
    </contour>
  </outline>
</glyph>
<glyph name="F" format="2">
  <advance width="1267.4"/>
  <unicode hex="0046"/>
  <outline>
    <contour>
      <point x="888.6000000000001" y="1400.0" type="curve" smooth="yes"/>
      <point x="171.0" y="1400.0" type="line" smooth="yes"/>
      <point x="120.2" y="1400.0"/>
      <point x="97.2" y="1377.9999999999998"/>
      <point x="97.2" y="1342.4000000000003" type="curve" smooth="yes"/>
      <point x="97.2" y="1312.4"/>
      <point x="110.80000000000001" y="1291.2"/>
      <point x="144.6" y="1279.4" type="curve" smooth="yes"/>
      <point x="191.79999999999998" y="1266.0" type="line" smooth="yes"/>
      <point x="225.2" y="1254.8000000000002"/>
      <point x="242.4" y="1235.4"/>
      <point x="242.4" y="1204.0" type="curve" smooth="yes"/>
      <point x="242.4" y="195.99999999999997" type="line" smooth="yes"/>
      <point x="242.4" y="164.6"/>
      <point x="225.20000000000002" y="145.2"/>
      <point x="191.79999999999998" y="134.0" type="curve" smooth="yes"/>
      <point x="144.6" y="120.6" type="line" smooth="yes"/>
      <point x="110.80000000000001" y="108.80000000000003"/>
      <point x="97.2" y="87.6"/>
      <point x="97.2" y="57.6" type="curve" smooth="yes"/>
      <point x="97.2" y="21.999999999999996"/>
      <point x="120.2" y="0.0"/>
      <point x="171.0" y="0.0" type="curve" smooth="yes"/>
      <point x="734.0" y="0.0" type="line" smooth="yes"/>
      <point x="784.8" y="0.0"/>
      <point x="807.8000000000001" y="21.999999999999996"/>
      <point x="807.8000000000001" y="57.6" type="curve" smooth="yes"/>
      <point x="807.8000000000001" y="94.8"/>
      <point x="791.8000000000001" y="113.79999999999998"/>
      <point x="754.0" y="121.4" type="curve" smooth="yes"/>
      <point x="680.2" y="134.0" type="line" smooth="yes"/>
      <point x="644.3999999999999" y="141.0"/>
      <point x="629.5999999999999" y="163.79999999999998"/>
      <point x="629.5999999999999" y="195.99999999999997" type="curve" smooth="yes"/>
      <point x="629.5999999999999" y="1277.1999999999998" type="line"/>
      <point x="793.8" y="1277.1999999999998" type="line" smooth="yes"/>
      <point x="922.1999999999999" y="1277.1999999999998"/>
      <point x="1000.2911072759198" y="1233.7745678941985"/>
      <point x="1103.0" y="1023.3999999999999" type="curve" smooth="yes"/>
      <point x="1122.8000000000002" y="983.2"/>
      <point x="1154.1999999999998" y="975.1999999999999"/>
      <point x="1185.3999999999999" y="980.0000000000001" type="curve" smooth="yes"/>
      <point x="1223.2" y="986.1999999999999"/>
      <point x="1247.6" y="1013.0"/>
      <point x="1237.0" y="1049.4000000000003" type="curve" smooth="yes"/>
      <point x="1152.4000000000003" y="1347.2" type="line" smooth="yes"/>
      <point x="1134.8" y="1409.8000000000002"/>
      <point x="1111.7999999999997" y="1434.2"/>
      <point x="1058.2" y="1434.2" type="curve" smooth="yes"/>
      <point x="1009.8000000000001" y="1434.2"/>
      <point x="972.4" y="1400.0"/>
    </contour>
    <contour>
      <point x="484.00000000000006" y="728.2" type="line"/>
      <point x="484.00000000000006" y="607.8" type="line"/>
      <point x="809.2" y="607.8" type="line" smooth="yes"/>
      <point x="906.2" y="607.8"/>
      <point x="939.4276954491664" y="585.5356080806879"/>
      <point x="994.6" y="502.20000000000005" type="curve" smooth="yes"/>
      <point x="1019.0" y="468.4"/>
      <point x="1046.8" y="458.2"/>
      <point x="1079.6000000000001" y="469.8" type="curve" smooth="yes"/>
      <point x="1109.4" y="480.80000000000007"/>
      <point x="1123.8000000000002" y="502.6000000000001"/>
      <point x="1113.4" y="544.0000000000001" type="curve" smooth="yes"/>
      <point x="1037.1999999999998" y="851.8" type="line" smooth="yes"/>
      <point x="1029.1999999999998" y="885.4"/>
      <point x="1006.6" y="900.8000000000001"/>
      <point x="975.2" y="900.0" type="curve" smooth="yes"/>
      <point x="946.8000000000001" y="899.2"/>
      <point x="926.1999999999999" y="886.0"/>
      <point x="915.8" y="850.8000000000001" type="curve" smooth="yes"/>
      <point x="889.0" y="752.8"/>
      <point x="864.0000000000001" y="728.2"/>
      <point x="780.5999999999999" y="728.2" type="curve" smooth="yes"/>
    </contour>
  </outline>
</glyph>
<glyph name="G" format="2">
  <advance width="1552.6000000000001"/>
  <unicode hex="0047"/>
  <anchor x="792.0" y="1544.0" name="center"/>
  <outline>
    <contour>
      <point x="1373.0" y="33.2" type="curve" smooth="yes"/>
      <point x="1373.0" y="486.19999999999993" type="line" smooth="yes"/>
      <point x="1373.0" y="520.0"/>
      <point x="1390.0" y="534.6"/>
      <point x="1422.8" y="545.8" type="curve" smooth="yes"/>
      <point x="1453.6000000000001" y="555.5999999999999" type="line" smooth="yes"/>
      <point x="1485.8000000000002" y="568.6"/>
      <point x="1501.3999999999999" y="584.8"/>
      <point x="1501.3999999999999" y="613.0" type="curve" smooth="yes"/>
      <point x="1501.3999999999999" y="645.4000000000001"/>
      <point x="1477.8000000000002" y="667.2"/>
      <point x="1426.2" y="667.2" type="curve" smooth="yes"/>
      <point x="936.0" y="667.2" type="line" smooth="yes"/>
      <point x="885.0" y="667.2"/>
      <point x="861.4" y="646.2"/>
      <point x="861.4" y="612.1999999999999" type="curve" smooth="yes"/>
      <point x="861.4" y="582.1999999999999"/>
      <point x="883.4" y="563.4"/>
      <point x="920.6" y="553.1999999999999" type="curve" smooth="yes"/>
      <point x="973.4" y="540.2" type="line" smooth="yes"/>
      <point x="1017.4000000000001" y="529.0"/>
      <point x="1028.6" y="516.0"/>
      <point x="1028.6" y="486.19999999999993" type="curve" smooth="yes"/>
      <point x="1028.6" y="255.79999999999998" type="line" smooth="yes"/>
      <point x="1028.6" y="185.0"/>
      <point x="977.8" y="139.6"/>
      <point x="881.6" y="139.6" type="curve" smooth="yes"/>
      <point x="636.5999999999999" y="139.6"/>
      <point x="458.4" y="354.79999999999995"/>
      <point x="458.4" y="765.5999999999999" type="curve" smooth="yes"/>
      <point x="458.4" y="1094.6"/>
      <point x="609.3794117647058" y="1303.4"/>
      <point x="844.0" y="1303.4" type="curve" smooth="yes"/>
      <point x="1010.325925925926" y="1303.4"/>
      <point x="1164.1869605616819" y="1231.427884295605"/>
      <point x="1269.6000000000001" y="989.9999999999999" type="curve" smooth="yes"/>
      <point x="1286.8" y="950.0000000000001"/>
      <point x="1320.6" y="935.8"/>
      <point x="1359.0000000000002" y="944.6" type="curve" smooth="yes"/>
      <point x="1395.2" y="952.6"/>
      <point x="1417.4" y="985.0"/>
      <point x="1406.6" y="1021.2" type="curve" smooth="yes"/>
      <point x="1302.3999999999999" y="1370.2" type="line" smooth="yes"/>
      <point x="1289.3999999999999" y="1414.2"/>
      <point x="1271.2" y="1430.4"/>
      <point x="1242.6" y="1430.4" type="curve" smooth="yes"/>
      <point x="1186.6" y="1430.4"/>
      <point x="1176.8" y="1365.6"/>
      <point x="1122.8000000000002" y="1365.6" type="curve" smooth="yes"/>
      <point x="1072.2384839650144" y="1365.6"/>
      <point x="994.3890339425587" y="1437.6"/>
      <point x="786.2" y="1437.6" type="curve" smooth="yes"/>
      <point x="378.6766091051805" y="1437.6"/>
      <point x="70.0" y="1124.0"/>
      <point x="70.0" y="699.0" type="curve" smooth="yes"/>
      <point x="70.0" y="255.8"/>
      <point x="329.4" y="-38.0"/>
      <point x="766.2" y="-38.0" type="curve" smooth="yes"/>
      <point x="988.9999999999999" y="-38.0"/>
      <point x="1069.4" y="72.4"/>
      <point x="1130.0" y="72.4" type="curve" smooth="yes"/>
      <point x="1183.4" y="72.4"/>
      <point x="1226.8000000000002" y="-38.800000000000004"/>
      <point x="1304.5999999999997" y="-38.800000000000004" type="curve" smooth="yes"/>
      <point x="1350.3999999999999" y="-38.800000000000004"/>
      <point x="1373.0" y="-16.599999999999994"/>
    </contour>
  </outline>
</glyph>
<glyph name="H" format="2">
  <advance width="1757.0"/>
  <unicode hex="0048"/>
  <outline>
    <contour>
      <point x="403.8" y="726.8" type="line"/>
      <point x="403.8" y="598.8000000000001" type="line"/>
      <point x="1261.2" y="598.8000000000001" type="line"/>
      <point x="1261.2" y="726.8" type="line"/>
    </contour>
    <contour>
      <point x="629.1999999999999" y="196.00000000000003" type="curve" smooth="yes"/>
      <point x="629.1999999999999" y="1204.0" type="line" smooth="yes"/>
      <point x="629.1999999999999" y="1235.4"/>
      <point x="646.4" y="1254.8000000000002"/>
      <point x="679.8" y="1265.9999999999998" type="curve" smooth="yes"/>
      <point x="727.0000000000001" y="1279.4" type="line" smooth="yes"/>
      <point x="760.8000000000001" y="1291.2"/>
      <point x="774.4" y="1312.4000000000003"/>
      <point x="774.4" y="1342.4000000000003" type="curve" smooth="yes"/>
      <point x="774.4" y="1377.9999999999998"/>
      <point x="751.4" y="1400.0"/>
      <point x="700.6" y="1400.0" type="curve" smooth="yes"/>
      <point x="170.6" y="1400.0" type="line" smooth="yes"/>
      <point x="119.8" y="1400.0"/>
      <point x="96.8" y="1377.9999999999998"/>
      <point x="96.8" y="1342.4000000000003" type="curve" smooth="yes"/>
      <point x="96.8" y="1312.4"/>
      <point x="110.39999999999999" y="1291.2"/>
      <point x="144.2" y="1279.4" type="curve" smooth="yes"/>
      <point x="191.4" y="1265.9999999999998" type="line" smooth="yes"/>
      <point x="224.8" y="1254.8000000000002"/>
      <point x="242.0" y="1235.4"/>
      <point x="242.0" y="1204.0" type="curve" smooth="yes"/>
      <point x="242.0" y="196.00000000000003" type="line" smooth="yes"/>
      <point x="242.0" y="164.6"/>
      <point x="224.79999999999998" y="145.2"/>
      <point x="191.4" y="133.99999999999997" type="curve" smooth="yes"/>
      <point x="144.2" y="120.6" type="line" smooth="yes"/>
      <point x="110.4" y="108.8"/>
      <point x="96.8" y="87.6"/>
      <point x="96.8" y="57.6" type="curve" smooth="yes"/>
      <point x="96.8" y="21.999999999999996"/>
      <point x="119.8" y="0.0"/>
      <point x="170.6" y="0.0" type="curve" smooth="yes"/>
      <point x="700.6" y="0.0" type="line" smooth="yes"/>
      <point x="751.4" y="0.0"/>
      <point x="774.4" y="21.999999999999996"/>
      <point x="774.4" y="57.6" type="curve" smooth="yes"/>
      <point x="774.4" y="87.59999999999998"/>
      <point x="760.8" y="108.8"/>
      <point x="727.0000000000001" y="120.6" type="curve" smooth="yes"/>
      <point x="679.8" y="133.99999999999997" type="line" smooth="yes"/>
      <point x="646.4" y="145.2"/>
      <point x="629.1999999999999" y="164.6"/>
    </contour>
    <contour>
      <point x="1515.0" y="196.00000000000003" type="curve" smooth="yes"/>
      <point x="1515.0" y="1204.0" type="line" smooth="yes"/>
      <point x="1515.0" y="1235.4"/>
      <point x="1532.1999999999998" y="1254.8000000000002"/>
      <point x="1565.6" y="1265.9999999999998" type="curve" smooth="yes"/>
      <point x="1612.8" y="1279.4" type="line" smooth="yes"/>
      <point x="1646.6000000000001" y="1291.2"/>
      <point x="1660.1999999999998" y="1312.4000000000003"/>
      <point x="1660.1999999999998" y="1342.4000000000003" type="curve" smooth="yes"/>
      <point x="1660.1999999999998" y="1377.9999999999998"/>
      <point x="1637.2" y="1400.0"/>
      <point x="1586.3999999999999" y="1400.0" type="curve" smooth="yes"/>
      <point x="1056.4" y="1400.0" type="line" smooth="yes"/>
      <point x="1005.6" y="1400.0"/>
      <point x="982.6" y="1377.9999999999998"/>
      <point x="982.6" y="1342.4000000000003" type="curve" smooth="yes"/>
      <point x="982.6" y="1312.4"/>
      <point x="996.2" y="1291.2"/>
      <point x="1030.0" y="1279.4" type="curve" smooth="yes"/>
      <point x="1077.1999999999998" y="1265.9999999999998" type="line" smooth="yes"/>
      <point x="1110.5999999999997" y="1254.8000000000002"/>
      <point x="1127.8" y="1235.4"/>
      <point x="1127.8" y="1204.0" type="curve" smooth="yes"/>
      <point x="1127.8" y="196.00000000000003" type="line" smooth="yes"/>
      <point x="1127.8" y="164.6"/>
      <point x="1110.6000000000001" y="145.2"/>
      <point x="1077.1999999999998" y="133.99999999999997" type="curve" smooth="yes"/>
      <point x="1030.0" y="120.6" type="line" smooth="yes"/>
      <point x="996.1999999999999" y="108.8"/>
      <point x="982.6" y="87.6"/>
      <point x="982.6" y="57.6" type="curve" smooth="yes"/>
      <point x="982.6" y="21.999999999999996"/>
      <point x="1005.6" y="0.0"/>
      <point x="1056.4" y="0.0" type="curve" smooth="yes"/>
      <point x="1586.3999999999999" y="0.0" type="line" smooth="yes"/>
      <point x="1637.2" y="0.0"/>
      <point x="1660.1999999999998" y="21.999999999999996"/>
      <point x="1660.1999999999998" y="57.6" type="curve" smooth="yes"/>
      <point x="1660.1999999999998" y="87.59999999999998"/>
      <point x="1646.6" y="108.8"/>
      <point x="1612.8" y="120.6" type="curve" smooth="yes"/>
      <point x="1565.6" y="133.99999999999997" type="line" smooth="yes"/>
      <point x="1532.2" y="145.2"/>
      <point x="1515.0" y="164.6"/>
    </contour>
  </outline>
</glyph>
<glyph name="I" format="2">
  <advance width="871.2"/>
  <unicode hex="0049"/>
  <outline>
    <contour>
      <point x="629.2" y="196.00000000000003" type="curve" smooth="yes"/>
      <point x="629.2" y="1204.0" type="line" smooth="yes"/>
      <point x="629.2" y="1235.4"/>
      <point x="646.4" y="1254.8000000000002"/>
      <point x="679.8" y="1265.9999999999998" type="curve" smooth="yes"/>
      <point x="726.9999999999999" y="1279.4" type="line" smooth="yes"/>
      <point x="760.8" y="1291.2"/>
      <point x="774.4" y="1312.4000000000003"/>
      <point x="774.4" y="1342.4000000000003" type="curve" smooth="yes"/>
      <point x="774.4" y="1377.9999999999998"/>
      <point x="751.4000000000001" y="1400.0"/>
      <point x="700.6" y="1400.0" type="curve" smooth="yes"/>
      <point x="170.6" y="1400.0" type="line" smooth="yes"/>
      <point x="119.8" y="1400.0"/>
      <point x="96.80000000000001" y="1377.9999999999998"/>
      <point x="96.80000000000001" y="1342.4000000000003" type="curve" smooth="yes"/>
      <point x="96.80000000000001" y="1312.4"/>
      <point x="110.4" y="1291.2"/>
      <point x="144.20000000000002" y="1279.4" type="curve" smooth="yes"/>
      <point x="191.4" y="1265.9999999999998" type="line" smooth="yes"/>
      <point x="224.8" y="1254.8000000000002"/>
      <point x="242.0" y="1235.4"/>
      <point x="242.0" y="1204.0" type="curve" smooth="yes"/>
      <point x="242.0" y="196.00000000000003" type="line" smooth="yes"/>
      <point x="242.0" y="164.6"/>
      <point x="224.79999999999998" y="145.2"/>
      <point x="191.4" y="133.99999999999997" type="curve" smooth="yes"/>
      <point x="144.20000000000002" y="120.6" type="line" smooth="yes"/>
      <point x="110.39999999999999" y="108.8"/>
      <point x="96.80000000000001" y="87.6"/>
      <point x="96.80000000000001" y="57.6" type="curve" smooth="yes"/>
      <point x="96.80000000000001" y="21.999999999999996"/>
      <point x="119.8" y="0.0"/>
      <point x="170.6" y="0.0" type="curve" smooth="yes"/>
      <point x="700.6" y="0.0" type="line" smooth="yes"/>
      <point x="751.4000000000001" y="0.0"/>
      <point x="774.4" y="21.999999999999996"/>
      <point x="774.4" y="57.6" type="curve" smooth="yes"/>
      <point x="774.4" y="87.59999999999998"/>
      <point x="760.8" y="108.8"/>
      <point x="726.9999999999999" y="120.6" type="curve" smooth="yes"/>
      <point x="679.8" y="133.99999999999997" type="line" smooth="yes"/>
      <point x="646.4" y="145.2"/>
      <point x="629.2" y="164.6"/>
    </contour>
  </outline>
</glyph>
<glyph name="J" format="2">
  <advance width="1117.6"/>
  <unicode hex="004A"/>
  <anchor x="669.8000000000001" y="1463.1999999999998" name="center"/>
  <outline>
    <contour>
      <point x="966.8" y="262.2" type="curve" smooth="yes"/>
      <point x="966.8" y="410.6"/>
      <point x="877.5999999999999" y="471.19999999999993"/>
      <point x="877.5999999999999" y="674.1999999999999" type="curve" smooth="yes"/>
      <point x="877.5999999999999" y="1204.0" type="line" smooth="yes"/>
      <point x="877.5999999999999" y="1235.3999999999999"/>
      <point x="894.8" y="1254.8"/>
      <point x="928.2" y="1266.0" type="curve" smooth="yes"/>
      <point x="975.4" y="1279.3999999999999" type="line" smooth="yes"/>
      <point x="1009.2" y="1291.2"/>
      <point x="1022.8" y="1312.4"/>
      <point x="1022.8" y="1342.3999999999999" type="curve" smooth="yes"/>
      <point x="1022.8" y="1378.0"/>
      <point x="999.8" y="1400.0"/>
      <point x="949.0" y="1400.0" type="curve" smooth="yes"/>
      <point x="395.0" y="1400.0" type="line" smooth="yes"/>
      <point x="344.2" y="1400.0"/>
      <point x="321.20000000000005" y="1378.0000000000002"/>
      <point x="321.20000000000005" y="1342.3999999999999" type="curve" smooth="yes"/>
      <point x="321.20000000000005" y="1305.2"/>
      <point x="337.2" y="1286.3999999999996"/>
      <point x="375.0" y="1278.6000000000001" type="curve" smooth="yes"/>
      <point x="439.79999999999995" y="1266.0" type="line" smooth="yes"/>
      <point x="475.6" y="1258.8000000000002"/>
      <point x="490.4" y="1236.2000000000003"/>
      <point x="490.4" y="1204.0" type="curve" smooth="yes"/>
      <point x="490.4" y="648.8" type="line" smooth="yes"/>
      <point x="490.4" y="401.20933062880323"/>
      <point x="640.4000000000001" y="318.89533468559836"/>
      <point x="640.4000000000001" y="188.20000000000002" type="curve" smooth="yes"/>
      <point x="640.4000000000001" y="113.75841584158417"/>
      <point x="589.9920792079207" y="72.19999999999999"/>
      <point x="515.0" y="72.19999999999999" type="curve" smooth="yes"/>
      <point x="439.79999999999995" y="72.19999999999999"/>
      <point x="407.2" y="112.77829803047192"/>
      <point x="407.2" y="181.2" type="curve" smooth="yes"/>
      <point x="407.2" y="261.8" type="line" smooth="yes"/>
      <point x="407.2" y="382.20000000000005"/>
      <point x="338.2817204301075" y="451.40000000000003"/>
      <point x="243.8" y="451.40000000000003" type="curve" smooth="yes"/>
      <point x="133.17343961497969" y="451.40000000000003"/>
      <point x="63.400000000000006" y="372.0"/>
      <point x="63.400000000000006" y="254.60000000000002" type="curve" smooth="yes"/>
      <point x="63.400000000000006" y="77.2"/>
      <point x="224.86440677966104" y="-34.0"/>
      <point x="500.4" y="-34.0" type="curve" smooth="yes"/>
      <point x="788.0941176470589" y="-34.0"/>
      <point x="966.8" y="84.11609756097562"/>
    </contour>
  </outline>
</glyph>
<glyph name="K" format="2">
  <advance width="1661.4"/>
  <unicode hex="004B"/>
  <anchor x="863.8" y="1460.0" name="center"/>
  <outline>
    <contour>
      <point x="508.80000000000007" y="560.4" type="line"/>
      <point x="563.2" y="443.80000000000007" type="line"/>
      <point x="1254.9999999999998" y="1084.4" type="line" smooth="yes"/>
      <point x="1432.8" y="1245.6"/>
      <point x="1459.1999999999998" y="1263.4"/>
      <point x="1499.0" y="1277.6" type="curve" smooth="yes"/>
      <point x="1553.8" y="1298.6000000000001"/>
      <point x="1568.1999999999998" y="1311.8"/>
      <point x="1568.1999999999998" y="1342.4" type="curve" smooth="yes"/>
      <point x="1568.1999999999998" y="1378.0"/>
      <point x="1545.0" y="1400.0"/>
      <point x="1493.6000000000001" y="1400.0" type="curve" smooth="yes"/>
      <point x="1077.7999999999997" y="1400.0" type="line" smooth="yes"/>
      <point x="1026.9999999999998" y="1400.0"/>
      <point x="1003.4" y="1378.2"/>
      <point x="1003.4" y="1342.4" type="curve" smooth="yes"/>
      <point x="1003.4" y="1312.6000000000001"/>
      <point x="1017.6" y="1294.6"/>
      <point x="1050.4" y="1281.2" type="curve" smooth="yes"/>
      <point x="1090.6" y="1268.3999999999999" type="line" smooth="yes"/>
      <point x="1157.0000000000002" y="1241.6"/>
      <point x="1161.2" y="1184.8"/>
      <point x="1071.2" y="1099.4" type="curve" smooth="yes"/>
    </contour>
    <contour>
      <point x="732.8" y="719.0" type="line"/>
      <point x="1045.6" y="206.99999999999997" type="line" smooth="yes"/>
      <point x="1074.8" y="157.59999999999997"/>
      <point x="1073.8" y="136.0"/>
      <point x="1047.8" y="127.80000000000001" type="curve" smooth="yes"/>
      <point x="1009.0" y="117.4" type="line" smooth="yes"/>
      <point x="983.4000000000001" y="108.79999999999998"/>
      <point x="968.0" y="88.4"/>
      <point x="968.0" y="58.4" type="curve" smooth="yes"/>
      <point x="968.0" y="22.0"/>
      <point x="991.4" y="0.0"/>
      <point x="1042.6" y="0.0" type="curve" smooth="yes"/>
      <point x="1566.8" y="0.0" type="line" smooth="yes"/>
      <point x="1617.8" y="0.0"/>
      <point x="1641.6" y="22.0"/>
      <point x="1641.6" y="57.39999999999999" type="curve" smooth="yes"/>
      <point x="1641.6" y="86.20000000000002"/>
      <point x="1628.8" y="109.60000000000001"/>
      <point x="1588.8" y="126.40000000000002" type="curve" smooth="yes"/>
      <point x="1556.9999999999998" y="135.2"/>
      <point x="1531.2000000000003" y="152.2"/>
      <point x="1500.6000000000001" y="201.79999999999998" type="curve" smooth="yes"/>
      <point x="1031.4" y="965.3999999999999" type="line"/>
    </contour>
    <contour>
      <point x="629.5999999999999" y="195.99999999999997" type="curve" smooth="yes"/>
      <point x="629.5999999999999" y="1204.0" type="line" smooth="yes"/>
      <point x="629.5999999999999" y="1235.4"/>
      <point x="646.8000000000001" y="1254.8000000000002"/>
      <point x="680.1999999999999" y="1266.0" type="curve" smooth="yes"/>
      <point x="727.4" y="1279.4" type="line" smooth="yes"/>
      <point x="761.2" y="1291.2"/>
      <point x="774.8" y="1312.4000000000003"/>
      <point x="774.8" y="1342.4000000000003" type="curve" smooth="yes"/>
      <point x="774.8" y="1378.0"/>
      <point x="751.8" y="1400.0"/>
      <point x="701.0" y="1400.0" type="curve" smooth="yes"/>
      <point x="171.0" y="1400.0" type="line" smooth="yes"/>
      <point x="120.2" y="1400.0"/>
      <point x="97.2" y="1377.9999999999998"/>
      <point x="97.2" y="1342.4000000000003" type="curve" smooth="yes"/>
      <point x="97.2" y="1312.4"/>
      <point x="110.80000000000001" y="1291.2"/>
      <point x="144.6" y="1279.4" type="curve" smooth="yes"/>
      <point x="191.79999999999998" y="1266.0" type="line" smooth="yes"/>
      <point x="225.20000000000002" y="1254.7999999999997"/>
      <point x="242.4" y="1235.4"/>
      <point x="242.4" y="1204.0" type="curve" smooth="yes"/>
      <point x="242.4" y="195.99999999999997" type="line" smooth="yes"/>
      <point x="242.4" y="164.6"/>
      <point x="225.20000000000002" y="145.20000000000005"/>
      <point x="191.79999999999998" y="134.0" type="curve" smooth="yes"/>
      <point x="144.6" y="120.6" type="line" smooth="yes"/>
      <point x="110.80000000000001" y="108.80000000000003"/>
      <point x="97.2" y="87.6"/>
      <point x="97.2" y="57.6" type="curve" smooth="yes"/>
      <point x="97.2" y="21.999999999999996"/>
      <point x="120.2" y="0.0"/>
      <point x="171.0" y="0.0" type="curve" smooth="yes"/>
      <point x="685.0" y="0.0" type="line" smooth="yes"/>
      <point x="735.8" y="0.0"/>
      <point x="758.8" y="21.999999999999996"/>
      <point x="758.8" y="57.6" type="curve" smooth="yes"/>
      <point x="758.8" y="87.6"/>
      <point x="748.3999999999999" y="103.99999999999999"/>
      <point x="711.4" y="120.59999999999998" type="curve" smooth="yes"/>
      <point x="672.2" y="134.0" type="line" smooth="yes"/>
      <point x="642.0" y="146.8"/>
      <point x="629.5999999999999" y="164.6"/>
    </contour>
  </outline>
</glyph>
<glyph name="L" format="2">
  <advance width="1300.4"/>
  <unicode hex="004C"/>
  <anchor x="947.0" y="1483.6" name="right"/>
  <anchor x="427.4" y="1488.0" name="center"/>
  <outline>
    <contour>
      <point x="727.0" y="1279.4" type="line" smooth="yes"/>
      <point x="760.8" y="1291.2"/>
      <point x="774.4" y="1312.4"/>
      <point x="774.4" y="1342.4000000000003" type="curve" smooth="yes"/>
      <point x="774.4" y="1377.9999999999998"/>
      <point x="751.3999999999999" y="1400.0"/>
      <point x="700.6" y="1400.0" type="curve" smooth="yes"/>
      <point x="170.6" y="1400.0" type="line" smooth="yes"/>
      <point x="119.8" y="1400.0"/>
      <point x="96.8" y="1377.9999999999998"/>
      <point x="96.8" y="1342.4000000000003" type="curve" smooth="yes"/>
      <point x="96.8" y="1312.4"/>
      <point x="110.4" y="1291.2"/>
      <point x="144.2" y="1279.4" type="curve" smooth="yes"/>
      <point x="191.4" y="1266.0" type="line" smooth="yes"/>
      <point x="224.8" y="1254.7999999999997"/>
      <point x="242.0" y="1235.4"/>
      <point x="242.0" y="1204.0" type="curve" smooth="yes"/>
      <point x="242.0" y="195.99999999999997" type="line" smooth="yes"/>
      <point x="242.0" y="164.60000000000002"/>
      <point x="224.79999999999998" y="145.20000000000005"/>
      <point x="191.4" y="134.0" type="curve" smooth="yes"/>
      <point x="144.2" y="120.6" type="line" smooth="yes"/>
      <point x="110.4" y="108.80000000000003"/>
      <point x="96.8" y="87.6"/>
      <point x="96.8" y="57.6" type="curve" smooth="yes"/>
      <point x="96.8" y="21.999999999999996"/>
      <point x="119.8" y="0.0"/>
      <point x="170.6" y="0.0" type="curve" smooth="yes"/>
      <point x="904.5999999999998" y="0.0" type="line" smooth="yes"/>
      <point x="986.6" y="0.0"/>
      <point x="1025.6000000000001" y="-36.8"/>
      <point x="1073.8000000000002" y="-36.8" type="curve" smooth="yes"/>
      <point x="1127.3999999999999" y="-36.8"/>
      <point x="1151.0" y="-8.200000000000001"/>
      <point x="1168.6000000000001" y="54.599999999999994" type="curve" smooth="yes"/>
      <point x="1263.6000000000004" y="406.0" type="line" smooth="yes"/>
      <point x="1276.3999999999999" y="450.99999999999994"/>
      <point x="1258.6000000000001" y="477.20000000000005"/>
      <point x="1219.6000000000001" y="487.6" type="curve" smooth="yes"/>
      <point x="1181.8000000000002" y="497.99999999999994"/>
      <point x="1151.8" y="485.59999999999997"/>
      <point x="1133.0" y="445.00000000000006" type="curve" smooth="yes"/>
      <point x="1069.6000000000001" y="307.0" type="line" smooth="yes"/>
      <point x="1000.8" y="157.60000000000002"/>
      <point x="942.8000000000001" y="122.8"/>
      <point x="834.0" y="122.8" type="curve" smooth="yes"/>
      <point x="712.6" y="122.8" type="line" smooth="yes"/>
      <point x="658.0000000000001" y="122.8"/>
      <point x="629.1999999999999" y="142.4"/>
      <point x="629.1999999999999" y="196.2" type="curve" smooth="yes"/>
      <point x="629.1999999999999" y="1204.0" type="line" smooth="yes"/>
      <point x="629.1999999999999" y="1235.4"/>
      <point x="646.4" y="1254.8000000000002"/>
      <point x="679.8" y="1266.0" type="curve" smooth="yes"/>
    </contour>
  </outline>
</glyph>
<glyph name="M" format="2">
  <advance width="1916.2"/>
  <unicode hex="004D"/>
  <anchor x="968.0" y="1484.0" name="center"/>
  <outline>
    <contour>
      <point x="1028.8000000000002" y="427.2" type="line"/>
      <point x="685.4" y="1289.6000000000001" type="line" smooth="yes"/>
      <point x="651.2" y="1378.0000000000002"/>
      <point x="613.2" y="1400.0"/>
      <point x="542.0" y="1400.0" type="curve" smooth="yes"/>
      <point x="208.4" y="1400.0" type="line" smooth="yes"/>
      <point x="158.00000000000003" y="1400.0"/>
      <point x="133.4" y="1378.0"/>
      <point x="133.4" y="1342.0" type="curve" smooth="yes"/>
      <point x="133.4" y="1309.4"/>
      <point x="148.8" y="1290.0000000000002"/>
      <point x="182.20000000000002" y="1278.8000000000002" type="curve" smooth="yes"/>
      <point x="225.20000000000002" y="1265.6" type="line" smooth="yes"/>
      <point x="269.19999999999993" y="1251.2"/>
      <point x="284.19999999999993" y="1221.4"/>
      <point x="278.80000000000007" y="1151.8000000000002" type="curve" smooth="yes"/>
      <point x="203.20000000000005" y="241.20000000000002" type="line" smooth="yes"/>
      <point x="198.39999999999998" y="181.20000000000002"/>
      <point x="167.6" y="152.2"/>
      <point x="124.39999999999999" y="134.39999999999998" type="curve" smooth="yes"/>
      <point x="94.20000000000002" y="122.80000000000001" type="line" smooth="yes"/>
      <point x="62.2" y="108.60000000000001"/>
      <point x="41.400000000000006" y="92.4"/>
      <point x="41.400000000000006" y="57.6" type="curve" smooth="yes"/>
      <point x="41.400000000000006" y="22.0"/>
      <point x="64.2" y="0.0"/>
      <point x="115.19999999999999" y="0.0" type="curve" smooth="yes"/>
      <point x="420.59999999999997" y="0.0" type="line" smooth="yes"/>
      <point x="470.79999999999995" y="0.0"/>
      <point x="494.59999999999997" y="23.6"/>
      <point x="494.59999999999997" y="60.0" type="curve" smooth="yes"/>
      <point x="494.59999999999997" y="85.99999999999999"/>
      <point x="480.79999999999995" y="102.6"/>
      <point x="459.2" y="113.20000000000002" type="curve" smooth="yes"/>
      <point x="421.20000000000005" y="129.6" type="line" smooth="yes"/>
      <point x="371.20000000000005" y="154.40000000000003"/>
      <point x="336.80000000000007" y="179.6"/>
      <point x="341.59999999999997" y="240.39999999999998" type="curve" smooth="yes"/>
      <point x="423.20000000000005" y="1227.8000000000002" type="line"/>
      <point x="314.40000000000003" y="1200.6" type="line"/>
      <point x="736.4" y="147.8" type="line" smooth="yes"/>
      <point x="774.2" y="52.6"/>
      <point x="805.6" y="44.0"/>
      <point x="856.1999999999999" y="44.0" type="curve" smooth="yes"/>
      <point x="901.6" y="44.0"/>
      <point x="931.6" y="58.6"/>
      <point x="962.4" y="142.19999999999996" type="curve" smooth="yes"/>
      <point x="1377.0" y="1235.2" type="line"/>
      <point x="1264.0000000000002" y="1226.6000000000001" type="line"/>
      <point x="1342.4" y="208.39999999999998" type="line" smooth="yes"/>
      <point x="1345.3999999999999" y="166.0"/>
      <point x="1332.6000000000001" y="147.79999999999998"/>
      <point x="1288.8" y="134.2" type="curve" smooth="yes"/>
      <point x="1244.3999999999999" y="120.39999999999999" type="line" smooth="yes"/>
      <point x="1208.4" y="108.2"/>
      <point x="1196.4" y="86.39999999999998"/>
      <point x="1196.4" y="57.6" type="curve" smooth="yes"/>
      <point x="1196.4" y="22.0"/>
      <point x="1220.0" y="0.0"/>
      <point x="1271.5999999999997" y="0.0" type="curve" smooth="yes"/>
      <point x="1790.8" y="0.0" type="line" smooth="yes"/>
      <point x="1840.8" y="0.0"/>
      <point x="1865.2" y="25.200000000000003"/>
      <point x="1865.2" y="60.8" type="curve" smooth="yes"/>
      <point x="1865.2" y="90.39999999999999"/>
      <point x="1850.1999999999998" y="110.60000000000002"/>
      <point x="1821.1999999999998" y="120.39999999999999" type="curve" smooth="yes"/>
      <point x="1777.6000000000001" y="134.2" type="line" smooth="yes"/>
      <point x="1741.0" y="145.8"/>
      <point x="1728.0" y="160.4"/>
      <point x="1724.9999999999998" y="207.99999999999997" type="curve" smooth="yes"/>
      <point x="1655.8" y="1182.4000000000003" type="line" smooth="yes"/>
      <point x="1652.3999999999999" y="1233.2"/>
      <point x="1664.4" y="1251.4"/>
      <point x="1708.8000000000002" y="1265.6000000000001" type="curve" smooth="yes"/>
      <point x="1753.0" y="1279.6000000000001" type="line" smooth="yes"/>
      <point x="1783.8" y="1290.1999999999998"/>
      <point x="1800.2" y="1310.6"/>
      <point x="1800.2" y="1342.4000000000003" type="curve" smooth="yes"/>
      <point x="1800.2" y="1378.0000000000002"/>
      <point x="1776.6000000000001" y="1400.0"/>
      <point x="1725.5999999999997" y="1400.0" type="curve" smooth="yes"/>
      <point x="1388.0" y="1400.0" type="line" smooth="yes"/>
      <point x="1312.0000000000002" y="1400.0"/>
      <point x="1274.0" y="1371.6000000000001"/>
      <point x="1242.0" y="1286.0" type="curve" smooth="yes"/>
      <point x="903.9999999999999" y="400.40000000000003" type="line"/>
    </contour>
  </outline>
</glyph>
<glyph name="N" format="2">
  <advance width="1549.6"/>
  <unicode hex="004E"/>
  <anchor x="802.8000000000001" y="1544.8" name="center"/>
  <outline>
    <contour>
      <point x="547.1999999999999" y="57.6" type="curve" smooth="yes"/>
      <point x="547.1999999999999" y="88.0"/>
      <point x="533.3999999999999" y="106.39999999999998"/>
      <point x="495.6" y="122.60000000000001" type="curve" smooth="yes"/>
      <point x="462.20000000000005" y="134.4" type="line" smooth="yes"/>
      <point x="396.80000000000007" y="162.8"/>
      <point x="381.8" y="187.40000000000003"/>
      <point x="381.8" y="253.0" type="curve" smooth="yes"/>
      <point x="381.8" y="1164.6" type="line"/>
      <point x="262.6000000000001" y="1086.4" type="line"/>
      <point x="959.8000000000001" y="138.4" type="line" smooth="yes"/>
      <point x="1001.8000000000001" y="80.60000000000001"/>
      <point x="1005.4000000000001" y="69.0"/>
      <point x="1005.4000000000001" y="46.0" type="curve" smooth="yes"/>
      <point x="1005.4000000000001" y="16.4"/>
      <point x="1024.3999999999999" y="0.0"/>
      <point x="1062.6" y="0.0" type="curve" smooth="yes"/>
      <point x="1390.1999999999998" y="0.0" type="line" smooth="yes"/>
      <point x="1430.3999999999999" y="0.0"/>
      <point x="1456.0" y="22.6"/>
      <point x="1456.0" y="56.39999999999999" type="curve" smooth="yes"/>
      <point x="1456.0" y="77.6"/>
      <point x="1453.6000000000001" y="92.6"/>
      <point x="1424.2" y="132.2" type="curve" smooth="yes"/>
      <point x="1362.3999999999999" y="215.0" type="line" smooth="yes"/>
      <point x="1340.3999999999999" y="244.8"/>
      <point x="1333.6" y="279.20000000000005"/>
      <point x="1333.6" y="328.20000000000005" type="curve" smooth="yes"/>
      <point x="1333.6" y="1146.2" type="line" smooth="yes"/>
      <point x="1333.6" y="1216.6"/>
      <point x="1353.3999999999999" y="1241.2"/>
      <point x="1414.0" y="1265.6000000000001" type="curve" smooth="yes"/>
      <point x="1448.2" y="1277.4" type="line" smooth="yes"/>
      <point x="1486.0" y="1293.6000000000001"/>
      <point x="1499.8" y="1312.0"/>
      <point x="1499.8" y="1342.4000000000003" type="curve" smooth="yes"/>
      <point x="1499.8" y="1378.0000000000002"/>
      <point x="1476.1999999999998" y="1400.0"/>
      <point x="1425.2" y="1400.0" type="curve" smooth="yes"/>
      <point x="1104.2" y="1400.0" type="line" smooth="yes"/>
      <point x="1054.0000000000002" y="1400.0"/>
      <point x="1030.3999999999999" y="1378.0000000000002"/>
      <point x="1030.3999999999999" y="1342.4000000000003" type="curve" smooth="yes"/>
      <point x="1030.3999999999999" y="1312.8"/>
      <point x="1044.1999999999998" y="1294.3999999999999"/>
      <point x="1082.0" y="1277.4" type="curve" smooth="yes"/>
      <point x="1115.4" y="1265.6000000000001" type="line" smooth="yes"/>
      <point x="1180.8" y="1238.0"/>
      <point x="1195.8" y="1213.3999999999999"/>
      <point x="1195.8" y="1146.2" type="curve" smooth="yes"/>
      <point x="1195.8" y="227.80000000000004" type="line"/>
      <point x="1249.8000000000002" y="375.40000000000003" type="line"/>
      <point x="537.1999999999999" y="1343.0" type="line" smooth="yes"/>
      <point x="505.4" y="1386.8000000000002"/>
      <point x="479.4" y="1400.0"/>
      <point x="432.79999999999995" y="1400.0" type="curve" smooth="yes"/>
      <point x="150.79999999999998" y="1400.0" type="line" smooth="yes"/>
      <point x="112.20000000000002" y="1400.0"/>
      <point x="87.0" y="1380.3999999999999"/>
      <point x="87.0" y="1346.6000000000001" type="curve" smooth="yes"/>
      <point x="87.0" y="1325.8"/>
      <point x="94.6" y="1309.8000000000002"/>
      <point x="120.80000000000001" y="1274.6000000000001" type="curve" smooth="yes"/>
      <point x="201.39999999999998" y="1170.8000000000002" type="line" smooth="yes"/>
      <point x="237.79999999999998" y="1123.6000000000001"/>
      <point x="244.0" y="1105.9999999999998"/>
      <point x="244.0" y="1059.6" type="curve" smooth="yes"/>
      <point x="244.0" y="253.8" type="line" smooth="yes"/>
      <point x="244.0" y="184.2"/>
      <point x="224.2" y="159.6"/>
      <point x="163.60000000000002" y="134.4" type="curve" smooth="yes"/>
      <point x="129.4" y="122.60000000000001" type="line" smooth="yes"/>
      <point x="91.6" y="107.19999999999999"/>
      <point x="77.8" y="88.8"/>
      <point x="77.8" y="57.6" type="curve" smooth="yes"/>
      <point x="77.8" y="22.8"/>
      <point x="101.4" y="0.8"/>
      <point x="152.4" y="0.0" type="curve" smooth="yes"/>
      <point x="473.40000000000003" y="0.0" type="line" smooth="yes"/>
      <point x="523.6" y="0.8"/>
      <point x="547.1999999999999" y="22.8"/>
    </contour>
  </outline>
</glyph>
<glyph name="O" format="2">
  <advance width="1603.2"/>
  <unicode hex="004F"/>
  <outline>
    <contour>
      <point x="796.6" y="1437.8" type="curve" smooth="yes"/>
      <point x="352.2624931716377" y="1437.8"/>
      <point x="70.8" y="1121.8"/>
      <point x="70.8" y="708.4" type="curve" smooth="yes"/>
      <point x="70.8" y="263.59999999999997"/>
      <point x="355.11525925925923" y="-38.8"/>
      <point x="804.8000000000001" y="-38.8" type="curve" smooth="yes"/>
      <point x="1250.517130307467" y="-38.8"/>
      <point x="1532.0" y="277.19999999999993"/>
      <point x="1532.0" y="690.8" type="curve" smooth="yes"/>
      <point x="1532.0" y="1135.4"/>
      <point x="1248.242591960267" y="1437.8"/>
    </contour>
    <contour>
      <point x="1134.0" y="465.2" type="curve" smooth="yes"/>
      <point x="1134.0" y="220.77620578778135"/>
      <point x="1042.6" y="84.19999999999999"/>
      <point x="888.4" y="84.19999999999999" type="curve" smooth="yes"/>
      <point x="679.6" y="84.19999999999999"/>
      <point x="472.4" y="490.0122033898304"/>
      <point x="472.4" y="933.8000000000001" type="curve" smooth="yes"/>
      <point x="472.4" y="1177.6237942122184"/>
      <point x="564.0" y="1313.9999999999998"/>
      <point x="717.0" y="1313.9999999999998" type="curve" smooth="yes"/>
      <point x="926.2" y="1313.9999999999998"/>
      <point x="1134.0" y="908.4205245153933"/>
    </contour>
  </outline>
</glyph>
<glyph name="P" format="2">
  <advance width="1466.8"/>
  <unicode hex="0050"/>
  <outline>
    <contour>
      <point x="1410.8000000000002" y="882.8000000000001" type="curve" smooth="yes"/>
      <point x="1410.8000000000002" y="1183.7345794392525"/>
      <point x="1150.6000000000001" y="1400.0"/>
      <point x="692.0" y="1400.0" type="curve" smooth="yes"/>
      <point x="170.99999999999997" y="1400.0" type="line" smooth="yes"/>
      <point x="120.19999999999999" y="1400.0"/>
      <point x="97.2" y="1377.9999999999998"/>
      <point x="97.2" y="1342.4" type="curve" smooth="yes"/>
      <point x="97.2" y="1312.4"/>
      <point x="110.8" y="1291.2"/>
      <point x="144.60000000000002" y="1279.4000000000003" type="curve" smooth="yes"/>
      <point x="191.79999999999998" y="1266.0" type="line" smooth="yes"/>
      <point x="225.20000000000002" y="1254.7999999999997"/>
      <point x="242.4" y="1235.4"/>
      <point x="242.4" y="1204.0" type="curve" smooth="yes"/>
      <point x="242.4" y="196.0" type="line" smooth="yes"/>
      <point x="242.4" y="164.60000000000002"/>
      <point x="225.20000000000002" y="145.2"/>
      <point x="191.79999999999998" y="134.0" type="curve" smooth="yes"/>
      <point x="144.6" y="120.6" type="line" smooth="yes"/>
      <point x="110.8" y="108.80000000000001"/>
      <point x="97.2" y="87.6"/>
      <point x="97.2" y="57.599999999999994" type="curve" smooth="yes"/>
      <point x="97.2" y="21.999999999999996"/>
      <point x="120.2" y="0.0"/>
      <point x="170.99999999999997" y="0.0" type="curve" smooth="yes"/>
      <point x="733.9999999999999" y="0.0" type="line" smooth="yes"/>
      <point x="784.8" y="0.0"/>
      <point x="807.8000000000001" y="21.999999999999996"/>
      <point x="807.8000000000001" y="57.6" type="curve" smooth="yes"/>
      <point x="807.8000000000001" y="94.8"/>
      <point x="791.8000000000001" y="113.79999999999998"/>
      <point x="754.0" y="121.40000000000002" type="curve" smooth="yes"/>
      <point x="680.2" y="134.0" type="line" smooth="yes"/>
      <point x="644.3999999999999" y="141.0"/>
      <point x="629.5999999999999" y="163.80000000000004"/>
      <point x="629.5999999999999" y="195.99999999999997" type="curve" smooth="yes"/>
      <point x="629.5999999999999" y="1278.2" type="line"/>
      <point x="680.8000000000001" y="1278.2" type="line" smooth="yes"/>
      <point x="890.2" y="1278.2"/>
      <point x="1034.4" y="1129.2446194225722"/>
      <point x="1034.4" y="892.5999999999999" type="curve" smooth="yes"/>
      <point x="1034.4" y="687.1080808080807"/>
      <point x="906.6" y="580.1999999999999"/>
      <point x="740.4" y="580.1999999999999" type="curve" smooth="yes"/>
      <point x="642.4" y="580.1999999999999"/>
      <point x="566.0" y="603.5999999999999"/>
      <point x="491.59999999999997" y="656.0" type="curve"/>
      <point x="477.20000000000005" y="548.5999999999999" type="line"/>
      <point x="571.4" y="489.40000000000003"/>
      <point x="693.4" y="455.4"/>
      <point x="846.4" y="455.4" type="curve" smooth="yes"/>
      <point x="1194.8" y="455.4"/>
      <point x="1410.8000000000002" y="622.0381286791284"/>
    </contour>
  </outline>
</glyph>
<glyph name="Q" format="2">
  <advance width="1603.2"/>
  <unicode hex="0051"/>
  <outline>
    <contour>
      <point x="794.9999999999999" y="1437.8" type="curve" smooth="yes"/>
      <point x="350.4" y="1437.8"/>
      <point x="69.19999999999999" y="1121.8000000000002"/>
      <point x="69.19999999999999" y="708.4" type="curve" smooth="yes"/>
      <point x="69.19999999999999" y="263.6"/>
      <point x="353.6" y="-38.8"/>
      <point x="803.2" y="-38.8" type="curve" smooth="yes"/>
      <point x="1249.0000000000002" y="-38.8"/>
      <point x="1530.3999999999999" y="277.19999999999993"/>
      <point x="1530.3999999999999" y="690.8" type="curve" smooth="yes"/>
      <point x="1530.3999999999999" y="1135.4"/>
      <point x="1246.4" y="1437.8"/>
    </contour>
    <contour>
      <point x="1134.0" y="465.2" type="curve" smooth="yes"/>
      <point x="1134.0" y="221.0"/>
      <point x="1042.6" y="84.19999999999999"/>
      <point x="888.4" y="84.19999999999999" type="curve" smooth="yes"/>
      <point x="679.6" y="84.19999999999999"/>
      <point x="472.4" y="490.4"/>
      <point x="472.4" y="933.8" type="curve" smooth="yes"/>
      <point x="472.4" y="1177.3999999999999"/>
      <point x="564.0" y="1314.0"/>
      <point x="717.0000000000001" y="1314.0" type="curve" smooth="yes"/>
      <point x="926.1999999999999" y="1314.0"/>
      <point x="1134.0" y="908.8"/>
    </contour>
    <contour>
      <point x="821.0000000000001" y="341.2" type="curve" smooth="yes"/>
      <point x="940.9950919771618" y="-102.18084994660491"/>
      <point x="1138.3499275343227" y="-276.2"/>
      <point x="1373.0" y="-276.2" type="curve" smooth="yes"/>
      <point x="1451.3999999999999" y="-276.2"/>
      <point x="1486.3999999999999" y="-256.59999999999997"/>
      <point x="1506.8" y="-209.59999999999997" type="curve" smooth="yes"/>
      <point x="1553.1999999999998" y="-102.80000000000001" type="line" smooth="yes"/>
      <point x="1565.1999999999998" y="-75.60000000000001"/>
      <point x="1571.6" y="-55.8"/>
      <point x="1571.6000000000001" y="-38.599999999999994" type="curve" smooth="yes"/>
      <point x="1571.6000000000001" y="-14.000000000000004"/>
      <point x="1559.0000000000002" y="-0.6000000000000005"/>
      <point x="1536.1999999999998" y="-2.5999999999999988" type="curve" smooth="yes"/>
      <point x="1489.3999999999999" y="-7.799999999999998"/>
      <point x="1475.6" y="-49.2"/>
      <point x="1372.2" y="-49.2" type="curve" smooth="yes"/>
      <point x="1169.0" y="-49.2"/>
      <point x="1043.129398450504" y="43.42080288518887"/>
      <point x="937.6" y="376.0" type="curve" smooth="yes"/>
      <point x="924.350471318885" y="418.7584917795685"/>
      <point x="899.6" y="445.6"/>
      <point x="857.2" y="433.59999999999997" type="curve" smooth="yes"/>
      <point x="816.6782608695652" y="422.40000000000003"/>
      <point x="808.8026792687272" y="386.1887470713455"/>
    </contour>
  </outline>
</glyph>
<glyph name="R" format="2">
  <advance width="1585.8"/>
  <unicode hex="0052"/>
  <anchor x="770.8" y="1476.0" name="center"/>
  <outline>
    <contour>
      <point x="1439.2" y="914.0" type="curve" smooth="yes"/>
      <point x="1439.2" y="1200.8"/>
      <point x="1179.6000000000001" y="1400.0"/>
      <point x="707.8000000000001" y="1400.0" type="curve" smooth="yes"/>
      <point x="170.6" y="1400.0" type="line" smooth="yes"/>
      <point x="119.8" y="1400.0"/>
      <point x="96.8" y="1377.9999999999998"/>
      <point x="96.8" y="1342.4000000000003" type="curve" smooth="yes"/>
      <point x="96.8" y="1312.4"/>
      <point x="110.4" y="1291.2"/>
      <point x="144.2" y="1279.4" type="curve" smooth="yes"/>
      <point x="191.4" y="1266.0" type="line" smooth="yes"/>
      <point x="224.79999999999998" y="1254.8000000000002"/>
      <point x="242.0" y="1235.4"/>
      <point x="242.0" y="1204.0" type="curve" smooth="yes"/>
      <point x="242.0" y="195.99999999999997" type="line" smooth="yes"/>
      <point x="242.0" y="164.60000000000002"/>
      <point x="224.79999999999998" y="145.20000000000002"/>
      <point x="191.4" y="134.0" type="curve" smooth="yes"/>
      <point x="144.2" y="120.6" type="line" smooth="yes"/>
      <point x="110.4" y="108.8"/>
      <point x="96.8" y="87.6"/>
      <point x="96.8" y="57.6" type="curve" smooth="yes"/>
      <point x="96.8" y="21.999999999999996"/>
      <point x="119.8" y="0.0"/>
      <point x="170.6" y="0.0" type="curve" smooth="yes"/>
      <point x="693.6" y="0.0" type="line" smooth="yes"/>
      <point x="744.4" y="0.0"/>
      <point x="767.4" y="21.999999999999996"/>
      <point x="767.4" y="57.6" type="curve" smooth="yes"/>
      <point x="767.4" y="87.60000000000001"/>
      <point x="757.0" y="104.19999999999999"/>
      <point x="720.0" y="120.59999999999998" type="curve" smooth="yes"/>
      <point x="671.8" y="133.99999999999997" type="line" smooth="yes"/>
      <point x="641.6" y="146.59999999999997"/>
      <point x="629.1999999999999" y="164.60000000000002"/>
      <point x="629.1999999999999" y="195.99999999999997" type="curve" smooth="yes"/>
      <point x="629.1999999999999" y="1287.6000000000001" type="line"/>
      <point x="692.6" y="1287.6000000000001" type="line" smooth="yes"/>
      <point x="899.6153846153846" y="1287.6000000000001"/>
      <point x="1042.0" y="1127.6"/>
      <point x="1042.0" y="907.0" type="curve" smooth="yes"/>
      <point x="1042.0" y="713.2474820143884"/>
      <point x="938.8" y="618.4000000000001"/>
      <point x="762.2" y="618.4000000000001" type="curve" smooth="yes"/>
      <point x="666.8" y="618.4000000000001"/>
      <point x="593.5999999999999" y="638.5999999999999"/>
      <point x="539.0000000000001" y="677.6" type="curve"/>
      <point x="535.6" y="567.9999999999999" type="line"/>
      <point x="605.2" y="525.1999999999999"/>
      <point x="705.2" y="497.40000000000003"/>
      <point x="829.2" y="497.40000000000003" type="curve" smooth="yes"/>
      <point x="928.8" y="497.40000000000003"/>
      <point x="989.7303445882851" y="523.8611749237564"/>
      <point x="1084.2" y="541.1999999999999" type="curve" smooth="yes"/>
      <point x="1304.4789768503977" y="581.0768668072143"/>
      <point x="1439.2" y="727.4"/>
    </contour>
    <contour>
      <point x="806.4" y="545.6" type="line"/>
      <point x="1009.0" y="174.8" type="line" smooth="yes"/>
      <point x="1027.2" y="141.6"/>
      <point x="1024.0000000000002" y="126.4"/>
      <point x="997.8" y="111.2" type="curve" smooth="yes"/>
      <point x="977.1999999999999" y="102.80000000000001" type="line" smooth="yes"/>
      <point x="956.3999999999999" y="90.39999999999999"/>
      <point x="947.8000000000001" y="76.39999999999999"/>
      <point x="947.8000000000001" y="57.6" type="curve" smooth="yes"/>
      <point x="947.8000000000001" y="20.400000000000002"/>
      <point x="972.1999999999999" y="0.0"/>
      <point x="1018.9999999999999" y="0.0" type="curve" smooth="yes"/>
      <point x="1479.8000000000002" y="0.0" type="line" smooth="yes"/>
      <point x="1530.7999999999997" y="0.0"/>
      <point x="1554.3999999999999" y="22.0"/>
      <point x="1554.3999999999999" y="57.6" type="curve" smooth="yes"/>
      <point x="1554.3999999999999" y="87.6"/>
      <point x="1540.8" y="105.4"/>
      <point x="1503.1999999999998" y="119.80000000000004" type="curve" smooth="yes"/>
      <point x="1465.6000000000001" y="133.60000000000002"/>
      <point x="1447.4" y="151.0"/>
      <point x="1423.2" y="191.80000000000004" type="curve" smooth="yes"/>
      <point x="1183.0" y="588.1999999999999" type="line"/>
    </contour>
  </outline>
</glyph>
<glyph name="S" format="2">
  <advance width="1258.3999999999999"/>
  <unicode hex="0053"/>
  <anchor x="621.2" y="1479.0" name="center"/>
  <outline>
    <contour>
      <point x="673.5999999999999" y="-30.6" type="curve" smooth="yes"/>
      <point x="989.0" y="-30.6"/>
      <point x="1175.0" y="156.0"/>
      <point x="1175.3999999999999" y="388.8" type="curve" smooth="yes"/>
      <point x="1175.6000000047468" y="608.8000008354519"/>
      <point x="1063.9628668371713" y="738.9966465387621"/>
      <point x="757.1999999999999" y="847.8000000000001" type="curve" smooth="yes"/>
      <point x="475.21952908729173" y="948.3924205290581"/>
      <point x="424.8" y="1017.2788511749345"/>
      <point x="424.8" y="1117.8" type="curve" smooth="yes"/>
      <point x="424.8" y="1226.6000000000001"/>
      <point x="498.19999999999993" y="1300.9999999999998"/>
      <point x="619.0" y="1300.9999999999998" type="curve" smooth="yes"/>
      <point x="763.8" y="1300.9999999999998"/>
      <point x="920.8000000000001" y="1220.1999999999998"/>
      <point x="1045.6" y="971.8" type="curve" smooth="yes"/>
      <point x="1064.8" y="934.1999999999999"/>
      <point x="1095.0" y="917.9999999999999"/>
      <point x="1133.6" y="930.8" type="curve" smooth="yes"/>
      <point x="1171.2" y="943.6"/>
      <point x="1186.8" y="979.1999999999999"/>
      <point x="1175.3999999999999" y="1021.3999999999999" type="curve" smooth="yes"/>
      <point x="1083.8" y="1348.0000000000002" type="line" smooth="yes"/>
      <point x="1065.9999999999998" y="1411.7999999999997"/>
      <point x="1042.0" y="1430.6"/>
      <point x="1006.2000000000002" y="1430.6" type="curve" smooth="yes"/>
      <point x="943.8000000000001" y="1430.6"/>
      <point x="931.0000000000001" y="1360.3999999999999"/>
      <point x="884.0" y="1360.3999999999999" type="curve" smooth="yes"/>
      <point x="828.0" y="1360.3999999999999"/>
      <point x="746.8" y="1426.1999999999998"/>
      <point x="574.6" y="1426.2" type="curve" smooth="yes"/>
      <point x="276.2" y="1426.2"/>
      <point x="84.0" y="1250.3999999999999"/>
      <point x="84.0" y="1000.0" type="curve" smooth="yes"/>
      <point x="84.0" y="755.9980997624702"/>
      <point x="198.2775069289086" y="618.046623660277"/>
      <point x="506.5999999999999" y="523.2" type="curve" smooth="yes"/>
      <point x="794.9228940146236" y="434.6728525325602"/>
      <point x="848.6000000701022" y="371.00000490715155"/>
      <point x="848.2" y="266.2" type="curve" smooth="yes"/>
      <point x="847.8000000000001" y="159.60000000000002"/>
      <point x="770.5999999999999" y="94.8"/>
      <point x="646.8" y="94.8" type="curve" smooth="yes"/>
      <point x="510.79999999999995" y="94.8"/>
      <point x="384.82105578054546" y="163.95372355924073"/>
      <point x="266.6" y="392.8" type="curve" smooth="yes"/>
      <point x="244.39999999999998" y="435.0"/>
      <point x="216.0" y="449.8"/>
      <point x="177.39999999999998" y="436.19999999999993" type="curve" smooth="yes"/>
      <point x="141.0" y="423.40000000000003"/>
      <point x="125.6" y="397.8"/>
      <point x="131.4" y="364.2" type="curve" smooth="yes"/>
      <point x="193.99999999999997" y="32.0" type="line" smooth="yes"/>
      <point x="201.99999999999997" y="-15.8"/>
      <point x="225.6" y="-34.8"/>
      <point x="260.20000000000005" y="-34.8" type="curve" smooth="yes"/>
      <point x="315.2" y="-34.8"/>
      <point x="339.8" y="35.599999999999994"/>
      <point x="397.0" y="35.599999999999994" type="curve" smooth="yes"/>
      <point x="438.7441441441442" y="35.599999999999994"/>
      <point x="522.022822822823" y="-30.6"/>
    </contour>
  </outline>
</glyph>
<glyph name="T" format="2">
  <advance width="1446.0"/>
  <unicode hex="0054"/>
  <outline>
    <contour>
      <point x="380.8" y="1400.0" type="line" smooth="yes"/>
      <point x="296.99999999999994" y="1400.0"/>
      <point x="261.6" y="1434.1999999999998"/>
      <point x="213.39999999999998" y="1434.1999999999998" type="curve" smooth="yes"/>
      <point x="158.4" y="1434.1999999999998"/>
      <point x="134.6" y="1409.6000000000001"/>
      <point x="117.8" y="1347.0" type="curve" smooth="yes"/>
      <point x="52.4" y="1020.0" type="line" smooth="yes"/>
      <point x="43.6" y="974.0"/>
      <point x="60.599999999999994" y="943.8000000000001"/>
      <point x="100.0" y="936.8000000000001" type="curve" smooth="yes"/>
      <point x="137.0" y="929.0"/>
      <point x="165.0" y="940.2"/>
      <point x="184.60000000000002" y="980.4" type="curve" smooth="yes"/>
      <point x="295.20000000000005" y="1213.3999999999999"/>
      <point x="344.2" y="1271.0"/>
      <point x="442.8" y="1271.0" type="curve" smooth="yes"/>
      <point x="529.4" y="1271.0" type="line"/>
      <point x="529.4" y="195.99999999999997" type="line" smooth="yes"/>
      <point x="529.4" y="164.60000000000002"/>
      <point x="512.1999999999999" y="145.2"/>
      <point x="478.8" y="134.0" type="curve" smooth="yes"/>
      <point x="431.59999999999997" y="120.6" type="line" smooth="yes"/>
      <point x="397.8" y="108.8"/>
      <point x="384.2" y="87.6"/>
      <point x="384.2" y="57.599999999999994" type="curve" smooth="yes"/>
      <point x="384.2" y="21.999999999999996"/>
      <point x="407.20000000000005" y="0.0"/>
      <point x="458.0" y="0.0" type="curve" smooth="yes"/>
      <point x="988.0000000000001" y="0.0" type="line" smooth="yes"/>
      <point x="1038.8" y="0.0"/>
      <point x="1061.8" y="22.0"/>
      <point x="1061.8" y="57.6" type="curve" smooth="yes"/>
      <point x="1061.8" y="87.59999999999998"/>
      <point x="1048.2" y="108.8"/>
      <point x="1014.4000000000002" y="120.6" type="curve" smooth="yes"/>
      <point x="967.1999999999999" y="134.0" type="line" smooth="yes"/>
      <point x="933.8000000000001" y="145.2"/>
      <point x="916.6" y="164.60000000000002"/>
      <point x="916.6" y="195.99999999999997" type="curve" smooth="yes"/>
      <point x="916.6" y="1271.0" type="line"/>
      <point x="1003.1999999999999" y="1271.0" type="line" smooth="yes"/>
      <point x="1101.8" y="1271.0"/>
      <point x="1150.8" y="1213.4"/>
      <point x="1261.3999999999999" y="980.4" type="curve" smooth="yes"/>
      <point x="1281.0" y="940.2"/>
      <point x="1309.0" y="929.0"/>
      <point x="1346.0" y="936.8000000000001" type="curve" smooth="yes"/>
      <point x="1385.4" y="943.8000000000001"/>
      <point x="1402.4" y="974.0"/>
      <point x="1393.6" y="1020.0" type="curve" smooth="yes"/>
      <point x="1328.2" y="1347.0" type="line" smooth="yes"/>
      <point x="1311.3999999999999" y="1409.6000000000001"/>
      <point x="1287.5999999999997" y="1434.2"/>
      <point x="1232.6000000000001" y="1434.2" type="curve" smooth="yes"/>
      <point x="1184.4" y="1434.2"/>
      <point x="1149.0" y="1400.0"/>
      <point x="1065.2000000000003" y="1400.0" type="curve" smooth="yes"/>
    </contour>
  </outline>
</glyph>
<glyph name="U" format="2">
  <advance width="1521.0"/>
  <unicode hex="0055"/>
  <anchor x="868.2" y="1460.0" name="center"/>
  <outline>
    <contour>
      <point x="1194.8" y="609.5999999999999" type="line" smooth="yes"/>
      <point x="1198.3999999999999" y="556.8000000000001"/>
      <point x="1202.2" y="503.40000000000003"/>
      <point x="1203.0" y="409.6" type="curve" smooth="yes"/>
      <point x="1205.2" y="218.8"/>
      <point x="1079.8" y="102.4"/>
      <point x="876.8" y="102.4" type="curve" smooth="yes"/>
      <point x="696.0" y="102.4"/>
      <point x="587.4" y="201.60000000000002"/>
      <point x="589.2" y="428.79999999999995" type="curve" smooth="yes"/>
      <point x="589.8000000000001" y="482.0"/>
      <point x="591.3999999999999" y="554.4000000000001"/>
      <point x="596.3999999999999" y="641.6" type="curve" smooth="yes"/>
      <point x="630.0" y="1201.8" type="line" smooth="yes"/>
      <point x="632.0" y="1240.6"/>
      <point x="648.1999999999999" y="1258.8000000000002"/>
      <point x="684.1999999999999" y="1266.6" type="curve" smooth="yes"/>
      <point x="730.2" y="1276.6000000000001" type="line" smooth="yes"/>
      <point x="775.4" y="1287.0"/>
      <point x="795.0" y="1306.6"/>
      <point x="795.0" y="1341.6" type="curve" smooth="yes"/>
      <point x="795.0" y="1376.3999999999999"/>
      <point x="769.8" y="1400.0"/>
      <point x="724.6" y="1400.0" type="curve" smooth="yes"/>
      <point x="143.0" y="1400.0" type="line" smooth="yes"/>
      <point x="97.6" y="1400.0"/>
      <point x="72.4" y="1376.3999999999999"/>
      <point x="72.4" y="1341.6" type="curve" smooth="yes"/>
      <point x="72.4" y="1306.3999999999999"/>
      <point x="93.80000000000001" y="1285.3999999999999"/>
      <point x="137.2" y="1275.8" type="curve" smooth="yes"/>
      <point x="181.6" y="1266.6" type="line" smooth="yes"/>
      <point x="229.4" y="1256.4"/>
      <point x="244.4" y="1239.1999999999998"/>
      <point x="241.6" y="1200.6000000000001" type="curve" smooth="yes"/>
      <point x="207.4" y="644.4" type="line" smooth="yes"/>
      <point x="198.8" y="512.4"/>
      <point x="195.4" y="445.2"/>
      <point x="195.0" y="404.8" type="curve" smooth="yes"/>
      <point x="192.99999332782383" y="134.39983986777196"/>
      <point x="390.1325670498084" y="-38.0"/>
      <point x="782.3999999999999" y="-38.0" type="curve" smooth="yes"/>
      <point x="1166.8" y="-38.0"/>
      <point x="1347.2" y="152.4"/>
      <point x="1344.4" y="406.40000000000003" type="curve" smooth="yes"/>
      <point x="1343.6000000000001" y="478.0"/>
      <point x="1340.6000000000001" y="542.8"/>
      <point x="1334.4" y="612.4" type="curve" smooth="yes"/>
      <point x="1295.8" y="1144.4" type="line" smooth="yes"/>
      <point x="1290.8000000000002" y="1209.0"/>
      <point x="1308.8" y="1247.2"/>
      <point x="1380.2" y="1267.6" type="curve" smooth="yes"/>
      <point x="1416.0" y="1276.3999999999999" type="line" smooth="yes"/>
      <point x="1460.6000000000001" y="1289.7999999999997"/>
      <point x="1480.8000000000002" y="1307.3999999999999"/>
      <point x="1480.8000000000002" y="1341.8" type="curve" smooth="yes"/>
      <point x="1480.8000000000002" y="1376.3999999999999"/>
      <point x="1455.6000000000001" y="1400.0"/>
      <point x="1410.3999999999999" y="1400.0" type="curve" smooth="yes"/>
      <point x="1044.4" y="1400.0" type="line" smooth="yes"/>
      <point x="1000.0" y="1400.0"/>
      <point x="974.8" y="1376.3999999999999"/>
      <point x="974.8" y="1341.8" type="curve" smooth="yes"/>
      <point x="974.8" y="1307.6"/>
      <point x="991.6" y="1287.8"/>
      <point x="1038.8" y="1275.8" type="curve" smooth="yes"/>
      <point x="1076.4" y="1267.2" type="line" smooth="yes"/>
      <point x="1130.8000000000002" y="1253.6"/>
      <point x="1153.4" y="1219.8"/>
      <point x="1158.3999999999999" y="1153.4" type="curve" smooth="yes"/>
    </contour>
  </outline>
</glyph>
<glyph name="V" format="2">
  <advance width="1481.0"/>
  <unicode hex="0056"/>
  <outline>
    <contour>
      <point x="998.2" y="1342.4000000000003" type="curve" smooth="yes"/>
      <point x="998.2" y="1312.4"/>
      <point x="1015.0" y="1299.1999999999998"/>
      <point x="1045.4" y="1286.0" type="curve" smooth="yes"/>
      <point x="1088.4" y="1272.3999999999999" type="line" smooth="yes"/>
      <point x="1151.8" y="1244.8000000000002"/>
      <point x="1163.0" y="1208.0000000000002"/>
      <point x="1141.4" y="1142.2" type="curve" smooth="yes"/>
      <point x="798.8000000000001" y="121.2" type="line"/>
      <point x="910.0" y="215.4" type="line"/>
      <point x="586.9999999999999" y="1171.4" type="line" smooth="yes"/>
      <point x="567.0" y="1231.4"/>
      <point x="575.8000000000001" y="1257.2"/>
      <point x="610.6" y="1270.8000000000002" type="curve" smooth="yes"/>
      <point x="659.6" y="1285.2" type="line" smooth="yes"/>
      <point x="692.4000000000001" y="1298.3999999999999"/>
      <point x="707.6" y="1314.0"/>
      <point x="707.6" y="1342.4000000000003" type="curve" smooth="yes"/>
      <point x="707.6" y="1378.0000000000002"/>
      <point x="684.8" y="1400.0"/>
      <point x="633.1999999999999" y="1400.0" type="curve" smooth="yes"/>
      <point x="106.79999999999998" y="1400.0" type="line" smooth="yes"/>
      <point x="55.8" y="1400.0"/>
      <point x="32.2" y="1378.0000000000002"/>
      <point x="32.2" y="1342.4000000000003" type="curve" smooth="yes"/>
      <point x="32.2" y="1315.6000000000001"/>
      <point x="45.60000000000001" y="1295.6000000000001"/>
      <point x="73.0" y="1282.8000000000002" type="curve" smooth="yes"/>
      <point x="106.8" y="1269.3999999999999" type="line" smooth="yes"/>
      <point x="139.20000000000002" y="1254.0000000000002"/>
      <point x="153.79999999999998" y="1237.7999999999997"/>
      <point x="169.39999999999998" y="1192.2" type="curve" smooth="yes"/>
      <point x="512.4" y="195.20000000000002" type="line" smooth="yes"/>
      <point x="524.0" y="160.0"/>
      <point x="532.8" y="131.2"/>
      <point x="532.8" y="108.6" type="curve" smooth="yes"/>
      <point x="532.8" y="58.79999999999999" type="line" smooth="yes"/>
      <point x="532.8" y="19.8"/>
      <point x="556.0" y="0.0"/>
      <point x="590.6" y="0.0" type="curve" smooth="yes"/>
      <point x="896.6" y="0.0" type="line" smooth="yes"/>
      <point x="931.2" y="0.0"/>
      <point x="956.0000000000001" y="20.6"/>
      <point x="956.0000000000001" y="56.400000000000006" type="curve" smooth="yes"/>
      <point x="956.0000000000001" y="107.0" type="line" smooth="yes"/>
      <point x="956.0000000000001" y="141.0"/>
      <point x="962.6" y="168.20000000000002"/>
      <point x="981.5999999999999" y="225.6" type="curve" smooth="yes"/>
      <point x="1282.6" y="1129.6" type="line" smooth="yes"/>
      <point x="1311.2" y="1218.0000000000002"/>
      <point x="1336.8000000000002" y="1251.4"/>
      <point x="1382.8" y="1272.2" type="curve" smooth="yes"/>
      <point x="1415.9999999999998" y="1286.0" type="line" smooth="yes"/>
      <point x="1449.6000000000001" y="1301.0000000000002"/>
      <point x="1463.3999999999999" y="1316.4"/>
      <point x="1463.3999999999999" y="1342.8000000000002" type="curve" smooth="yes"/>
      <point x="1463.3999999999999" y="1378.1999999999998"/>
      <point x="1440.2" y="1400.0"/>
      <point x="1388.8000000000002" y="1400.0" type="curve" smooth="yes"/>
      <point x="1071.8" y="1400.0" type="line" smooth="yes"/>
      <point x="1020.9999999999999" y="1400.0"/>
      <point x="998.2" y="1378.0000000000002"/>
    </contour>
  </outline>
</glyph>
<glyph name="W" format="2">
  <advance width="2184.7999999999997"/>
  <unicode hex="0057"/>
  <anchor x="1220.4" y="1463.0" name="center"/>
  <outline>
    <contour>
      <point x="1044.6" y="1104.3999999999999" type="line"/>
      <point x="726.2" y="107.0" type="line"/>
      <point x="853.6" y="196.0" type="line"/>
      <point x="559.9999999999999" y="1181.0" type="line" smooth="yes"/>
      <point x="543.6" y="1237.8"/>
      <point x="548.8000000000001" y="1268.4"/>
      <point x="582.6" y="1278.0" type="curve" smooth="yes"/>
      <point x="630.2" y="1289.2" type="line" smooth="yes"/>
      <point x="656.9999999999999" y="1297.6000000000001"/>
      <point x="671.6" y="1317.2"/>
      <point x="671.6" y="1343.2" type="curve" smooth="yes"/>
      <point x="671.6" y="1378.0"/>
      <point x="649.0" y="1400.0"/>
      <point x="598.0" y="1400.0" type="curve" smooth="yes"/>
      <point x="87.2" y="1400.0" type="line" smooth="yes"/>
      <point x="37.6" y="1400.0"/>
      <point x="14.200000000000003" y="1378.2"/>
      <point x="14.200000000000003" y="1343.6000000000001" type="curve" smooth="yes"/>
      <point x="14.200000000000003" y="1317.8"/>
      <point x="25.0" y="1296.0000000000002"/>
      <point x="53.60000000000001" y="1285.2" type="curve" smooth="yes"/>
      <point x="92.8" y="1271.0000000000002" type="line" smooth="yes"/>
      <point x="125.19999999999999" y="1258.0"/>
      <point x="140.79999999999995" y="1242.4"/>
      <point x="153.79999999999998" y="1198.6000000000001" type="curve" smooth="yes"/>
      <point x="464.2" y="176.8" type="line" smooth="yes"/>
      <point x="476.4" y="135.0"/>
      <point x="479.8" y="122.40000000000002"/>
      <point x="479.8" y="96.60000000000001" type="curve" smooth="yes"/>
      <point x="479.8" y="58.0" type="line" smooth="yes"/>
      <point x="479.8" y="19.799999999999997"/>
      <point x="503.99999999999994" y="0.0"/>
      <point x="537.8000000000001" y="0.0" type="curve" smooth="yes"/>
      <point x="826.2" y="0.0" type="line" smooth="yes"/>
      <point x="858.8000000000001" y="0.0"/>
      <point x="882.8000000000001" y="19.799999999999997"/>
      <point x="882.8000000000001" y="58.0" type="curve" smooth="yes"/>
      <point x="882.8000000000001" y="96.6" type="line" smooth="yes"/>
      <point x="882.8000000000001" y="139.4"/>
      <point x="888.6" y="167.2"/>
      <point x="901.2" y="201.60000000000002" type="curve" smooth="yes"/>
      <point x="1178.4" y="1079.9999999999998" type="line"/>
    </contour>
    <contour>
      <point x="1730.0" y="1342.4000000000003" type="curve" smooth="yes"/>
      <point x="1730.0" y="1317.3999999999999"/>
      <point x="1741.8000000000002" y="1300.2"/>
      <point x="1769.3999999999999" y="1289.2" type="curve" smooth="yes"/>
      <point x="1807.6" y="1278.0" type="line" smooth="yes"/>
      <point x="1869.0" y="1254.2000000000003"/>
      <point x="1878.8" y="1214.6"/>
      <point x="1860.8" y="1150.2" type="curve" smooth="yes"/>
      <point x="1564.8" y="110.39999999999999" type="line"/>
      <point x="1679.3999999999999" y="194.8" type="line"/>
      <point x="1397.9999999999998" y="1180.1999999999998" type="line" smooth="yes"/>
      <point x="1380.0000000000002" y="1245.2"/>
      <point x="1388.0" y="1266.0"/>
      <point x="1419.7999999999997" y="1275.6000000000001" type="curve" smooth="yes"/>
      <point x="1463.2" y="1285.9999999999998" type="line" smooth="yes"/>
      <point x="1495.8000000000002" y="1297.0"/>
      <point x="1509.6" y="1314.8000000000002"/>
      <point x="1509.6" y="1342.4" type="curve" smooth="yes"/>
      <point x="1509.6" y="1378.0"/>
      <point x="1486.8000000000002" y="1400.0"/>
      <point x="1436.0" y="1400.0" type="curve" smooth="yes"/>
      <point x="941.8" y="1400.0" type="line" smooth="yes"/>
      <point x="892.6" y="1400.0"/>
      <point x="868.1999999999999" y="1378.0"/>
      <point x="868.1999999999999" y="1342.4" type="curve" smooth="yes"/>
      <point x="868.1999999999999" y="1317.6"/>
      <point x="879.2" y="1301.4"/>
      <point x="909.0" y="1289.9999999999998" type="curve" smooth="yes"/>
      <point x="947.4" y="1275.8" type="line" smooth="yes"/>
      <point x="970.0" y="1266.8"/>
      <point x="979.4000000000001" y="1256.2"/>
      <point x="996.4" y="1198.6000000000001" type="curve" smooth="yes"/>
      <point x="1292.6000000000001" y="178.0" type="line" smooth="yes"/>
      <point x="1305.6" y="133.8"/>
      <point x="1307.4" y="119.19999999999999"/>
      <point x="1307.4" y="96.60000000000001" type="curve" smooth="yes"/>
      <point x="1307.4" y="58.0" type="line" smooth="yes"/>
      <point x="1307.4" y="19.8"/>
      <point x="1331.6000000000001" y="0.0"/>
      <point x="1364.4" y="0.0" type="curve" smooth="yes"/>
      <point x="1662.3999999999999" y="0.0" type="line" smooth="yes"/>
      <point x="1694.8" y="0.0"/>
      <point x="1718.8000000000002" y="19.8"/>
      <point x="1718.8000000000002" y="58.0" type="curve" smooth="yes"/>
      <point x="1718.8000000000002" y="96.60000000000001" type="line" smooth="yes"/>
      <point x="1718.8000000000002" y="131.4"/>
      <point x="1723.2" y="150.39999999999998"/>
      <point x="1737.1999999999998" y="201.6" type="curve" smooth="yes"/>
      <point x="1999.4" y="1134.4" type="line" smooth="yes"/>
      <point x="2022.0000000000002" y="1216.4"/>
      <point x="2050.4" y="1249.8000000000002"/>
      <point x="2097.0" y="1272.2" type="curve" smooth="yes"/>
      <point x="2129.3999999999996" y="1286.0" type="line" smooth="yes"/>
      <point x="2165.7999999999997" y="1302.6000000000001"/>
      <point x="2176.4" y="1316.2"/>
      <point x="2176.4" y="1342.6000000000001" type="curve" smooth="yes"/>
      <point x="2176.4" y="1377.8"/>
      <point x="2153.4" y="1400.0"/>
      <point x="2102.8" y="1400.0" type="curve" smooth="yes"/>
      <point x="1803.6" y="1400.0" type="line" smooth="yes"/>
      <point x="1753.6" y="1400.0"/>
      <point x="1730.0" y="1378.0000000000002"/>
    </contour>
  </outline>
</glyph>
<glyph name="X" format="2">
  <advance width="1488.9999999999998"/>
  <unicode hex="0058"/>
  <outline>
    <contour>
      <point x="1300.6" y="216.8" type="curve" smooth="yes"/>
      <point x="645.0" y="1193.1999999999998" type="line" smooth="yes"/>
      <point x="613.2" y="1241.4"/>
      <point x="618.1999999999999" y="1263.4"/>
      <point x="659.9999999999999" y="1274.3999999999999" type="curve" smooth="yes"/>
      <point x="695.8" y="1283.6000000000001" type="line" smooth="yes"/>
      <point x="723.8" y="1292.1999999999998"/>
      <point x="734.1999999999999" y="1311.6"/>
      <point x="734.1999999999999" y="1342.4" type="curve" smooth="yes"/>
      <point x="734.1999999999999" y="1377.4"/>
      <point x="714.5999999999999" y="1400.0"/>
      <point x="663.0" y="1400.0" type="curve" smooth="yes"/>
      <point x="110.19999999999999" y="1400.0" type="line" smooth="yes"/>
      <point x="59.2" y="1400.0"/>
      <point x="35.6" y="1378.2"/>
      <point x="35.6" y="1342.4000000000003" type="curve" smooth="yes"/>
      <point x="35.6" y="1312.8000000000002"/>
      <point x="47.199999999999996" y="1296.6000000000001"/>
      <point x="87.4" y="1279.3999999999999" type="curve" smooth="yes"/>
      <point x="135.0" y="1261.9999999999998"/>
      <point x="152.6" y="1245.0"/>
      <point x="185.4" y="1196.2" type="curve" smooth="yes"/>
      <point x="830.6" y="239.2" type="line" smooth="yes"/>
      <point x="870.0000000000001" y="179.60000000000002"/>
      <point x="863.8" y="140.2"/>
      <point x="808.6" y="123.80000000000001" type="curve" smooth="yes"/>
      <point x="764.1999999999999" y="108.6"/>
      <point x="748.0" y="90.4"/>
      <point x="748.0" y="57.19999999999999" type="curve" smooth="yes"/>
      <point x="748.0" y="21.6"/>
      <point x="771.5999999999999" y="0.0"/>
      <point x="822.4000000000001" y="0.0" type="curve" smooth="yes"/>
      <point x="1399.0" y="0.0" type="line" smooth="yes"/>
      <point x="1449.8" y="0.0"/>
      <point x="1473.4" y="21.800000000000004"/>
      <point x="1473.4" y="57.6" type="curve" smooth="yes"/>
      <point x="1473.4" y="87.0"/>
      <point x="1454.0" y="107.0"/>
      <point x="1420.6" y="120.60000000000002" type="curve" smooth="yes"/>
      <point x="1363.8" y="138.79999999999998"/>
      <point x="1345.0" y="151.0"/>
    </contour>
    <contour>
      <point x="861.9999999999999" y="687.6" type="line"/>
      <point x="1189.2" y="1116.0000000000002" type="line" smooth="yes"/>
      <point x="1262.3999999999999" y="1211.6"/>
      <point x="1293.8" y="1250.0000000000002"/>
      <point x="1345.8" y="1272.8000000000002" type="curve" smooth="yes"/>
      <point x="1390.6000000000001" y="1294.0"/>
      <point x="1413.6" y="1314.0"/>
      <point x="1413.6" y="1343.8" type="curve" smooth="yes"/>
      <point x="1413.6" y="1379.6"/>
      <point x="1390.0" y="1400.0"/>
      <point x="1339.2" y="1400.0" type="curve" smooth="yes"/>
      <point x="1026.4" y="1400.0" type="line" smooth="yes"/>
      <point x="977.6000000000001" y="1400.0"/>
      <point x="955.6" y="1378.0"/>
      <point x="955.6" y="1342.4" type="curve" smooth="yes"/>
      <point x="955.6" y="1312.2"/>
      <point x="973.2" y="1292.0"/>
      <point x="998.9999999999999" y="1281.0" type="curve" smooth="yes"/>
      <point x="1031.7999999999997" y="1270.6" type="line" smooth="yes"/>
      <point x="1082.8000000000002" y="1252.2"/>
      <point x="1088.8000000000002" y="1215.2"/>
      <point x="1043.4" y="1155.0" type="curve" smooth="yes"/>
      <point x="723.0000000000001" y="729.4" type="line"/>
    </contour>
    <contour>
      <point x="615.2" y="731.1999999999999" type="line"/>
      <point x="270.2" y="286.4" type="line" smooth="yes"/>
      <point x="210.60000000000002" y="209.2"/>
      <point x="167.99999999999997" y="159.59999999999997"/>
      <point x="85.6" y="121.60000000000001" type="curve" smooth="yes"/>
      <point x="42.400000000000006" y="101.2"/>
      <point x="29.0" y="84.4"/>
      <point x="29.0" y="57.79999999999999" type="curve" smooth="yes"/>
      <point x="29.0" y="22.0"/>
      <point x="52.59999999999999" y="0.0"/>
      <point x="102.6" y="0.0" type="curve" smooth="yes"/>
      <point x="416.2" y="0.0" type="line" smooth="yes"/>
      <point x="464.20000000000005" y="0.0"/>
      <point x="487.0" y="22.799999999999997"/>
      <point x="487.0" y="57.59999999999999" type="curve" smooth="yes"/>
      <point x="487.0" y="86.19999999999999"/>
      <point x="472.6000000000001" y="101.59999999999998"/>
      <point x="444.4" y="114.19999999999999" type="curve" smooth="yes"/>
      <point x="417.20000000000005" y="122.2" type="line" smooth="yes"/>
      <point x="370.2" y="139.8"/>
      <point x="358.6" y="172.79999999999998"/>
      <point x="408.8" y="237.79999999999998" type="curve" smooth="yes"/>
      <point x="753.4000000000001" y="681.4" type="line"/>
    </contour>
  </outline>
</glyph>
<glyph name="Y" format="2">
  <advance width="1403.8"/>
  <unicode hex="0059"/>
  <anchor x="805.4" y="1452.0" name="center"/>
  <outline>
    <contour>
      <point x="882.0" y="438.2" type="line"/>
      <point x="1216.3999999999999" y="1128.4" type="line" smooth="yes"/>
      <point x="1266.3999999999999" y="1232.6"/>
      <point x="1292.6" y="1258.1999999999998"/>
      <point x="1331.8" y="1276.8" type="curve" smooth="yes"/>
      <point x="1347.4" y="1284.6000000000001" type="line" smooth="yes"/>
      <point x="1376.6000000000001" y="1298.8"/>
      <point x="1387.9999999999998" y="1315.0"/>
      <point x="1387.9999999999998" y="1342.4" type="curve" smooth="yes"/>
      <point x="1387.9999999999998" y="1378.0"/>
      <point x="1364.2" y="1400.0"/>
      <point x="1314.0" y="1400.0" type="curve" smooth="yes"/>
      <point x="1019.5999999999999" y="1400.0" type="line" smooth="yes"/>
      <point x="968.8000000000001" y="1400.0"/>
      <point x="945.1999999999999" y="1378.2"/>
      <point x="945.1999999999999" y="1342.4" type="curve" smooth="yes"/>
      <point x="945.1999999999999" y="1312.2"/>
      <point x="961.8000000000001" y="1292.6"/>
      <point x="985.2" y="1283.4" type="curve" smooth="yes"/>
      <point x="1022.3999999999999" y="1272.3999999999999" type="line" smooth="yes"/>
      <point x="1086.2" y="1249.3999999999999"/>
      <point x="1097.2" y="1202.4"/>
      <point x="1068.8000000000002" y="1142.6" type="curve" smooth="yes"/>
      <point x="746.8000000000001" y="477.6" type="line"/>
      <point x="876.1999999999999" y="541.2000000000002" type="line"/>
      <point x="581.6" y="1183.8" type="line" smooth="yes"/>
      <point x="558.2" y="1237.3999999999999"/>
      <point x="564.6" y="1257.2"/>
      <point x="610.1999999999999" y="1270.8" type="curve" smooth="yes"/>
      <point x="646.8000000000001" y="1279.9999999999998" type="line" smooth="yes"/>
      <point x="682.2" y="1290.3999999999999"/>
      <point x="697.6" y="1311.4"/>
      <point x="697.6" y="1342.4000000000003" type="curve" smooth="yes"/>
      <point x="697.6" y="1378.2"/>
      <point x="673.0" y="1400.0"/>
      <point x="621.8000000000001" y="1400.0" type="curve" smooth="yes"/>
      <point x="98.80000000000001" y="1400.0" type="line" smooth="yes"/>
      <point x="47.79999999999999" y="1400.0"/>
      <point x="24.2" y="1378.2"/>
      <point x="24.2" y="1342.4000000000003" type="curve" smooth="yes"/>
      <point x="24.2" y="1316.6"/>
      <point x="37.400000000000006" y="1294.8000000000002"/>
      <point x="67.0" y="1283.2" type="curve" smooth="yes"/>
      <point x="95.80000000000001" y="1272.2" type="line" smooth="yes"/>
      <point x="125.60000000000001" y="1260.6"/>
      <point x="139.6" y="1247.3999999999999"/>
      <point x="164.39999999999998" y="1197.4" type="curve" smooth="yes"/>
      <point x="574.6" y="391.2" type="line"/>
    </contour>
    <contour>
      <point x="526.4" y="515.3999999999999" type="line"/>
      <point x="526.4" y="195.99999999999997" type="line" smooth="yes"/>
      <point x="526.4" y="164.60000000000002"/>
      <point x="509.20000000000005" y="145.2"/>
      <point x="475.80000000000007" y="134.0" type="curve" smooth="yes"/>
      <point x="428.6" y="120.6" type="line" smooth="yes"/>
      <point x="394.8" y="108.80000000000003"/>
      <point x="381.20000000000005" y="87.6"/>
      <point x="381.20000000000005" y="57.6" type="curve" smooth="yes"/>
      <point x="381.20000000000005" y="21.999999999999996"/>
      <point x="404.2" y="0.0"/>
      <point x="455.0" y="0.0" type="curve" smooth="yes"/>
      <point x="985.0" y="0.0" type="line" smooth="yes"/>
      <point x="1035.8000000000002" y="0.0"/>
      <point x="1058.8" y="21.999999999999996"/>
      <point x="1058.8" y="57.59999999999999" type="curve" smooth="yes"/>
      <point x="1058.8" y="87.6"/>
      <point x="1045.2" y="108.8"/>
      <point x="1011.4" y="120.6" type="curve" smooth="yes"/>
      <point x="964.1999999999999" y="134.0" type="line" smooth="yes"/>
      <point x="930.8" y="145.20000000000002"/>
      <point x="913.6" y="164.60000000000002"/>
      <point x="913.6" y="196.0" type="curve" smooth="yes"/>
      <point x="913.6" y="515.3999999999999" type="line"/>
    </contour>
  </outline>
</glyph>
<glyph name="Z" format="2">
  <advance width="1308.2"/>
  <unicode hex="005A"/>
  <anchor x="725.4" y="1465.2" name="center"/>
  <outline>
    <contour>
      <point x="1197.3999999999999" y="1257.6" type="line" smooth="yes"/>
      <point x="1219.1999999999998" y="1293.4"/>
      <point x="1230.8" y="1321.3999999999999"/>
      <point x="1230.8" y="1342.2" type="curve" smooth="yes"/>
      <point x="1230.8" y="1378.6"/>
      <point x="1206.8" y="1400.0"/>
      <point x="1162.0" y="1400.0" type="curve" smooth="yes"/>
      <point x="404.4" y="1400.0" type="line" smooth="yes"/>
      <point x="323.59999999999997" y="1400.0"/>
      <point x="284.8" y="1436.0"/>
      <point x="238.0" y="1436.0" type="curve" smooth="yes"/>
      <point x="183.60000000000002" y="1436.0"/>
      <point x="155.6" y="1409.0"/>
      <point x="142.4" y="1346.4" type="curve" smooth="yes"/>
      <point x="90.39999999999999" y="1067.3999999999999" type="line" smooth="yes"/>
      <point x="82.0" y="1019.4"/>
      <point x="102.0" y="993.1999999999999"/>
      <point x="141.60000000000002" y="987.0" type="curve" smooth="yes"/>
      <point x="173.6" y="982.1999999999999"/>
      <point x="205.6" y="990.6"/>
      <point x="226.20000000000002" y="1031.8000000000002" type="curve" smooth="yes"/>
      <point x="253.2" y="1092.3999999999999" type="line" smooth="yes"/>
      <point x="315.4" y="1236.0"/>
      <point x="378.2" y="1277.1999999999998"/>
      <point x="493.20000000000005" y="1277.1999999999998" type="curve" smooth="yes"/>
      <point x="869.2" y="1277.1999999999998" type="line"/>
      <point x="828.2" y="1361.6" type="line"/>
      <point x="65.8" y="141.79999999999998" type="line" smooth="yes"/>
      <point x="44.199999999999996" y="107.19999999999999"/>
      <point x="34.400000000000006" y="80.6"/>
      <point x="34.400000000000006" y="58.599999999999994" type="curve" smooth="yes"/>
      <point x="34.400000000000006" y="22.0"/>
      <point x="55.60000000000001" y="0.0"/>
      <point x="101.60000000000001" y="0.0" type="curve" smooth="yes"/>
      <point x="912.8" y="0.0" type="line" smooth="yes"/>
      <point x="994.7999999999998" y="0.0"/>
      <point x="1031.4" y="-32.8"/>
      <point x="1078.8" y="-32.8" type="curve" smooth="yes"/>
      <point x="1133.6" y="-32.8"/>
      <point x="1159.9999999999998" y="-4.800000000000002"/>
      <point x="1173.6000000000001" y="55.599999999999994" type="curve" smooth="yes"/>
      <point x="1247.6" y="390.59999999999997" type="line" smooth="yes"/>
      <point x="1257.0" y="433.00000000000006"/>
      <point x="1241.2" y="463.0"/>
      <point x="1201.6" y="471.4" type="curve" smooth="yes"/>
      <point x="1164.6000000000001" y="478.99999999999994"/>
      <point x="1133.6000000000001" y="467.4"/>
      <point x="1117.3999999999999" y="428.0" type="curve" smooth="yes"/>
      <point x="1087.6" y="352.8" type="line" smooth="yes"/>
      <point x="1011.8000000000001" y="163.2"/>
      <point x="930.4000000000001" y="122.8"/>
      <point x="801.5999999999999" y="122.8" type="curve" smooth="yes"/>
      <point x="242.8" y="122.8" type="line"/>
      <point x="439.79999999999995" y="45.2" type="line"/>
    </contour>
  </outline>
</glyph>
<glyph name="bracketleft" format="2">
  <advance width="735.6"/>
  <unicode hex="005B"/>
  <outline>
    <contour>
      <point x="431.6" y="1297.6000000000001" type="line" smooth="yes"/>
      <point x="431.6" y="1347.8"/>
      <point x="455.8" y="1365.8"/>
      <point x="512.2" y="1365.8" type="curve" smooth="yes"/>
      <point x="657.8000000000001" y="1365.8" type="line" smooth="yes"/>
      <point x="705.4" y="1365.8"/>
      <point x="726.8000000000001" y="1386.4"/>
      <point x="726.8000000000001" y="1422.9999999999998" type="curve" smooth="yes"/>
      <point x="726.8000000000001" y="1455.3999999999999"/>
      <point x="705.3999999999999" y="1479.2"/>
      <point x="657.8000000000001" y="1479.2" type="curve" smooth="yes"/>
      <point x="242.99999999999997" y="1479.2" type="line" smooth="yes"/>
      <point x="179.8" y="1479.2"/>
      <point x="156.0" y="1452.0"/>
      <point x="156.0" y="1388.8" type="curve" smooth="yes"/>
      <point x="156.0" y="-165.6" type="line" smooth="yes"/>
      <point x="156.0" y="-228.0"/>
      <point x="179.8" y="-256.0"/>
      <point x="242.99999999999997" y="-256.0" type="curve" smooth="yes"/>
      <point x="657.8000000000001" y="-256.0" type="line" smooth="yes"/>
      <point x="705.3999999999999" y="-256.0"/>
      <point x="726.8000000000001" y="-233.0"/>
      <point x="726.8000000000001" y="-200.6" type="curve" smooth="yes"/>
      <point x="726.8000000000001" y="-163.20000000000002"/>
      <point x="705.4" y="-143.40000000000003"/>
      <point x="657.8000000000001" y="-143.40000000000003" type="curve" smooth="yes"/>
      <point x="512.2" y="-143.40000000000003" type="line" smooth="yes"/>
      <point x="455.8" y="-143.40000000000003"/>
      <point x="431.6" y="-124.6"/>
      <point x="431.6" y="-74.4" type="curve" smooth="yes"/>
    </contour>
  </outline>
</glyph>
<glyph name="asciicircum" format="2">
  <advance width="961.1999999999999"/>
  <unicode hex="005E"/>
  <outline>
    <contour>
      <point x="535.2" y="1284.2" type="line"/>
      <point x="242.0" y="794.0" type="line" smooth="yes"/>
      <point x="195.8" y="733.1999999999999"/>
      <point x="151.60000000000002" y="725.4"/>
      <point x="113.80000000000001" y="745.0" type="curve" smooth="yes"/>
      <point x="81.60000000000001" y="762.2"/>
      <point x="76.00000000000001" y="804.6"/>
      <point x="103.60000000000001" y="852.6000000000001" type="curve" smooth="yes"/>
      <point x="344.4" y="1327.6" type="line" smooth="yes"/>
      <point x="394.20000000000005" y="1412.6"/>
      <point x="429.6" y="1430.4"/>
      <point x="483.0" y="1430.4" type="curve" smooth="yes"/>
      <point x="536.4" y="1430.4"/>
      <point x="571.8000000000001" y="1412.6"/>
      <point x="621.5999999999999" y="1327.6" type="curve" smooth="yes"/>
      <point x="857.6" y="850.2000000000002" type="line" smooth="yes"/>
      <point x="885.2" y="803.0"/>
      <point x="878.8" y="761.4000000000001"/>
      <point x="847.4" y="744.1999999999999" type="curve" smooth="yes"/>
      <point x="809.6" y="724.6"/>
      <point x="764.6" y="732.4"/>
      <point x="718.4" y="792.4" type="curve" smooth="yes"/>
      <point x="431.6" y="1284.2" type="line"/>
    </contour>
  </outline>
</glyph>
<glyph name="underscore" format="2">
  <advance width="1017.8000000000001"/>
  <unicode hex="005F"/>
  <outline>
    <contour>
      <point x="0.5999999999999999" y="-264.0" type="curve" smooth="yes"/>
      <point x="0.5999999999999999" y="-312.00000000000006"/>
      <point x="19.8" y="-341.59999999999997"/>
      <point x="64.0" y="-341.59999999999997" type="curve" smooth="yes"/>
      <point x="953.8000000000001" y="-341.59999999999997" type="line" smooth="yes"/>
      <point x="997.4" y="-341.59999999999997"/>
      <point x="1016.4" y="-312.00000000000006"/>
      <point x="1016.4" y="-264.0" type="curve" smooth="yes"/>
      <point x="1016.4" y="-216.80000000000004"/>
      <point x="997.4" y="-187.00000000000003"/>
      <point x="953.8000000000001" y="-187.00000000000003" type="curve" smooth="yes"/>
      <point x="64.0" y="-187.00000000000003" type="line" smooth="yes"/>
      <point x="19.8" y="-187.00000000000003"/>
      <point x="0.5999999999999999" y="-216.80000000000004"/>
    </contour>
  </outline>
</glyph>
<glyph name="a" format="2">
  <advance width="1165.0"/>
  <unicode hex="0061"/>
  <anchor x="583.8" y="1054.3999999999999" name="center"/>
  <outline>
    <contour>
      <point x="677.4" y="132.6" type="line" smooth="yes"/>
      <point x="677.4" y="37.4"/>
      <point x="768.2" y="-26.400000000000002"/>
      <point x="902.0" y="-26.400000000000002" type="curve" smooth="yes"/>
      <point x="1065.0" y="-26.400000000000002"/>
      <point x="1149.6" y="79.00000000000001"/>
      <point x="1149.6" y="156.99999999999997" type="curve" smooth="yes"/>
      <point x="1149.6" y="179.4"/>
      <point x="1140.6" y="195.8"/>
      <point x="1121.4" y="195.8" type="curve" smooth="yes"/>
      <point x="1108.3999999999999" y="195.8"/>
      <point x="1100.2000000000003" y="188.00000000000003"/>
      <point x="1092.0" y="179.20000000000002" type="curve" smooth="yes"/>
      <point x="1080.4" y="166.4"/>
      <point x="1069.0" y="150.0"/>
      <point x="1042.6" y="150.0" type="curve" smooth="yes"/>
      <point x="1014.8" y="150.0"/>
      <point x="1001.0" y="169.00000000000003"/>
      <point x="1001.0" y="200.00000000000003" type="curve" smooth="yes"/>
      <point x="1001.0" y="699.0" type="line" smooth="yes"/>
      <point x="1001.0" y="873.1999999999999"/>
      <point x="873.8000000000001" y="981.6"/>
      <point x="610.0" y="981.6" type="curve" smooth="yes"/>
      <point x="278.4" y="981.6"/>
      <point x="110.0" y="834.8000000000001"/>
      <point x="110.0" y="706.4000000000001" type="curve" smooth="yes"/>
      <point x="110.0" y="626.0"/>
      <point x="160.4" y="577.9999999999999"/>
      <point x="263.59999999999997" y="577.9999999999999" type="curve" smooth="yes"/>
      <point x="383.0" y="577.9999999999999"/>
      <point x="451.4" y="632.6"/>
      <point x="451.4" y="728.8000000000001" type="curve" smooth="yes"/>
      <point x="451.4" y="827.6" type="line" smooth="yes"/>
      <point x="451.4" y="865.6"/>
      <point x="488.40000000000003" y="893.8"/>
      <point x="545.4000000000001" y="893.8" type="curve" smooth="yes"/>
      <point x="612.1999999999999" y="893.8"/>
      <point x="651.8" y="850.0"/>
      <point x="651.8" y="778.1999999999999" type="curve" smooth="yes"/>
      <point x="651.8" y="157.4" type="line"/>
      <point x="677.4" y="154.60000000000002" type="line"/>
    </contour>
    <contour>
      <point x="71.0" y="211.39999999999998" type="curve" smooth="yes"/>
      <point x="71.0" y="72.32743362831857"/>
      <point x="192.8" y="-26.4"/>
      <point x="374.0" y="-26.4" type="curve" smooth="yes"/>
      <point x="512.4000000000001" y="-26.4"/>
      <point x="645.4612678936531" y="30.08123158933779"/>
      <point x="714.4" y="129.60000000000002" type="curve"/>
      <point x="691.4" y="198.79999999999998" type="line"/>
      <point x="660.2050891442497" y="157.75804169631"/>
      <point x="606.6" y="129.6"/>
      <point x="550.8000000000001" y="129.6" type="curve" smooth="yes"/>
      <point x="478.6" y="129.6"/>
      <point x="428.59999999999997" y="179.21612903225804"/>
      <point x="428.59999999999997" y="272.20000000000005" type="curve" smooth="yes"/>
      <point x="428.59999999999997" y="362.60975609756105"/>
      <point x="481.824" y="415.00000000000006"/>
      <point x="569.8" y="415.00000000000006" type="curve" smooth="yes"/>
      <point x="611.6697674418605" y="415.00000000000006"/>
      <point x="646.604007492966" y="405.3714619071887"/>
      <point x="683.2" y="387.0" type="curve"/>
      <point x="711.1999999999999" y="463.4" type="line"/>
      <point x="667.2209501434933" y="485.4409934428315"/>
      <point x="602.1707317073171" y="499.0"/>
      <point x="519.4000000000001" y="499.0" type="curve" smooth="yes"/>
      <point x="236.17515527950312" y="499.0"/>
      <point x="71.0" y="386.248"/>
    </contour>
  </outline>
</glyph>
<glyph name="b" format="2">
  <advance width="1262.8"/>
  <unicode hex="0062"/>
  <outline>
    <contour>
      <point x="488.2" y="1420.7999999999997" type="line" smooth="yes"/>
      <point x="488.2" y="1466.4"/>
      <point x="461.0" y="1498.4"/>
      <point x="406.40000000000003" y="1498.4" type="curve"/>
      <point x="378.6" y="1498.4"/>
      <point x="346.8" y="1489.8000000000002"/>
      <point x="284.2" y="1465.8000000000002" type="curve" smooth="yes"/>
      <point x="81.39999999999999" y="1389.0" type="line" smooth="yes"/>
      <point x="39.199999999999996" y="1372.6"/>
      <point x="26.800000000000004" y="1359.3999999999999"/>
      <point x="26.800000000000004" y="1332.2" type="curve" smooth="yes"/>
      <point x="26.800000000000004" y="1309.0"/>
      <point x="37.79999999999999" y="1294.4"/>
      <point x="64.2" y="1287.2" type="curve" smooth="yes"/>
      <point x="101.39999999999999" y="1281.6" type="line" smooth="yes"/>
      <point x="124.6" y="1276.0"/>
      <point x="135.0" y="1262.6000000000001"/>
      <point x="135.0" y="1223.8" type="curve" smooth="yes"/>
      <point x="135.0" y="39.2" type="line" smooth="yes"/>
      <point x="135.0" y="-2.5999999999999983"/>
      <point x="160.4" y="-24.8"/>
      <point x="199.39999999999998" y="-24.8" type="curve" smooth="yes"/>
      <point x="232.60000000000002" y="-24.8"/>
      <point x="257.8" y="-18.599999999999998"/>
      <point x="348.6000000000001" y="14.0" type="curve" smooth="yes"/>
      <point x="488.2" y="91.2" type="line"/>
    </contour>
    <contour>
      <point x="421.59999999999997" y="637.8" type="line"/>
      <point x="484.8" y="754.1999999999999"/>
      <point x="556.7999999999998" y="806.5999999999999"/>
      <point x="642.3999999999999" y="806.5999999999999" type="curve" smooth="yes"/>
      <point x="755.2" y="806.5999999999999"/>
      <point x="837.4" y="704.6"/>
      <point x="837.4" y="470.79999999999995" type="curve" smooth="yes"/>
      <point x="837.4" y="218.6"/>
      <point x="755.1999999999999" y="111.8"/>
      <point x="639.8" y="111.8" type="curve" smooth="yes"/>
      <point x="560.4" y="111.8"/>
      <point x="493.0" y="155.00000000000003"/>
      <point x="429.4" y="253.99999999999997" type="curve"/>
      <point x="340.0" y="187.60000000000002" type="line"/>
      <point x="424.2" y="46.00000000000001"/>
      <point x="545.7999999999998" y="-26.400000000000002"/>
      <point x="706.8000000000001" y="-26.400000000000002" type="curve" smooth="yes"/>
      <point x="988.0" y="-26.400000000000002"/>
      <point x="1203.6" y="184.8"/>
      <point x="1203.6" y="507.6" type="curve" smooth="yes"/>
      <point x="1203.6" y="787.1999999999999"/>
      <point x="1027.0" y="983.1999999999999"/>
      <point x="789.3999999999999" y="983.1999999999999" type="curve" smooth="yes"/>
      <point x="613.1999999999999" y="983.1999999999999"/>
      <point x="473.3853222601994" y="876.8100461021394"/>
      <point x="363.20000000000005" y="701.0" type="curve"/>
    </contour>
  </outline>
</glyph>
<glyph name="c" format="2">
  <advance width="1083.6000000000001"/>
  <unicode hex="0063"/>
  <anchor x="559.8000000000001" y="1053.1999999999998" name="center"/>
  <outline>
    <contour>
      <point x="1018.4" y="690.2" type="curve" smooth="yes"/>
      <point x="1018.4" y="851.4"/>
      <point x="857.4" y="983.1999999999999"/>
      <point x="597.8" y="983.1999999999999" type="curve" smooth="yes"/>
      <point x="269.8" y="983.1999999999999"/>
      <point x="61.2" y="756.4"/>
      <point x="61.2" y="454.2" type="curve" smooth="yes"/>
      <point x="61.2" y="164.99999999999997"/>
      <point x="280.4000000000001" y="-26.4"/>
      <point x="578.6" y="-26.4" type="curve" smooth="yes"/>
      <point x="839.2" y="-26.4"/>
      <point x="1020.3992795549743" y="124.19471673647949"/>
      <point x="1024.6000000000001" y="298.2" type="curve" smooth="yes"/>
      <point x="1024.8001679511613" y="331.2015115604511"/>
      <point x="1014.36" y="357.2"/>
      <point x="990.2" y="357.20000000000005" type="curve" smooth="yes"/>
      <point x="972.7142857142857" y="357.20000000000005"/>
      <point x="959.4010684495627" y="348.0074791469384"/>
      <point x="927.8" y="318.00000000000006" type="curve" smooth="yes"/>
      <point x="869.2012665048853" y="246.20717686101642"/>
      <point x="793.0869565217391" y="214.2"/>
      <point x="694.1999999999999" y="214.2" type="curve" smooth="yes"/>
      <point x="509.20000000000005" y="214.2"/>
      <point x="375.79999999999995" y="341.0259311062681"/>
      <point x="375.79999999999995" y="582.9999999999999" type="curve" smooth="yes"/>
      <point x="375.79999999999995" y="764.2430107526881"/>
      <point x="455.4" y="861.1999999999999"/>
      <point x="553.6" y="861.1999999999999" type="curve" smooth="yes"/>
      <point x="631.1999999999999" y="861.1999999999999"/>
      <point x="680.4" y="804.835294117647"/>
      <point x="680.4" y="715.4" type="curve" smooth="yes"/>
      <point x="680.4" y="684.0" type="line" smooth="yes"/>
      <point x="680.4" y="594.3999999999999"/>
      <point x="734.4000000000001" y="531.8"/>
      <point x="839.6000000000001" y="531.8" type="curve" smooth="yes"/>
      <point x="947.8000000000001" y="531.8"/>
      <point x="1018.4" y="601.2"/>
    </contour>
  </outline>
</glyph>
<glyph name="d" format="2">
  <advance width="1285.8"/>
  <unicode hex="0064"/>
  <outline>
    <contour>
      <point x="787.6" y="172.8" type="line"/>
      <point x="787.6" y="144.0" type="line" smooth="yes"/>
      <point x="787.6" y="62.8"/>
      <point x="853.9999999999999" y="0.0"/>
      <point x="934.5999999999999" y="0.0" type="curve" smooth="yes"/>
      <point x="1164.1999999999998" y="0.0" type="line" smooth="yes"/>
      <point x="1209.9999999999998" y="0.0"/>
      <point x="1230.3999999999999" y="18.799999999999997"/>
      <point x="1230.3999999999999" y="51.2" type="curve" smooth="yes"/>
      <point x="1230.3999999999999" y="75.19999999999999"/>
      <point x="1218.6000000000001" y="91.40000000000002"/>
      <point x="1189.8" y="103.19999999999999" type="curve" smooth="yes"/>
      <point x="1160.2000000000003" y="113.2" type="line" smooth="yes"/>
      <point x="1138.0" y="121.4"/>
      <point x="1128.8000000000002" y="138.20000000000002"/>
      <point x="1128.8000000000002" y="186.6" type="curve" smooth="yes"/>
      <point x="1128.8000000000002" y="1420.7999999999997" type="line" smooth="yes"/>
      <point x="1128.8000000000002" y="1466.4"/>
      <point x="1101.6" y="1498.4"/>
      <point x="1050.2" y="1498.4" type="curve"/>
      <point x="1016.2" y="1498.4"/>
      <point x="984.2" y="1488.2"/>
      <point x="924.8000000000002" y="1465.8000000000002" type="curve" smooth="yes"/>
      <point x="722.0" y="1389.0" type="line" smooth="yes"/>
      <point x="679.8" y="1372.6"/>
      <point x="667.4" y="1359.3999999999999"/>
      <point x="667.4" y="1332.2" type="curve" smooth="yes"/>
      <point x="667.4" y="1309.0"/>
      <point x="678.4000000000001" y="1294.4"/>
      <point x="704.8" y="1287.2" type="curve" smooth="yes"/>
      <point x="742.0000000000001" y="1281.6" type="line" smooth="yes"/>
      <point x="765.1999999999999" y="1276.0"/>
      <point x="775.6" y="1262.6000000000001"/>
      <point x="775.6" y="1223.8" type="curve" smooth="yes"/>
      <point x="775.6" y="175.79999999999998" type="line"/>
    </contour>
    <contour>
      <point x="60.2" y="449.2" type="curve" smooth="yes"/>
      <point x="60.2" y="169.6"/>
      <point x="236.79999999999998" y="-26.400000000000002"/>
      <point x="474.40000000000003" y="-26.400000000000002" type="curve" smooth="yes"/>
      <point x="650.6" y="-26.400000000000002"/>
      <point x="790.3557202250606" y="80.1060761964778"/>
      <point x="900.5999999999999" y="256.0" type="curve"/>
      <point x="842.2" y="319.0" type="line"/>
      <point x="779.0000000000001" y="202.60000000000002"/>
      <point x="707.0" y="150.2"/>
      <point x="621.4000000000001" y="150.2" type="curve" smooth="yes"/>
      <point x="508.59999999999997" y="150.2"/>
      <point x="426.40000000000003" y="252.2"/>
      <point x="426.40000000000003" y="486.0" type="curve" smooth="yes"/>
      <point x="426.40000000000003" y="738.2"/>
      <point x="508.6" y="845.0"/>
      <point x="624.0" y="845.0" type="curve" smooth="yes"/>
      <point x="703.4" y="845.0"/>
      <point x="770.8" y="801.8000000000001"/>
      <point x="834.4000000000001" y="702.8" type="curve"/>
      <point x="923.8" y="769.2" type="line"/>
      <point x="839.6" y="910.8"/>
      <point x="718.0" y="983.1999999999999"/>
      <point x="556.9999999999999" y="983.1999999999999" type="curve" smooth="yes"/>
      <point x="275.8" y="983.1999999999999"/>
      <point x="60.2" y="772.0000000000001"/>
    </contour>
  </outline>
</glyph>
<glyph name="e" format="2">
  <advance width="1095.6000000000001"/>
  <unicode hex="0065"/>
  <anchor x="569.2" y="1054.4" name="center"/>
  <outline>
    <contour>
      <point x="1035.8" y="600.6" type="curve" smooth="yes"/>
      <point x="1035.8" y="823.9538461538461"/>
      <point x="879.2818181818182" y="983.1999999999999"/>
      <point x="590.6" y="983.1999999999999" type="curve" smooth="yes"/>
      <point x="256.3205479452055" y="983.1999999999999"/>
      <point x="60.2" y="769.1999999999999"/>
      <point x="60.2" y="454.2" type="curve" smooth="yes"/>
      <point x="60.2" y="165.0"/>
      <point x="279.40000000000003" y="-26.400000000000002"/>
      <point x="578.4" y="-26.400000000000002" type="curve" smooth="yes"/>
      <point x="844.2693641618497" y="-26.400000000000002"/>
      <point x="1029.2" y="124.4"/>
      <point x="1033.2" y="298.6" type="curve" smooth="yes"/>
      <point x="1033.4" y="332.0"/>
      <point x="1022.9200000000001" y="358.0"/>
      <point x="998.6" y="358.00000000000006" type="curve" smooth="yes"/>
      <point x="981.2888888888888" y="358.00000000000006"/>
      <point x="968.0006772170053" y="348.80474051903747"/>
      <point x="936.4000000000001" y="318.8" type="curve" smooth="yes"/>
      <point x="877.0011791010858" y="245.80679386816067"/>
      <point x="796.5391304347825" y="214.2"/>
      <point x="694.0" y="214.2" type="curve" smooth="yes"/>
      <point x="498.6" y="214.2"/>
      <point x="374.8" y="332.6"/>
      <point x="374.8" y="583.0" type="curve" smooth="yes"/>
      <point x="374.8" y="763.8000000000001"/>
      <point x="445.91728045325783" y="861.1999999999999"/>
      <point x="543.3999999999999" y="861.1999999999999" type="curve" smooth="yes"/>
      <point x="629.3338129496403" y="861.1999999999999"/>
      <point x="685.0" y="782.0969696969697"/>
      <point x="685.0" y="611.0" type="curve" smooth="yes"/>
      <point x="685.0" y="576.2"/>
      <point x="668.2" y="561.6"/>
      <point x="631.6" y="561.6" type="curve" smooth="yes"/>
      <point x="293.19999999999993" y="561.6" type="line"/>
      <point x="293.19999999999993" y="470.59999999999997" type="line"/>
      <point x="901.8" y="470.59999999999997" type="line" smooth="yes"/>
      <point x="987.8" y="470.59999999999997"/>
      <point x="1035.8" y="517.8"/>
    </contour>
  </outline>
</glyph>
<glyph name="f" format="2">
  <advance width="855.2"/>
  <unicode hex="0066"/>
  <outline>
    <contour>
      <point x="576.1999999999999" y="187.39999999999998" type="curve" smooth="yes"/>
      <point x="576.1999999999999" y="794.2" type="line"/>
      <point x="669.1999999999999" y="794.2" type="line" smooth="yes"/>
      <point x="765.0000000000001" y="794.2"/>
      <point x="804.8" y="827.1999999999999"/>
      <point x="804.8" y="870.6" type="curve" smooth="yes"/>
      <point x="804.8" y="899.4"/>
      <point x="781.6" y="915.5999999999999"/>
      <point x="745.2" y="915.5999999999999" type="curve" smooth="yes"/>
      <point x="509.5999999999999" y="915.5999999999999" type="line"/>
      <point x="548.2" y="863.8000000000001" type="line"/>
      <point x="548.2" y="914.6" type="line" smooth="yes"/>
      <point x="548.2" y="1028.6"/>
      <point x="349.8" y="1095.8"/>
      <point x="349.8" y="1255.6000000000001" type="curve" smooth="yes"/>
      <point x="349.8" y="1328.4"/>
      <point x="383.4813186813187" y="1369.2"/>
      <point x="449.00000000000006" y="1369.4" type="curve" smooth="yes"/>
      <point x="504.720987654321" y="1369.4"/>
      <point x="541.4" y="1340.3999999999999"/>
      <point x="541.4" y="1281.0" type="curve" smooth="yes"/>
      <point x="541.4" y="1210.4" type="line" smooth="yes"/>
      <point x="541.4" y="1115.4"/>
      <point x="602.8000000000001" y="1054.4"/>
      <point x="698.2" y="1054.4" type="curve" smooth="yes"/>
      <point x="783.8" y="1054.4"/>
      <point x="842.9999999999999" y="1106.8000000000002"/>
      <point x="842.9999999999999" y="1203.6" type="curve" smooth="yes"/>
      <point x="842.9999999999999" y="1340.4"/>
      <point x="717.9974025974026" y="1460.0"/>
      <point x="489.4" y="1460.0" type="curve" smooth="yes"/>
      <point x="250.21957040572792" y="1460.0"/>
      <point x="111.19999999999999" y="1343.7999999999997"/>
      <point x="111.19999999999999" y="1172.1999999999998" type="curve" smooth="yes"/>
      <point x="111.19999999999999" y="1028.2000000000003"/>
      <point x="224.60000000000002" y="978.8000000000001"/>
      <point x="224.60000000000002" y="913.5999999999999" type="curve" smooth="yes"/>
      <point x="224.60000000000002" y="882.2000000000002" type="line"/>
      <point x="298.40000000000003" y="915.5999999999999" type="line"/>
      <point x="130.99999999999997" y="915.5999999999999" type="line" smooth="yes"/>
      <point x="88.8" y="915.5999999999999"/>
      <point x="69.0" y="896.2"/>
      <point x="69.0" y="868.8000000000001" type="curve" smooth="yes"/>
      <point x="69.0" y="844.4"/>
      <point x="83.2" y="827.0"/>
      <point x="131.60000000000002" y="806.2" type="curve" smooth="yes"/>
      <point x="174.39999999999998" y="789.8000000000001" type="line" smooth="yes"/>
      <point x="212.80000000000004" y="773.8000000000001"/>
      <point x="223.0" y="756.8"/>
      <point x="223.0" y="731.0" type="curve" smooth="yes"/>
      <point x="223.0" y="185.60000000000002" type="line" smooth="yes"/>
      <point x="223.0" y="146.20000000000002"/>
      <point x="208.2" y="125.60000000000001"/>
      <point x="168.4" y="114.00000000000001" type="curve" smooth="yes"/>
      <point x="134.79999999999998" y="105.4" type="line" smooth="yes"/>
      <point x="99.8" y="95.20000000000002"/>
      <point x="85.0" y="78.2"/>
      <point x="85.0" y="49.60000000000001" type="curve" smooth="yes"/>
      <point x="85.0" y="18.8"/>
      <point x="109.19999999999999" y="0.0"/>
      <point x="147.6" y="0.0" type="curve" smooth="yes"/>
      <point x="713.2" y="0.0" type="line" smooth="yes"/>
      <point x="754.2" y="0.0"/>
      <point x="777.0" y="18.8"/>
      <point x="777.0" y="52.0" type="curve" smooth="yes"/>
      <point x="777.0" y="79.19999999999999"/>
      <point x="762.8000000000001" y="100.39999999999999"/>
      <point x="726.8000000000001" y="104.0" type="curve" smooth="yes"/>
      <point x="624.4" y="116.4" type="line" smooth="yes"/>
      <point x="589.4" y="120.20000000000002"/>
      <point x="576.1999999999999" y="143.8"/>
    </contour>
  </outline>
</glyph>
<glyph name="g" format="2">
  <advance width="1197.6000000000001"/>
  <unicode hex="0067"/>
  <anchor x="583.4" y="1055.4" name="center"/>
  <outline>
    <contour>
      <point x="747.6" y="121.19999999999999" type="curve" smooth="yes"/>
      <point x="1061.8501553479653" y="84.19481677255068"/>
      <point x="1178.1999999999998" y="6.053900709219871"/>
      <point x="1178.1999999999998" y="-157.6" type="curve" smooth="yes"/>
      <point x="1178.1999999999998" y="-351.40000000000003"/>
      <point x="959.5999999999999" y="-490.0"/>
      <point x="552.8000000000001" y="-490.0" type="curve" smooth="yes"/>
      <point x="168.8" y="-490.0"/>
      <point x="50.599999999999994" y="-402.8"/>
      <point x="50.599999999999994" y="-275.20000000000005" type="curve" smooth="yes"/>
      <point x="50.599999999999994" y="-176.79999999999998"/>
      <point x="132.4" y="-95.6"/>
      <point x="391.79999999999995" y="-65.6" type="curve"/>
      <point x="403.6" y="-96.2" type="line"/>
      <point x="347.2" y="-110.4"/>
      <point x="316.6" y="-151.8"/>
      <point x="316.6" y="-196.39999999999998" type="curve" smooth="yes"/>
      <point x="316.6" y="-305.40000000000003"/>
      <point x="392.4" y="-375.8"/>
      <point x="614.2" y="-375.8" type="curve" smooth="yes"/>
      <point x="805.3999999999999" y="-375.8"/>
      <point x="868.2" y="-334.8"/>
      <point x="868.2" y="-259.4" type="curve" smooth="yes"/>
      <point x="868.2" y="-193.78407079646016"/>
      <point x="795.3004808246056" y="-165.58796139007325"/>
      <point x="548.8" y="-132.19999999999996" type="curve" smooth="yes"/>
      <point x="244.93603054157379" y="-92.99270706500027"/>
      <point x="176.8" y="-38.28151658767773"/>
      <point x="176.8" y="64.60000000000001" type="curve" smooth="yes"/>
      <point x="176.8" y="162.20000000000002"/>
      <point x="248.9225477381143" y="247.33073055668572"/>
      <point x="485.2000000000001" y="259.8" type="curve"/>
      <point x="501.00000000000006" y="241.8" type="line"/>
      <point x="469.00000000000006" y="228.8"/>
      <point x="456.4" y="215.0"/>
      <point x="456.4" y="198.2" type="curve" smooth="yes"/>
      <point x="456.4" y="174.2"/>
      <point x="470.38442862740004" y="155.04001942275045"/>
    </contour>
    <contour>
      <point x="748.0" y="878.0" type="line" smooth="yes"/>
      <point x="783.1999999999999" y="957.4000000000001" type="line" smooth="yes"/>
      <point x="852.5999999999999" y="1117.8"/>
      <point x="962.0" y="1194.1999999999998"/>
      <point x="1079.2" y="1194.1999999999998" type="curve" smooth="yes"/>
      <point x="1172.4" y="1194.1999999999998"/>
      <point x="1238.6000000000001" y="1139.6"/>
      <point x="1238.6000000000001" y="1042.0" type="curve" smooth="yes"/>
      <point x="1238.6000000000001" y="954.8"/>
      <point x="1191.3999999999999" y="896.4"/>
      <point x="1119.3999999999999" y="896.4" type="curve" smooth="yes"/>
      <point x="1019.6" y="896.4"/>
      <point x="1031.6" y="1001.1999999999998"/>
      <point x="943.4000000000001" y="1001.1999999999998" type="curve" smooth="yes"/>
      <point x="896.4" y="1001.1999999999998"/>
      <point x="871.9999999999999" y="973.2"/>
      <point x="826.8000000000001" y="870.2" type="curve"/>
    </contour>
    <contour>
      <point x="1093.2" y="620.0000000000001" type="curve" smooth="yes"/>
      <point x="1093.2" y="384.59999999999997"/>
      <point x="891.1999999999999" y="225.4"/>
      <point x="568.8" y="225.4" type="curve" smooth="yes"/>
      <point x="260.2" y="225.4"/>
      <point x="81.0" y="380.79999999999995"/>
      <point x="81.0" y="583.8000000000001" type="curve" smooth="yes"/>
      <point x="81.0" y="819.1999999999999"/>
      <point x="283.0" y="978.4"/>
      <point x="605.4000000000001" y="978.4" type="curve" smooth="yes"/>
      <point x="914.0" y="978.4"/>
      <point x="1093.2" y="823.0000000000001"/>
    </contour>
    <contour>
      <point x="543.4" y="876.4000000000001" type="curve" smooth="yes"/>
      <point x="455.2" y="865.9999999999999"/>
      <point x="423.6000000000001" y="773.4"/>
      <point x="451.59999999999997" y="592.9999999999999" type="curve" smooth="yes"/>
      <point x="479.59999999999997" y="411.20000000000005"/>
      <point x="540.5999999999999" y="322.6"/>
      <point x="629.9999999999999" y="333.0" type="curve" smooth="yes"/>
      <point x="718.0" y="343.4"/>
      <point x="749.8000000000001" y="435.99999999999994"/>
      <point x="721.8" y="616.4" type="curve" smooth="yes"/>
      <point x="693.8" y="798.1999999999999"/>
      <point x="632.8" y="886.8"/>
    </contour>
  </outline>
</glyph>
<glyph name="h" format="2">
  <advance width="1331.0"/>
  <unicode hex="0068"/>
  <anchor x="676.4" y="1114.0" name="center"/>
  <outline>
    <contour>
      <point x="490.6" y="669.4000000000001" type="line" smooth="yes"/>
      <point x="528.4" y="702.4000000000001" type="line" smooth="yes"/>
      <point x="582.4" y="749.1999999999999"/>
      <point x="642.9999999999999" y="772.2"/>
      <point x="694.8000000000001" y="772.2" type="curve" smooth="yes"/>
      <point x="778.5999999999999" y="772.2"/>
      <point x="829.8000000000001" y="721.4"/>
      <point x="829.8000000000001" y="620.4000000000001" type="curve" smooth="yes"/>
      <point x="829.8000000000001" y="187.8" type="line" smooth="yes"/>
      <point x="829.8000000000001" y="139.00000000000003"/>
      <point x="820.8" y="123.00000000000001"/>
      <point x="798.0000000000001" y="113.2" type="curve" smooth="yes"/>
      <point x="769.2" y="102.39999999999999" type="line" smooth="yes"/>
      <point x="747.0" y="91.4"/>
      <point x="736.8" y="76.80000000000001"/>
      <point x="736.8" y="54.400000000000006" type="curve" smooth="yes"/>
      <point x="736.8" y="18.8"/>
      <point x="757.0" y="0.0"/>
      <point x="803.8000000000001" y="0.0" type="curve" smooth="yes"/>
      <point x="1218.6" y="0.0" type="line" smooth="yes"/>
      <point x="1264.3999999999999" y="0.0"/>
      <point x="1284.4" y="18.8"/>
      <point x="1284.4" y="51.2" type="curve" smooth="yes"/>
      <point x="1284.4" y="75.0"/>
      <point x="1272.8000000000002" y="91.19999999999999"/>
      <point x="1244.2" y="102.99999999999999" type="curve" smooth="yes"/>
      <point x="1215.6" y="113.00000000000001" type="line" smooth="yes"/>
      <point x="1192.8" y="121.4"/>
      <point x="1183.0" y="138.60000000000002"/>
      <point x="1183.0" y="187.8" type="curve" smooth="yes"/>
      <point x="1183.0" y="671.1999999999999" type="line" smooth="yes"/>
      <point x="1183.0" y="858.3999999999999"/>
      <point x="1065.4" y="983.1999999999999"/>
      <point x="890.2" y="983.1999999999999" type="curve" smooth="yes"/>
      <point x="776.1999999999999" y="983.1999999999999"/>
      <point x="650.8000000000001" y="924.8000000000001"/>
      <point x="472.0" y="756.8000000000001" type="curve" smooth="yes"/>
      <point x="437.4" y="725.4" type="line"/>
    </contour>
    <contour>
      <point x="524.2" y="1420.7999999999997" type="line" smooth="yes"/>
      <point x="524.2" y="1466.4"/>
      <point x="497.0" y="1498.4"/>
      <point x="445.6" y="1498.4" type="curve" smooth="yes"/>
      <point x="411.6" y="1498.4"/>
      <point x="379.59999999999997" y="1488.2"/>
      <point x="320.2" y="1465.8000000000002" type="curve" smooth="yes"/>
      <point x="117.39999999999999" y="1389.0" type="line" smooth="yes"/>
      <point x="75.19999999999999" y="1372.6"/>
      <point x="62.8" y="1359.3999999999999"/>
      <point x="62.8" y="1332.2" type="curve" smooth="yes"/>
      <point x="62.8" y="1309.0"/>
      <point x="73.8" y="1294.4"/>
      <point x="100.19999999999999" y="1287.2" type="curve" smooth="yes"/>
      <point x="137.4" y="1281.6" type="line" smooth="yes"/>
      <point x="160.6" y="1276.0"/>
      <point x="171.0" y="1262.6000000000001"/>
      <point x="171.0" y="1223.8" type="curve" smooth="yes"/>
      <point x="171.0" y="186.39999999999998" type="line" smooth="yes"/>
      <point x="171.0" y="138.20000000000002"/>
      <point x="161.8" y="121.59999999999998"/>
      <point x="139.60000000000002" y="113.2" type="curve" smooth="yes"/>
      <point x="109.2" y="103.0" type="line" smooth="yes"/>
      <point x="80.60000000000001" y="91.2"/>
      <point x="69.00000000000001" y="75.0"/>
      <point x="69.00000000000001" y="51.2" type="curve" smooth="yes"/>
      <point x="69.00000000000001" y="18.8"/>
      <point x="89.2" y="0.0"/>
      <point x="134.8" y="0.0" type="curve" smooth="yes"/>
      <point x="549.2000000000002" y="0.0" type="line" smooth="yes"/>
      <point x="595.8" y="0.0"/>
      <point x="616.1999999999999" y="18.8"/>
      <point x="616.1999999999999" y="54.400000000000006" type="curve" smooth="yes"/>
      <point x="616.1999999999999" y="76.80000000000001"/>
      <point x="605.9999999999999" y="91.4"/>
      <point x="583.6" y="102.39999999999999" type="curve" smooth="yes"/>
      <point x="555.6" y="113.2" type="line" smooth="yes"/>
      <point x="533.4" y="123.00000000000001"/>
      <point x="524.2" y="138.20000000000002"/>
      <point x="524.2" y="186.6" type="curve" smooth="yes"/>
    </contour>
  </outline>
</glyph>
